<svg xmlns="http://www.w3.org/2000/svg" width="214.934" height="223.543" viewBox="0 0 214.934 223.543">
  <g id="freepik--Character--inject-33" transform="translate(-15.405 -79.614)">
    <path id="Path_450" data-name="Path 450" d="M113.568,133.72l-9.413-3.477-36.019-1.065-8.364,2.275,1.1,20.373,18.907,12.057,18.33-.368,11.528-10.5L112.2,142.6Z" transform="translate(38.878 43.431)" fill="#ffbe9d"/>
    <path id="Path_451" data-name="Path 451" d="M37.212,164.722a122.947,122.947,0,0,1,7.539-13.467A31.116,31.116,0,0,1,64.162,137.6l30.218-8.187s2.059,20.381,22.84,20.381,21.206-18.842,21.206-18.842l38.053,13.907c1.2.465,9.317,3.277,18.754,23.513,8.989,19.243,12.922,29.073,12.922,29.073l-35.9,9.613-2.4,33.159.8,18.506L61.3,258.477l.609-21.158-.489-34.913-2.291,4.318-34.144-13.7S28.359,182.947,37.212,164.722Z" transform="translate(8.396 43.633)" fill="#ff725e"/>
    <path id="Path_452" data-name="Path 452" d="M44.15,158.669c-.16,0-.056,11.72.224,26.165s.633,26.165.8,26.157.064-11.712-.216-26.165S44.311,158.661,44.15,158.669Z" transform="translate(25.122 69.274)" fill="#263238"/>
    <g id="Group_11" data-name="Group 11" transform="translate(72.887 224.903)" opacity="0.3">
      <path id="Path_453" data-name="Path 453" d="M148.961,163.5c-1.7-1.867-4.334-2.491-6.81-3-28.135-5.776-57.152-3.333-85.656.232-3.541.441-7.442,1.186-9.573,4.006-1.546,2.067-.553,4.807-.7,7.378-.745,13.211.977,27.286,3.6,40.256l97.1-1.506c3.325-10.062,4.134-27.134,4.19-38.726C151.124,169.093,151.012,165.744,148.961,163.5Z" transform="translate(-46.041 -157.049)"/>
    </g>
    <path id="Path_454" data-name="Path 454" d="M183.845,153.236l-.312.28-.961.8a15.06,15.06,0,0,1-1.6,1.218l-1.082.713-.593.393-.673.361a26.776,26.776,0,0,1-3.108,1.538,36.287,36.287,0,0,1-3.869,1.418,36.707,36.707,0,0,1-9.934,1.378,35.178,35.178,0,0,1-11.961-2.107c-.264-.1-.529-.176-.8-.28l-.761-.336-1.538-.7c-.513-.232-1-.545-1.506-.8a11.526,11.526,0,0,1-1.506-.881c-.945-.681-1.963-1.306-2.884-2.083s-1.851-1.554-2.78-2.355a28.04,28.04,0,0,0-6.1-4.3,15.436,15.436,0,0,0-3.653-1.17,17.2,17.2,0,0,0-3.91-.16,24.418,24.418,0,0,0-7.779,2.067,47.377,47.377,0,0,0-7.306,4.006c-4.711,3.108-9.229,6.465-14.324,8.308a20.244,20.244,0,0,1-11.6.873,25.269,25.269,0,0,1-3.605-1.049,50,50,0,0,1-12.1-6.954c-3.533-2.588-6.753-5.071-9.934-6.978a30.938,30.938,0,0,0-9.141-3.909,21.318,21.318,0,0,0-7.482-.513,15.078,15.078,0,0,0-4.582,1.242,11.637,11.637,0,0,0-1.114.537l-.385.192a4.009,4.009,0,0,1,.361-.224,8.491,8.491,0,0,1,1.106-.585,14.885,14.885,0,0,1,4.6-1.322,21.462,21.462,0,0,1,7.547.441,31.244,31.244,0,0,1,9.245,3.893c3.2,1.907,6.409,4.382,9.982,6.954a50.016,50.016,0,0,0,12.017,6.874,24.883,24.883,0,0,0,3.557,1.025,19.417,19.417,0,0,0,3.749.449,20.461,20.461,0,0,0,7.635-1.322c5.015-1.819,9.509-5.151,14.236-8.268a47.126,47.126,0,0,1,7.37-4.078,24.771,24.771,0,0,1,7.907-2.091,17.2,17.2,0,0,1,4.006.176,15.414,15.414,0,0,1,3.749,1.2,28.36,28.36,0,0,1,6.185,4.374c.929.8,1.843,1.6,2.764,2.355s1.915,1.386,2.852,2.059c.473.344.993.585,1.482.881a12.752,12.752,0,0,0,1.49.8l1.522.681.753.344c.248.1.513.184.8.272a34.73,34.73,0,0,0,11.825,2.155,36.77,36.77,0,0,0,9.87-1.306,35.237,35.237,0,0,0,3.861-1.378,27.454,27.454,0,0,0,3.1-1.49l.673-.352.6-.385,1.065-.7a15.8,15.8,0,0,0,1.6-1.178l.985-.761Z" transform="translate(17.132 54.406)" fill="#fff"/>
    <path id="Path_455" data-name="Path 455" d="M170.936,170.026a3.135,3.135,0,0,1-.352.16l-1.066.441a17.447,17.447,0,0,1-4.326.873,23.625,23.625,0,0,1-6.946-.673,44.573,44.573,0,0,1-8.684-3.2c-3.1-1.466-6.369-3.317-10.03-4.975s-7.747-3.2-12.257-3.253a20.478,20.478,0,0,0-6.769,1.049,40.717,40.717,0,0,0-6.593,2.892c-2.179,1.146-4.342,2.4-6.617,3.573a35.7,35.7,0,0,1-7.21,2.916,23.441,23.441,0,0,1-7.731.713,32.044,32.044,0,0,1-7.4-1.474,56.6,56.6,0,0,1-12.746-6.217c-3.837-2.4-7.37-4.871-10.807-6.962a55.122,55.122,0,0,0-9.958-4.975,28.655,28.655,0,0,0-15.87-1.474,21.253,21.253,0,0,0-4.15,1.418l-1.017.529-.352.168s.112-.08.336-.208l1-.569a20.218,20.218,0,0,1,4.15-1.5c3.709-.937,9.509-.969,16.022,1.362a55.049,55.049,0,0,1,10.046,4.975c3.453,2.083,6.994,4.534,10.823,6.93a56.918,56.918,0,0,0,12.69,6.193,32.046,32.046,0,0,0,7.274,1.4,23.089,23.089,0,0,0,7.6-.713,35.369,35.369,0,0,0,7.114-2.876c2.251-1.162,4.422-2.4,6.609-3.565a42.066,42.066,0,0,1,6.665-2.916,20.982,20.982,0,0,1,6.9-1.049,31.553,31.553,0,0,1,12.393,3.317c3.645,1.658,6.93,3.549,10.014,5.031a44.913,44.913,0,0,0,8.612,3.2,23.762,23.762,0,0,0,6.882.737,18.64,18.64,0,0,0,4.31-.8l1.073-.4C170.808,170.058,170.936,170.026,170.936,170.026Z" transform="translate(12.833 60.52)" fill="#fff"/>
    <path id="Path_456" data-name="Path 456" d="M131.469,156.8a5.611,5.611,0,0,1-.8.8c-.272.256-.609.561-1.033.9s-.873.729-1.426,1.114a36.875,36.875,0,0,1-14.861,6.4,34.44,34.44,0,0,1-4.679.561c-.673.048-1.282,0-1.811.04a7.374,7.374,0,0,1-1.37-.04,7.207,7.207,0,0,1-1.162-.112,5.547,5.547,0,0,1,1.162-.048h1.362a11,11,0,0,0,1.795-.1,39.387,39.387,0,0,0,4.631-.641,42.729,42.729,0,0,0,5.52-1.522,43.763,43.763,0,0,0,5.231-2.307,41.125,41.125,0,0,0,4.006-2.4c.553-.368,1.025-.745,1.45-1.057s.8-.6,1.073-.8A8.013,8.013,0,0,1,131.469,156.8Z" transform="translate(77.92 67.635)" fill="#fff"/>
    <path id="Path_457" data-name="Path 457" d="M55.88,133.9s-2.283,3.124-2.243,8.756c0,3.02,2.075,9.141,7.434,9.445-1.418,8.636,4.1,15.013,13.3,15.029S94.1,151.355,102.626,147.9l24.739-6.537c2.179-.5,3.068-3.156,3.028-5.384s-.609-4.55.176-6.641c1.082-2.86,4.4-4.39,5.528-7.21,1.29-3.2-.7-6.818-3-9.429s-5.1-5.1-5.824-8.492c-.673-3.132.529-6.657-1.033-9.445-1.923-3.437-6.954-3.861-9.293-7.026-1.13-1.538-1.482-3.533-2.6-5.079-1.907-2.628-5.608-3.317-8.812-2.956S99.2,81.217,95.96,81.457c-4.446.32-9.037-1.114-13.3.168-4.7,1.426-7.571,5.608-10.623,9.613l-4.006,4.687A17.534,17.534,0,0,1,65.381,98.1c-1.682,1.09-3.6,1.843-5.039,3.2a7.875,7.875,0,0,0,.545,11.336,8.4,8.4,0,0,0-5.608,8.26s-.441,4.1,2.155,5.928A5.674,5.674,0,0,0,55.88,133.9Z" transform="translate(33.501 0)" fill="#263238"/>
    <path id="Path_458" data-name="Path 458" d="M66.236,134.4c-2.043-6.281-4.054-12.6-4.983-19.139s-.737-13.339,1.6-19.523c.353-.945,3.325-7.21,4.318-7.138.713.072-1.122,5.944-.761,6.561,3.437,5.9,4.366,12.986,3.821,19.788A89.782,89.782,0,0,1,66.276,134.4" transform="translate(39.72 7.876)" fill="#263238"/>
    <path id="Path_459" data-name="Path 459" d="M81.634,188.381c-10.23-.216-17.625-16.992-17.625-16.992l-.665-57.449C62.8,97.4,71.98,83.3,88.531,83.218l1.53.08a29.586,29.586,0,0,1,28,28.744c.385,14.34.633,30.194.128,37.845-1.049,15.854-17.04,17.464-17.04,17.464s-.1,3.677-.144,8.34c-.1,10.471-15.221,13.05-19.347,12.69Z" transform="translate(41.987 3.158)" fill="#ffbe9d"/>
    <path id="Path_460" data-name="Path 460" d="M92.962,131.426a38.32,38.32,0,0,1-20.325-7.21s4.414,11.8,20.316,11.216Z" transform="translate(50.151 39.084)" fill="#eb996e"/>
    <path id="Path_461" data-name="Path 461" d="M90.3,106.836a2.259,2.259,0,0,1-2.307,2.171,2.163,2.163,0,0,1-2.219-2.171,2.259,2.259,0,0,1,2.3-2.171,2.171,2.171,0,0,1,2.227,2.171Z" transform="translate(61.663 21.951)" fill="#263238"/>
    <path id="Path_462" data-name="Path 462" d="M94.666,103.218c-.3.28-1.947-1.082-4.382-1.2s-4.286.993-4.534.681c-.128-.136.192-.657,1-1.178a6.168,6.168,0,0,1,3.653-.913,5.953,5.953,0,0,1,3.461,1.322C94.586,102.521,94.81,103.1,94.666,103.218Z" transform="translate(61.617 18.384)" fill="#263238"/>
    <path id="Path_463" data-name="Path 463" d="M78.692,106.529a2.267,2.267,0,0,1-2.307,2.163,2.171,2.171,0,0,1-2.227-2.163,2.275,2.275,0,0,1,2.307-2.171,2.179,2.179,0,0,1,2.227,2.171Z" transform="translate(51.483 21.682)" fill="#263238"/>
    <path id="Path_464" data-name="Path 464" d="M81.919,103.059c-.3.28-1.947-1.082-4.382-1.2s-4.294,1-4.542.689c-.12-.144.192-.657,1-1.186a6.265,6.265,0,0,1,3.653-.913,5.944,5.944,0,0,1,3.469,1.33C81.863,102.386,82.063,102.939,81.919,103.059Z" transform="translate(50.442 18.246)" fill="#263238"/>
    <path id="Path_465" data-name="Path 465" d="M81.894,121.561a16.691,16.691,0,0,1,4.006-.5c.633,0,1.226-.128,1.354-.545a3.2,3.2,0,0,0-.32-1.867l-1.6-4.807c-2.2-6.882-3.741-12.53-3.469-12.618s2.283,5.424,4.478,12.313c.529,1.7,1.033,3.309,1.506,4.863a3.581,3.581,0,0,1,.192,2.459,1.53,1.53,0,0,1-1.074.849,4.342,4.342,0,0,1-1.065.1C83.424,121.777,81.894,121.7,81.894,121.561Z" transform="translate(58.207 18.939)" fill="#263238"/>
    <path id="Path_466" data-name="Path 466" d="M78.224,112.76c.4,0,.264,2.644,2.4,4.639s4.991,1.859,4.991,2.235c0,.168-.657.481-1.843.449a6.6,6.6,0,0,1-4.182-1.714,5.784,5.784,0,0,1-1.867-3.885C77.7,113.377,78.048,112.736,78.224,112.76Z" transform="translate(54.61 29.045)" fill="#263238"/>
    <path id="Path_467" data-name="Path 467" d="M83.182,97.537c-.272.649-2.692.208-5.568.4s-5.231.8-5.608.232c-.152-.3.288-.9,1.25-1.49a9.726,9.726,0,0,1,8.492-.481C82.805,96.68,83.3,97.233,83.182,97.537Z" transform="translate(49.572 13.874)" fill="#263238"/>
    <path id="Path_468" data-name="Path 468" d="M94.052,98.935c-.465.529-2.107-.136-4.126-.264s-3.749.168-4.11-.433c-.16-.288.136-.8.913-1.314a5.976,5.976,0,0,1,6.633.561C94.052,98.093,94.252,98.678,94.052,98.935Z" transform="translate(61.662 14.511)" fill="#263238"/>
    <path id="Path_469" data-name="Path 469" d="M68.8,106.217c-.264-.128-10.727-3.805-10.959,7.058s10.711,8.852,10.743,8.54S68.8,106.217,68.8,106.217Z" transform="translate(37.177 22.698)" fill="#ffbe9d"/>
    <path id="Path_470" data-name="Path 470" d="M64.065,116.007c-.048-.04-.192.128-.521.264a1.875,1.875,0,0,1-1.41,0c-1.138-.449-2.067-2.291-2.075-4.246a6.217,6.217,0,0,1,.585-2.7,2.179,2.179,0,0,1,1.458-1.418.961.961,0,0,1,1.106.545c.136.3.064.521.12.537s.24-.176.16-.625a1.17,1.17,0,0,0-.417-.689,1.434,1.434,0,0,0-1.033-.3,2.684,2.684,0,0,0-2.019,1.6,6.409,6.409,0,0,0-.721,3.012c0,2.2,1.1,4.262,2.66,4.751a2.035,2.035,0,0,0,1.738-.248C64.041,116.263,64.1,116.023,64.065,116.007Z" transform="translate(38.462 24.317)" fill="#eb996e"/>
    <path id="Path_471" data-name="Path 471" d="M113.316,94.866c1.77-.945-3.437-6.713-7.731-8.724-6.489-3.044-16.439-5-22.48-3.365-7.274,1.955-13.339,5.488-17.064,12.017s-5.191,14.212-5.079,21.751a12.654,12.654,0,0,0,1.45,6.657c1.482,2.4,4.374,3.966,4.206,7.282a4.494,4.494,0,0,0,1.09,3.325c1.955,2.139,4.414.184,5.56-1.787,2.443-4.23,2.772-9.3,3.044-14.172.192-3.469.377-7-.553-10.343-.513-1.819-1.346-3.541-1.746-5.384a6.651,6.651,0,0,1,.8-5.408,6.721,6.721,0,0,1,.9-.881A11.3,11.3,0,0,1,86.975,93.84c6.089,2.235,16.5,5.608,19.227,3.565,3.958-2.94,4.927-4.871,4.927-4.871Z" transform="translate(39.915 2.253)" fill="#263238"/>
    <path id="Path_472" data-name="Path 472" d="M80.283,82.3c6-1.915,12.818-1.722,18.338,1.242,2.948,1.6,5.608,4.07,6.457,7.3s-.561,7.21-3.669,8.388l-.216.136c-4.655,1.5-7.659.8-12.257-.8-3.869-1.4-7.3-3.845-11.176-5.215A22.055,22.055,0,0,0,64.845,92.8,35.985,35.985,0,0,1,80.283,82.3Z" transform="translate(43.323 1.258)" fill="#263238"/>
    <path id="Path_473" data-name="Path 473" d="M62.067,89.945c.1.08.969-.953,2.732-2.179A15.334,15.334,0,0,1,68.092,86a10.11,10.11,0,0,1,4.422-.745,14.813,14.813,0,0,1,7.571,3.124c1.682,1.33,2.459,2.451,2.564,2.4s-.12-.328-.473-.8a11.639,11.639,0,0,0-1.762-1.931A14.012,14.012,0,0,0,72.57,84.6a10.239,10.239,0,0,0-4.727.841,14.6,14.6,0,0,0-3.349,1.971A7.684,7.684,0,0,0,62.067,89.945Z" transform="translate(40.885 4.354)" fill="#455a64"/>
    <path id="Path_474" data-name="Path 474" d="M79.7,81.19a30.019,30.019,0,0,0,2.876,1.082,23.529,23.529,0,0,1,11.144,9.213,30.6,30.6,0,0,0,1.6,2.62,8.709,8.709,0,0,0-1.178-2.884,20.557,20.557,0,0,0-11.408-9.4A8.324,8.324,0,0,0,79.7,81.19Z" transform="translate(56.343 1.381)" fill="#455a64"/>
    <path id="Path_475" data-name="Path 475" d="M54.568,104.549a9.471,9.471,0,0,0,1.146.385,8.508,8.508,0,0,0,3.2.208,13.122,13.122,0,0,0,4.59-1.49c1.642-.8,3.325-1.955,5.191-3.012a15.79,15.79,0,0,1,5.672-2.107,7.539,7.539,0,0,1,4.855.881,5.688,5.688,0,0,1,2.331,2.4,3.942,3.942,0,0,1,.312.849c.04.208.056.312.04.32a7.833,7.833,0,0,0-.5-1.1,5.752,5.752,0,0,0-2.331-2.2,7.346,7.346,0,0,0-4.655-.753,15.926,15.926,0,0,0-5.528,2.083c-1.843,1.049-3.541,2.179-5.215,3a13.122,13.122,0,0,1-4.735,1.442,7.963,7.963,0,0,1-3.317-.352,4.95,4.95,0,0,1-.8-.36C54.656,104.621,54.56,104.565,54.568,104.549Z" transform="translate(34.317 16.5)" fill="#455a64"/>
    <path id="Path_476" data-name="Path 476" d="M54.961,106.158a12.947,12.947,0,0,0,3.926.24,19.106,19.106,0,0,0,4.158-.969c1.53-.513,3.2-1.21,4.959-1.835a17.624,17.624,0,0,1,5.207-1.122,9.99,9.99,0,0,1,4.286.8,6.649,6.649,0,0,1,2.4,1.738,4.006,4.006,0,0,1,.457.657c.1.152.136.24.12.248s-.232-.3-.7-.8a6.977,6.977,0,0,0-2.4-1.6,9.894,9.894,0,0,0-4.15-.689,17.937,17.937,0,0,0-5.087,1.13c-1.762.617-3.413,1.306-4.975,1.811a18.346,18.346,0,0,1-4.254.9,10.261,10.261,0,0,1-2.924-.176,5.143,5.143,0,0,1-.8-.224C55.041,106.214,54.953,106.174,54.961,106.158Z" transform="translate(34.661 20.026)" fill="#455a64"/>
    <path id="Path_477" data-name="Path 477" d="M98.353,98.2a2.051,2.051,0,0,1-.385,1,5.888,5.888,0,0,1-1.811,1.875,5.977,5.977,0,0,1-2.443.913,2.011,2.011,0,0,1-1.073-.056,10.167,10.167,0,0,0,3.285-1.21A10.415,10.415,0,0,0,98.353,98.2Z" transform="translate(67.68 16.291)" fill="#455a64"/>
    <path id="Path_478" data-name="Path 478" d="M101.274,101.078a3.629,3.629,0,0,1-.561,1.49,8.147,8.147,0,0,1-2.668,2.788,8.011,8.011,0,0,1-3.653,1.25,3.661,3.661,0,0,1-1.6-.112c0-.072.609,0,1.554-.176A9.2,9.2,0,0,0,97.806,105a9,9,0,0,0,2.636-2.588C100.986,101.623,101.2,101.054,101.274,101.078Z" transform="translate(67.811 18.808)" fill="#455a64"/>
    <path id="Path_479" data-name="Path 479" d="M143.548,166.162,158.2,195.579a21.487,21.487,0,0,1,2.227,10.6h0a21.446,21.446,0,0,1-21.414,20.4l-42.019-2.4L95.16,205l31.973-7.723L114.74,173.861Z" transform="translate(69.887 75.84)" fill="#ffbe9d"/>
    <path id="Path_480" data-name="Path 480" d="M112.2,183.035c0,.128,1.45-.112,3.773-.1a29.3,29.3,0,0,1,8.86,1.562,27.111,27.111,0,0,1,7.939,4.214c1.819,1.434,2.668,2.62,2.772,2.54s-.144-.344-.529-.889a14.6,14.6,0,0,0-1.915-2.043,23.93,23.93,0,0,0-8.011-4.5,25.523,25.523,0,0,0-9.1-1.394,16.923,16.923,0,0,0-2.78.328A2.859,2.859,0,0,0,112.2,183.035Z" transform="translate(84.819 90.082)" fill="#eb996e"/>
    <path id="Path_481" data-name="Path 481" d="M33.935,163.468s-7.9,22.055-17.793,46.585a10.238,10.238,0,0,0-.473,1.53c-1.5,6.633,3.557,17.8,10.351,17.8l56.88-.561v-18.6l-32.806-7.21,12.658-28.039Z" transform="translate(0 73.479)" fill="#ffbe9d"/>
    <path id="Path_482" data-name="Path 482" d="M20.3,190.31c.08.1,1.2-.8,3.2-1.931a29.81,29.81,0,0,1,17.1-3.869c2.275.176,3.669.489,3.7.368a2.94,2.94,0,0,0-.953-.353,18.422,18.422,0,0,0-2.7-.529,26.317,26.317,0,0,0-17.416,3.941,18.337,18.337,0,0,0-2.211,1.642C20.524,190.013,20.268,190.27,20.3,190.31Z" transform="translate(4.287 91.292)" fill="#eb996e"/>
    <path id="Path_483" data-name="Path 483" d="M122.824,189.1H114.6s-18.57-6.705-22.383-6.065c-3.437.577-16.022,8.941-18.49,10.591a1.554,1.554,0,0,0-.593.761h0a2.7,2.7,0,0,0,1.5,3.429l.264.112-.112.377a4.4,4.4,0,0,0-.192,1.5,1.819,1.819,0,0,0,3.373.8l-.473.841a2,2,0,0,0-.264,1.13l.04.761A2.067,2.067,0,0,0,78.7,205.19h0a2.051,2.051,0,0,0,2.155-.569c1.6-1.754,5.047-5.271,7.378-5.656a53.819,53.819,0,0,1,7.619-.385,2.58,2.58,0,0,1,2.4,1.65h0c-1.386.1-11.031,5.127-14.42,6.93a3.645,3.645,0,0,0-1.979,2.748c-.128,1.066.409,2.187,2.524,1.69,4.534-1.057,12.7-4.807,12.7-4.807s4.206-1.21,6.938.721c3.837,2.7,5.608,3.693,8.884,2.6a27.882,27.882,0,0,0,5.728-2.66l6.489-.649S131.22,191.459,122.824,189.1Z" transform="translate(50.443 90.591)" fill="#ffbe9d"/>
    <path id="Path_484" data-name="Path 484" d="M96.08,188.291c0,.072-1.322-.345-3.493-.481a17.969,17.969,0,0,0-15,6.409c-1.4,1.666-2,2.892-2.067,2.852a4.679,4.679,0,0,1,.417-.857,15.223,15.223,0,0,1,1.458-2.147,17.432,17.432,0,0,1,15.221-6.5,15.735,15.735,0,0,1,2.564.441,4.634,4.634,0,0,1,.9.28Z" transform="translate(52.68 94.536)" fill="#eb996e"/>
    <path id="Path_485" data-name="Path 485" d="M95.445,185.932a14.845,14.845,0,0,0-3.629-.633,15.878,15.878,0,0,0-8.444,2.4,33.832,33.832,0,0,0-6.8,5.76L74.7,195.442a6.408,6.408,0,0,1-.705.705,4.657,4.657,0,0,1,.609-.8c.409-.5,1.009-1.21,1.786-2.059a30.8,30.8,0,0,1,6.8-5.888,15.422,15.422,0,0,1,8.636-2.339,10.619,10.619,0,0,1,2.692.489,7.14,7.14,0,0,1,.7.272C95.381,185.876,95.453,185.916,95.445,185.932Z" transform="translate(51.344 92.393)" fill="#eb996e"/>
    <path id="Path_486" data-name="Path 486" d="M47.032,189.419h8.22s18.562-6.705,22.383-6.073c3.437.585,16.022,8.941,18.49,10.6a1.554,1.554,0,0,1,.593.8h0a2.7,2.7,0,0,1-1.5,3.429l-.264.1.112.377a4.431,4.431,0,0,1,.192,1.5,1.819,1.819,0,0,1-3.373.8l.473.841a2.067,2.067,0,0,1,.264,1.13l-.04.8a2.067,2.067,0,0,1-1.426,1.851h0A2.051,2.051,0,0,1,89,205.009c-1.6-1.754-5.047-5.271-7.378-5.664a55.042,55.042,0,0,0-7.619-.385,2.588,2.588,0,0,0-2.4,1.65h0c1.386.1,11.031,5.127,14.42,6.93A3.661,3.661,0,0,1,88,210.288c.128,1.065-.409,2.187-2.524,1.7-4.534-1.065-12.7-4.807-12.7-4.807s-4.206-1.2-6.938.721c-3.837,2.708-5.608,3.7-8.884,2.6a27.882,27.882,0,0,1-5.728-2.66L44.74,207.2S38.636,191.766,47.032,189.419Z" transform="translate(23.828 90.861)" fill="#ffbe9d"/>
    <path id="Path_487" data-name="Path 487" d="M58.022,188.6c0,.072,1.322-.344,3.485-.481a17.969,17.969,0,0,1,15.005,6.409c1.4,1.658,2,2.884,2.067,2.852a4.677,4.677,0,0,0-.417-.857,15.22,15.22,0,0,0-1.458-2.155,17.456,17.456,0,0,0-15.221-6.489,15.038,15.038,0,0,0-2.564.433,4.044,4.044,0,0,0-.9.288Z" transform="translate(37.344 94.809)" fill="#eb996e"/>
    <path id="Path_488" data-name="Path 488" d="M59.072,186.243a15.332,15.332,0,0,1,3.629-.633,15.83,15.83,0,0,1,8.444,2.4,34.089,34.089,0,0,1,6.8,5.752l1.859,1.979a5.911,5.911,0,0,0,.713.705,5.079,5.079,0,0,0-.609-.8c-.409-.5-1.009-1.2-1.786-2.059a31.411,31.411,0,0,0-6.8-5.888,15.485,15.485,0,0,0-8.636-2.339,10.224,10.224,0,0,0-2.692.5c-.312.088-.537.208-.7.264S59.064,186.235,59.072,186.243Z" transform="translate(38.264 92.659)" fill="#eb996e"/>
    <path id="Path_489" data-name="Path 489" d="M54.133,230.688H140.51a4.575,4.575,0,0,0,4.574-4.382l2.6-59.427a4.582,4.582,0,0,0-4.582-4.807H51.769a4.582,4.582,0,0,0-4.582,4.767l2.4,59.427a4.574,4.574,0,0,0,4.542,4.422Z" transform="translate(27.846 72.256)" fill="#e0e0e0"/>
    <path id="Path_490" data-name="Path 490" d="M54.233,230.765h-.208a3.854,3.854,0,0,1-.633-.064,4.526,4.526,0,0,1-2.211-1.049,4.711,4.711,0,0,1-1.6-3.589c-.072-1.6-.152-3.413-.24-5.464-.352-8.236-.857-20.14-1.482-34.841q-.24-5.52-.489-11.544c-.08-2.011-.168-4.054-.256-6.145,0-.521-.056-1.033-.04-1.6A4.765,4.765,0,0,1,51.293,162c.577-.048,1.114,0,1.666,0h89.8a5.448,5.448,0,0,1,2.131.328,4.807,4.807,0,0,1,2.86,3.092,5.608,5.608,0,0,1,.176,2.123l-.088,2.067c-.064,1.378-.12,2.748-.184,4.118q-.361,8.2-.7,16.143c-.465,10.583-.913,20.789-1.346,30.515-.048,1.218-.1,2.4-.16,3.621,0,.6-.048,1.2-.08,1.794a6.409,6.409,0,0,1-.232,1.811,4.807,4.807,0,0,1-2.267,2.78,4.67,4.67,0,0,1-1.722.553,16.021,16.021,0,0,1-1.754,0H101.892l-34.873-.064-9.477-.04h9.477l34.873-.072h37.493c.577,0,1.17,0,1.714-.04a4.294,4.294,0,0,0,1.6-.513,4.4,4.4,0,0,0,2.083-2.564,5.993,5.993,0,0,0,.216-1.714c0-.593.056-1.194.08-1.795.048-1.2.1-2.4.152-3.621.425-9.726.865-19.94,1.322-30.523q.345-7.931.7-16.143c.064-1.362.12-2.732.184-4.11l.088-2.067a5.183,5.183,0,0,0-.16-1.995,4.4,4.4,0,0,0-2.612-2.82,4.95,4.95,0,0,0-1.979-.3H51.357a4.414,4.414,0,0,0-3.573,2.652,4.463,4.463,0,0,0-.353,1.474v1.562c.08,2.083.16,4.134.24,6.137q.24,6.016.457,11.544c.577,14.709,1.033,26.613,1.354,34.849.08,2.059.144,3.885.208,5.464a4.574,4.574,0,0,0,3.693,4.607A3.254,3.254,0,0,1,54.233,230.765Z" transform="translate(27.745 72.178)" fill="#263238"/>
    <path id="Path_491" data-name="Path 491" d="M71.425,183.134a4.727,4.727,0,1,0,1.382-3.347,4.727,4.727,0,0,0-1.382,3.347Z" transform="translate(49.088 86.563)" fill="#fff"/>
    <path id="Path_492" data-name="Path 492" d="M105.5,152.362a2.156,2.156,0,0,1,0,.5v1.426c0,1.234,0,3.02-.088,5.231-.112,4.414-.344,10.519-.721,17.248s-.8,12.818-1.162,17.232c-.184,2.163-.336,3.926-.441,5.215-.064.577-.112,1.041-.152,1.41a1.779,1.779,0,0,1-.08.5,2.629,2.629,0,0,1,0-.5,12.35,12.35,0,0,1,.064-1.426c.08-1.282.184-3.052.32-5.223.264-4.454.633-10.527,1.033-17.232s.657-12.818.841-17.232c.088-2.171.168-3.942.224-5.231l.072-1.418a2.193,2.193,0,0,1,.088-.5Z" transform="translate(76.624 63.748)" fill="#263238"/>
  </g>
</svg>
