<svg xmlns="http://www.w3.org/2000/svg" viewBox="0 0 500 500"><g id="freepik--background-complete--inject-64"><path d="M79.91,316.86l-13.75.27-7,.12c-2.33,0-4.67,0-7,.05h-.44v-.44l-.06-11.72v-.51h.5l13.87.06c4.62,0,9.24.11,13.86.16h.28v.27c0,2-.09,4-.13,5.91Zm0,0-.14-5.92c0-1.95-.11-3.88-.13-5.8l.27.27c-4.62,0-9.24.16-13.86.16l-13.87.07.5-.5,0,11.72-.45-.45c2.29,0,4.57,0,6.86,0l6.89.12Z" style="fill:#ebebeb"></path><path d="M64.44,331.63l-13.75.28-7,.11c-2.33.05-4.67,0-7,.06h-.44v-.45l0-11.72v-.5h.5l13.87.07c4.62,0,9.24.11,13.86.16h.28v.27c0,2-.09,4-.13,5.92Zm0,0-.14-5.92c0-1.95-.11-3.88-.13-5.8l.27.28c-4.62.05-9.24.16-13.86.16l-13.87.06.5-.5-.05,11.72-.45-.44c2.29,0,4.57,0,6.86.05l6.89.11Z" style="fill:#ebebeb"></path><path d="M259.17,170.78l-13.75.28-7,.11c-2.33.05-4.67,0-7,.06H231v-.45l-.06-11.72v-.5h.5l13.87.06c4.62,0,9.24.12,13.86.17h.28v.27c0,2-.09,4-.13,5.92Zm0,0-.14-5.92c0-2-.11-3.88-.13-5.8l.27.27c-4.62.06-9.24.16-13.86.17l-13.87.06.5-.5-.05,11.72-.45-.45c2.29,0,4.57,0,6.86.06l6.89.11Z" style="fill:#ebebeb"></path><path d="M243.45,185.56l-13.75.28-7,.11c-2.33,0-4.67,0-7,.05h-.44v-.45l-.05-11.72v-.5h.5l13.87.06c4.62,0,9.25.11,13.87.16h.27v.27c0,2-.09,4-.13,5.92Zm0,0-.14-5.92c-.05-1.95-.12-3.88-.14-5.8l.28.27c-4.62,0-9.25.16-13.87.16l-13.87.07.5-.5-.05,11.72-.45-.45c2.29,0,4.57,0,6.86.06l6.9.11Z" style="fill:#ebebeb"></path><path d="M463.29,331.63l-13.75.28-7,.11c-2.33.05-4.67,0-7,.06h-.45v-.45l-.05-11.72v-.5h.51l13.86.07c4.63,0,9.25.11,13.87.16h.27v.27c0,2-.08,4-.13,5.92Zm0,0-.14-5.92c0-1.95-.11-3.88-.13-5.8l.27.28c-4.62.05-9.24.16-13.87.16l-13.86.06.5-.5L436,331.63l-.44-.44c2.28,0,4.56,0,6.86.05l6.89.11Z" style="fill:#ebebeb"></path><path d="M447.82,54.38l-13.75.28-7,.11c-2.33,0-4.67,0-7,0h-.45v-.45l-.05-11.72v-.5h.51l13.86.06c4.62,0,9.25.12,13.87.17h.27v.27c0,2-.08,4-.13,5.92Zm0,0-.14-5.92c-.05-2-.11-3.88-.13-5.8l.27.27c-4.62,0-9.25.16-13.87.17l-13.86.06.5-.5-.06,11.72-.44-.45c2.28,0,4.56,0,6.86.06l6.89.11Z" style="fill:#ebebeb"></path><path d="M463.29,69.16l-13.75.27-7,.12c-2.33,0-4.67,0-7,0h-.45v-.44l-.05-11.72v-.5h.51l13.86.06c4.63,0,9.25.11,13.87.16h.27v.27c0,2-.08,4-.13,5.92Zm0,0-.14-5.92c0-2-.11-3.88-.13-5.8l.27.27c-4.62,0-9.24.16-13.87.16l-13.86.07.5-.5L436,69.16l-.44-.45c2.28,0,4.56,0,6.86.06l6.89.11Z" style="fill:#ebebeb"></path><path d="M64.44,54.38l-13.75.28-7,.11c-2.33,0-4.67,0-7,0h-.44v-.45l0-11.72v-.5h.5l13.87.06c4.62,0,9.24.12,13.86.17h.28v.27c0,2-.09,4-.13,5.92Zm0,0-.14-5.92c0-2-.11-3.88-.13-5.8l.27.27c-4.62,0-9.24.16-13.86.17l-13.87.06.5-.5-.05,11.72-.45-.45c2.29,0,4.57,0,6.86.06l6.89.11Z" style="fill:#ebebeb"></path><path d="M227.72,170.78l-13.75.28-7,.11c-2.33.05-4.67,0-7,.06h-.45v-.45l0-11.72v-.5h.5l13.86.06c4.63,0,9.25.12,13.87.17H228v.27c0,2-.08,4-.13,5.92Zm0,0-.14-5.92c-.05-2-.11-3.88-.13-5.8l.27.27c-4.62.06-9.24.16-13.87.17l-13.86.06.5-.5-.06,11.72-.44-.45c2.28,0,4.56,0,6.86.06l6.89.11Z" style="fill:#ebebeb"></path><rect x="67.16" y="163.28" width="47.74" height="47.74" transform="translate(278.17 96.12) rotate(90)" style="fill:#dbdbdb"></rect><rect x="74.56" y="170.68" width="32.93" height="32.93" transform="translate(278.17 96.12) rotate(90)" style="fill:#fff"></rect><polygon points="107.49 170.68 74.56 170.68 74.56 203.61 107.49 170.68" style="fill:#ebebeb"></polygon><rect x="62.49" y="163.28" width="4.67" height="47.74" transform="translate(129.64 374.29) rotate(180)" style="fill:#c7c7c7"></rect><rect x="126.25" y="163.28" width="47.74" height="47.74" transform="translate(337.26 37.03) rotate(90)" style="fill:#dbdbdb"></rect><rect x="133.65" y="170.68" width="32.93" height="32.93" transform="translate(337.26 37.03) rotate(90)" style="fill:#fff"></rect><polygon points="156.91 170.68 133.65 170.68 133.65 193.94 156.91 170.68" style="fill:#ebebeb"></polygon><rect x="121.58" y="163.28" width="4.67" height="47.74" transform="translate(247.83 374.29) rotate(180)" style="fill:#c7c7c7"></rect><rect x="89.38" y="200.22" width="62.39" height="106.83" transform="translate(374.21 133.06) rotate(90)" style="fill:#dbdbdb"></rect><rect x="97.09" y="208.02" width="46.96" height="91.23" transform="translate(374.21 133.06) rotate(90)" style="fill:#fff"></rect><polygon points="134.76 230.16 74.95 230.16 74.95 260.94 134.76 230.16" style="fill:#ebebeb"></polygon><rect x="62.49" y="222.44" width="4.67" height="62.39" transform="translate(129.64 507.27) rotate(180)" style="fill:#c7c7c7"></rect><rect x="67.16" y="45.32" width="106.83" height="106.83" transform="translate(219.3 -21.84) rotate(90)" style="fill:#dbdbdb"></rect><rect x="74.95" y="53.11" width="91.24" height="91.23" style="fill:#fff"></rect><path d="M75,118.8C88.82,105,128.12,65.9,140.74,53.11H75Z" style="fill:#ebebeb"></path><rect x="62.49" y="45.31" width="4.67" height="106.83" transform="translate(129.64 197.46) rotate(180)" style="fill:#c7c7c7"></rect></g><g id="freepik--Shadow--inject-64"><ellipse cx="250" cy="433.77" rx="202.33" ry="21.95" style="fill:#ebebeb"></ellipse></g><g id="freepik--Device--inject-64"><path d="M433.35,45.31H274.6a16.21,16.21,0,0,0-16.06,16.36V388.49a16.22,16.22,0,0,0,16.06,16.36H433.35a16.23,16.23,0,0,0,16.08-16.36V61.67A16.22,16.22,0,0,0,433.35,45.31Zm6,333.08C439.39,387,433,394,425,394H283c-8,0-14.4-7-14.4-15.56V74.06c0-17.52,6.44-18.38,14.4-18.38h28.45c1.65,0,3,1.88,3,4.21v1c0,5.46,3,5.48,6.66,5.48h65.8c3.7,0,6.65,0,6.65-5.48v-1c0-2.33,1.34-4.21,3-4.21H425c7.95,0,14.39,2.33,14.39,18.38Z" style="fill:#263238"></path><path d="M363,59.55H345a1.1,1.1,0,0,1-1.11-1.1h0A1.1,1.1,0,0,1,345,57.34H363a1.1,1.1,0,0,1,1.11,1.11h0A1.1,1.1,0,0,1,363,59.55Z" style="fill:#fff"></path><path d="M439.39,74.06V378.39C439.39,387,433,394,425,394H283c-8,0-14.41-7-14.41-15.56V74.06c0-17.52,6.44-18.38,14.41-18.38h28.44c1.65,0,3,1.88,3,4.21v1c0,5.46,3,5.48,6.66,5.48h65.79c3.7,0,6.66,0,6.66-5.48v-1c0-2.33,1.33-4.21,3-4.21H425C433,55.68,439.39,58,439.39,74.06Z" style="fill:#fff"></path><g style="opacity:0.2"><path d="M436.78,381.1a37.41,37.41,0,0,1-2.31,9A13.74,13.74,0,0,1,425,394H282.85c-8,0-14.42-7-14.42-15.57v-82a55.4,55.4,0,0,1,20.21-13.16c17.05-6.37,35.51-3.78,45.65,5.14,15,13.2,37.68,48.83,50.56,49.54.88.05,1.9.11,3,.21,9.33.75,26.6,3.32,38,12.84C433.59,357.32,438.62,366.86,436.78,381.1Z" style="fill:#FF725E;opacity:0.4"></path><path d="M425,394.45H282.85c-8.23,0-14.92-7.21-14.92-16.07V301.52l.11-.14a105.8,105.8,0,0,1,8.77-9.8,55.38,55.38,0,0,1,11.58-8.81c21.55-12.29,46.78-7.71,57.8,3.59,5.08,5.21,10.85,13.31,16.95,21.89,8.67,12.18,17.64,24.78,25,29.43a11.26,11.26,0,0,0,4.37,1.77c9.43,1.23,22.92,4.16,33.65,11.07,6.46,4.15,11.06,9.26,13.66,15.19l0,.2v12.47a16.62,16.62,0,0,1-5.08,12.09A14.31,14.31,0,0,1,425,394.45ZM268.93,301.86v76.52c0,8.31,6.24,15.07,13.92,15.07H425a13.28,13.28,0,0,0,9.12-3.71,15.63,15.63,0,0,0,4.77-11.36V366c-2.53-5.71-7-10.64-13.24-14.66-10.57-6.81-23.91-9.7-33.24-10.92a12.32,12.32,0,0,1-4.78-1.92c-7.55-4.75-16.57-17.43-25.3-29.69-6.08-8.55-11.83-16.62-16.86-21.78-10.75-11-35.45-15.46-56.58-3.41a54.3,54.3,0,0,0-11.38,8.65A105.45,105.45,0,0,0,268.93,301.86Z" style="fill:#263238"></path><path d="M323.91,85.32c4.34,7,2,15.37-2.56,17.94s-12.46,7.69-13.63,10.85-8.58,11.13-17.91,6.54-8.29-20.67-4.17-30.51C291.08,77.16,312,66,323.91,85.32Z" style="fill:#FF725E;opacity:0.4"></path><path d="M294.42,123.49a13.11,13.11,0,0,1-6.68-1.88c-9.51-5.58-6.84-22-2-31.28,4-7.84,13.48-13.76,22-13.78h0c5.2,0,12.44,2.06,17.55,11.88h0a15.32,15.32,0,0,1,1,11.93,10.65,10.65,0,0,1-5.18,6.38c-6,2.82-12.85,6.75-14,9.3-.9,1.94-4.3,5.45-8.75,6.84A13.16,13.16,0,0,1,294.42,123.49Zm13.29-45.94h0c-8.14,0-17.2,5.71-21.08,13.23-4.81,9.34-6.91,24.94,1.65,30a11.67,11.67,0,0,0,9.78,1.18c4.16-1.3,7.32-4.53,8.14-6.3,1.59-3.42,10.68-8,14.52-9.78a9.66,9.66,0,0,0,4.65-5.8,14.35,14.35,0,0,0-.95-11.15h0C319.49,79.52,312.63,77.55,307.71,77.55Z" style="fill:#263238"></path><path d="M389.1,133.71C370.35,137.2,362,152.14,368,160.16s26.9,7.87,30.75,19.43S417,208.35,432,196.74,429.23,126.25,389.1,133.71Z" style="fill:#dbdbdb"></path><path d="M415.57,205.48a15.42,15.42,0,0,1-6.28-1.36c-8.33-3.64-14.47-14.18-16.24-22.7-1.36-6.55-8.52-10.15-15.44-13.62-5.41-2.72-10.52-5.28-12.76-9.15-1.9-3.28-1.77-7.44.34-11.41,3.08-5.77,11-12.25,24.13-13.12l0,.5,0-.5c27.56-1.82,37.8,23.9,40.28,31.83,5,16,2.9,32.11-4.78,36.73A18,18,0,0,1,415.57,205.48Zm-26.18-70.36c-12.69.84-20.36,7.06-23.31,12.59-2,3.71-2.11,7.42-.36,10.44,2.09,3.61,7.07,6.11,12.34,8.75,7.14,3.59,14.52,7.29,16,14.31,1.72,8.28,7.65,18.49,15.66,22,4.72,2.06,9.64,1.6,14.62-1.39,7.3-4.39,9.21-20,4.33-35.57-2.42-7.75-12.41-32.91-39.25-31.13Z" style="fill:#263238"></path></g><g id="freepik--u5Zjqx--inject-64"><path d="M306.51,62.52l-.27.27-.16.16a3.68,3.68,0,0,0-2.64-1.1,3.72,3.72,0,0,0-2.66,1.1l-.15-.15-.27-.28h0l0,0,.34-.3a4.3,4.3,0,0,1,.81-.52,4,4,0,0,1,1.06-.35,5.15,5.15,0,0,1,.53-.07h.47c.12,0,.24,0,.36,0a3.68,3.68,0,0,1,1,.23,4,4,0,0,1,.66.31,3.54,3.54,0,0,1,.63.44l.29.26Z" style="fill:#c7c7c7"></path><path d="M301.65,63.81l-.43-.43a3.13,3.13,0,0,1,4.43,0l-.44.44a2.46,2.46,0,0,0-1.78-.74A2.5,2.5,0,0,0,301.65,63.81Z" style="fill:#c7c7c7"></path><path d="M304.78,64.24l-.44.44a1.24,1.24,0,0,0-.91-.38,1.25,1.25,0,0,0-.91.38c-.14-.15-.29-.29-.43-.43A1.9,1.9,0,0,1,304.78,64.24Z" style="fill:#c7c7c7"></path><path d="M303.82,65.07a.39.39,0,0,1-.39.39.4.4,0,0,1-.39-.39.39.39,0,0,1,.39-.39A.38.38,0,0,1,303.82,65.07Z" style="fill:#c7c7c7"></path></g><path d="M279.71,63.35a1.13,1.13,0,1,1,1.13,1.13A1.12,1.12,0,0,1,279.71,63.35Z" style="fill:#c7c7c7"></path><path d="M283.27,63.35a1.14,1.14,0,1,1,1.14,1.13A1.13,1.13,0,0,1,283.27,63.35Z" style="fill:#c7c7c7"></path><path d="M286.84,63.35A1.13,1.13,0,1,1,288,64.48,1.13,1.13,0,0,1,286.84,63.35Z" style="fill:#c7c7c7"></path><path d="M290.41,63.35a1.13,1.13,0,1,1,2.26,0,1.13,1.13,0,1,1-2.26,0Z" style="fill:#c7c7c7"></path><path d="M294,63.35a1.14,1.14,0,1,1,1.13,1.13A1.13,1.13,0,0,1,294,63.35Z" style="fill:#c7c7c7"></path><path d="M426.47,65.71h-9v-4h9Zm-8.75-.25h8.5V61.91h-8.5Z" style="fill:#c7c7c7"></path><rect x="418.13" y="62.28" width="5.94" height="2.82" style="fill:#c7c7c7"></rect><rect x="426.58" y="62.54" width="0.82" height="2.28" style="fill:#c7c7c7"></rect><path d="M342.67,358.54a2.53,2.53,0,1,1-2.53-2.54A2.53,2.53,0,0,1,342.67,358.54Z" style="fill:#dbdbdb"></path><path d="M358.09,358.54a3.83,3.83,0,1,1-3.83-3.83A3.84,3.84,0,0,1,358.09,358.54Z" style="fill:#FF725E"></path><path d="M370.9,358.54a2.53,2.53,0,1,1-2.53-2.54A2.53,2.53,0,0,1,370.9,358.54Z" style="fill:#dbdbdb"></path><path d="M334.12,187.54v-7.48a.69.69,0,0,1,.69-.7.7.7,0,0,1,.71.7v6.77H339a.7.7,0,1,1,0,1.4h-4.15A.69.69,0,0,1,334.12,187.54Z" style="fill:#FF725E"></path><path d="M347.75,180.46a4.67,4.67,0,0,1,0,6.42,4.16,4.16,0,0,1-3,1.35,4.3,4.3,0,0,1-3.11-1.35,4.75,4.75,0,0,1,0-6.42,4.24,4.24,0,0,1,3.11-1.36A4.09,4.09,0,0,1,347.75,180.46Zm-.16,3.21a3.3,3.3,0,0,0-.87-2.22,2.73,2.73,0,0,0-4.05,0,3.21,3.21,0,0,0-.87,2.22,3.12,3.12,0,0,0,.87,2.2,2.69,2.69,0,0,0,4.05,0A3.21,3.21,0,0,0,347.59,183.67Z" style="fill:#FF725E"></path><path d="M351.14,183.68a4.63,4.63,0,0,1,4.68-4.58,4.68,4.68,0,0,1,2.89,1,.72.72,0,1,1-.88,1.14,3.38,3.38,0,0,0-2-.68,3.12,3.12,0,0,0-2.28.93,3,3,0,0,0,0,4.38,3.12,3.12,0,0,0,2.28.93,3.51,3.51,0,0,0,1.74-.48v-1.74h-1.81a.73.73,0,0,1-.73-.72.71.71,0,0,1,.73-.71h2.52a.71.71,0,0,1,.74.71v2.8a1.12,1.12,0,0,1,0,.21.21.21,0,0,0,0,.07h0a.63.63,0,0,1-.24.31,4.68,4.68,0,0,1-2.88,1A4.61,4.61,0,0,1,351.14,183.68Z" style="fill:#FF725E"></path><path d="M362,180.06a.69.69,0,0,1,.7-.7.7.7,0,0,1,.71.7v7.48a.7.7,0,0,1-.71.69.69.69,0,0,1-.7-.69Z" style="fill:#FF725E"></path><path d="M367.13,187.54a.7.7,0,0,1-.69.69.69.69,0,0,1-.69-.69v-7.37h0a.67.67,0,0,1,.27-.59.71.71,0,0,1,1,.16l4.09,5.66v-5.22a.7.7,0,0,1,.69-.69.71.71,0,0,1,.7.69v7.37a.7.7,0,0,1-.7.69.69.69,0,0,1-.52-.25l-.07-.08-4.05-5.63Z" style="fill:#FF725E"></path><path d="M288.37,214.81v-4.14a.38.38,0,0,1,.38-.38H291a.39.39,0,0,1,.39.38.4.4,0,0,1-.39.4h-1.89v1.28h1.63a.39.39,0,0,1,.38.38.39.39,0,0,1-.38.4h-1.63v1.29H291a.39.39,0,1,1,0,.77h-2.29A.38.38,0,0,1,288.37,214.81Z" style="fill:#263238"></path><path d="M295.37,213.14v1.68a.36.36,0,0,1-.37.37.38.38,0,0,1-.38-.37v-1.68a.71.71,0,0,0-.72-.7.72.72,0,0,0-.71.72v1.73l0,0v0a.41.41,0,0,1-.35.22h-.07a.4.4,0,0,1-.31-.37v-1.66h0v-1.08a.37.37,0,0,1,.38-.38.35.35,0,0,1,.33.21,1.54,1.54,0,0,1,.75-.21,1.5,1.5,0,0,0,2.2,0,1.46,1.46,0,0,1,1.46,1.47v1.66a.37.37,0,0,1-.37.37.38.38,0,0,1-.38-.37v-1.66a.71.71,0,0,0-.71-.72A.73.73,0,0,0,295.37,213.14Z" style="fill:#263238"></path><path d="M302.07,213.45v1.37a.37.37,0,0,1-.37.37.37.37,0,0,1-.36-.3,1.63,1.63,0,0,1-2.13-.21,1.83,1.83,0,0,1,0-2.47,1.6,1.6,0,0,1,2.13-.21.37.37,0,0,1,.36-.31.38.38,0,0,1,.37.38Zm-.74,0a1,1,0,0,0-.27-.72.88.88,0,0,0-.66-.29.84.84,0,0,0-.65.29,1,1,0,0,0-.26.72,1,1,0,0,0,.26.72.86.86,0,0,0,.65.27.9.9,0,0,0,.66-.27A1.08,1.08,0,0,0,301.33,213.45Z" style="fill:#263238"></path><path d="M304.21,210.81a.38.38,0,0,1-.38.39.39.39,0,0,1-.38-.39v-.14a.38.38,0,0,1,.38-.38.37.37,0,0,1,.38.38Zm0,1.27v2.73a.37.37,0,0,1-.38.38.37.37,0,0,1-.38-.38v-2.73a.37.37,0,0,1,.38-.38A.37.37,0,0,1,304.21,212.08Z" style="fill:#263238"></path><path d="M305.7,210.29a.38.38,0,0,1,.39.38v4.14a.38.38,0,0,1-.39.38.39.39,0,0,1-.39-.38v-4.14A.39.39,0,0,1,305.7,210.29Z" style="fill:#263238"></path><path d="M290,241.65h-.86v1.52a.4.4,0,0,1-.4.39.39.39,0,0,1-.38-.39V239a.38.38,0,0,1,.38-.39H290a1.5,1.5,0,1,1,0,3Zm-.86-.78H290a.72.72,0,1,0,0-1.44h-.86Z" style="fill:#263238"></path><path d="M295.34,241.81v1.38a.38.38,0,0,1-.37.37.41.41,0,0,1-.37-.3,1.62,1.62,0,0,1-2.12-.21,1.83,1.83,0,0,1-.48-1.24,1.77,1.77,0,0,1,.48-1.23,1.62,1.62,0,0,1,1.19-.53,1.57,1.57,0,0,1,.93.31.4.4,0,0,1,.37-.31.38.38,0,0,1,.37.38Zm-.74,0a1,1,0,0,0-.28-.72.86.86,0,0,0-.65-.29.84.84,0,0,0-.65.29,1.09,1.09,0,0,0,0,1.44.87.87,0,0,0,.65.28.88.88,0,0,0,.65-.28A1,1,0,0,0,294.6,241.81Z" style="fill:#263238"></path><path d="M296.54,242.56a.37.37,0,0,1,.53-.06,1.36,1.36,0,0,0,.77.31,1,1,0,0,0,.48-.14.29.29,0,0,0,.12-.21.08.08,0,0,0,0-.07.18.18,0,0,0-.09-.08,1.67,1.67,0,0,0-.56-.2h0a2.89,2.89,0,0,1-.61-.18,1.18,1.18,0,0,1-.48-.41.81.81,0,0,1-.12-.44,1,1,0,0,1,.41-.77,1.51,1.51,0,0,1,.87-.26,1.78,1.78,0,0,1,1.05.39.4.4,0,0,1,.11.52.37.37,0,0,1-.52.09,1.23,1.23,0,0,0-.64-.25.76.76,0,0,0-.43.12.21.21,0,0,0-.11.16s0,0,0,.06,0,0,.07.07a1.48,1.48,0,0,0,.52.17h0a2.75,2.75,0,0,1,.65.21,1,1,0,0,1,.5.41.94.94,0,0,1,.13.46,1,1,0,0,1-.44.82,1.63,1.63,0,0,1-.91.28,2,2,0,0,1-1.25-.49A.37.37,0,0,1,296.54,242.56Z" style="fill:#263238"></path><path d="M299.92,242.56a.36.36,0,0,1,.52-.06,1.39,1.39,0,0,0,.78.31.9.9,0,0,0,.47-.14.28.28,0,0,0,.13-.21.14.14,0,0,0,0-.07.24.24,0,0,0-.09-.08,1.67,1.67,0,0,0-.56-.2h0a2.72,2.72,0,0,1-.61-.18,1.12,1.12,0,0,1-.48-.41.81.81,0,0,1-.12-.44,1,1,0,0,1,.41-.77,1.48,1.48,0,0,1,.86-.26,1.76,1.76,0,0,1,1.05.39.39.39,0,0,1,.12.52.37.37,0,0,1-.52.09,1.26,1.26,0,0,0-.65-.25.72.72,0,0,0-.42.12.21.21,0,0,0-.11.16.11.11,0,0,0,0,.06.31.31,0,0,0,.08.07,1.41,1.41,0,0,0,.51.17h0a2.9,2.9,0,0,1,.65.21,1,1,0,0,1,.5.41.94.94,0,0,1,.13.46,1,1,0,0,1-.44.82,1.66,1.66,0,0,1-.91.28,2,2,0,0,1-1.25-.49A.35.35,0,0,1,299.92,242.56Z" style="fill:#263238"></path><path d="M307.94,240.61l-1.16,2.72s0,0,0,.06a0,0,0,0,1,0,0l0,0h0l-.05,0h0l-.07,0h-.28l-.07,0h0a.08.08,0,0,1,0,0h0l0,0a0,0,0,0,1,0,0,.14.14,0,0,1,0-.06l-.52-1.21-.49,1.21,0,.06h0l0,0h0l0,.05-.06,0h-.3s-.05,0-.06,0,0,0,0,0l0,0h0l0,0s0,0,0,0l0-.06-1.15-2.72a.35.35,0,0,1,.2-.48.34.34,0,0,1,.46.21l.83,1.89.49-1.18a.37.37,0,0,1,.34-.22.36.36,0,0,1,.35.22l.5,1.18.82-1.89a.35.35,0,0,1,.47-.21A.37.37,0,0,1,307.94,240.61Z" style="fill:#263238"></path><path d="M309.61,243.05a1.78,1.78,0,0,1-.49-1.24,1.8,1.8,0,0,1,.49-1.22,1.63,1.63,0,0,1,1.2-.54,1.53,1.53,0,0,1,1.17.54,1.72,1.72,0,0,1,.49,1.22,1.7,1.7,0,0,1-.49,1.24,1.56,1.56,0,0,1-1.17.53A1.65,1.65,0,0,1,309.61,243.05Zm.28-1.24a1.17,1.17,0,0,0,.25.75,1,1,0,0,0,.67.25,1,1,0,0,0,.65-.25,1.13,1.13,0,0,0,.27-.75,1.08,1.08,0,0,0-.27-.73,1,1,0,0,0-.65-.26,1.05,1.05,0,0,0-.67.26A1.11,1.11,0,0,0,309.89,241.81Z" style="fill:#263238"></path><path d="M315.68,240.42a.38.38,0,0,1-.37.38.68.68,0,0,0-.42.13,1,1,0,0,0-.32.34,2.32,2.32,0,0,0-.29.58v1.34a.38.38,0,0,1-.76,0v-2.77a.38.38,0,0,1,.76,0v.05a1,1,0,0,1,.15-.14,1.53,1.53,0,0,1,.88-.27A.36.36,0,0,1,315.68,240.42Z" style="fill:#263238"></path><path d="M319.6,243.18a.39.39,0,0,1-.38.38.38.38,0,0,1-.37-.3,1.74,1.74,0,1,1-1-3.21,1.57,1.57,0,0,1,.93.3V239a.39.39,0,0,1,.77,0v2.77h0Zm-1.7-2.36a.89.89,0,0,0-.66.28,1,1,0,0,0,0,1.41.89.89,0,0,0,.66.28.87.87,0,0,0,.65-.28,1,1,0,0,0,0-1.41A.87.87,0,0,0,317.9,240.82Z" style="fill:#263238"></path><polygon points="287.64 274.38 304.22 274.23 320.81 274.18 353.98 274.08 387.15 274.18 403.74 274.23 420.32 274.38 403.74 274.52 387.15 274.57 353.98 274.67 320.81 274.57 304.22 274.52 287.64 274.38" style="fill:#455a64"></polygon><polygon points="287.64 203.68 304.22 203.54 320.81 203.49 353.98 203.39 387.15 203.49 403.74 203.54 420.32 203.68 403.74 203.83 387.15 203.88 353.98 203.98 320.81 203.88 304.22 203.83 287.64 203.68" style="fill:#ebebeb"></polygon><path d="M373.51,164.89a37.18,37.18,0,0,1-39.07,0,37.14,37.14,0,1,1,39.07,0Z" style="fill:#FF725E"></path><circle cx="353.97" cy="129.05" r="11.3" transform="translate(-9.42 29.58) rotate(-4.72)" style="fill:#fff"></circle><path d="M373.51,160.22v4.67a37.18,37.18,0,0,1-39.07,0v-4.65a19.54,19.54,0,0,1,39.07,0Z" style="fill:#fff"></path><path d="M287.64,322.81q6.8-.17,13.58-.23l13.59-.07,13.59.07q6.78.06,13.58.23-6.8.17-13.58.23l-13.59.07L301.22,323Q294.44,323,287.64,322.81Z" style="fill:#455a64"></path><path d="M366,322.81q6.79-.17,13.59-.23l13.58-.07,13.59.07q6.79.06,13.59.23-6.79.17-13.59.23l-13.59.07L379.57,323Q372.78,323,366,322.81Z" style="fill:#455a64"></path><path d="M350.64,324.07a1.81,1.81,0,0,1-.49-1.26,1.85,1.85,0,0,1,.49-1.24,1.68,1.68,0,0,1,1.23-.55,1.56,1.56,0,0,1,1.19.55,1.77,1.77,0,0,1,.5,1.24,1.73,1.73,0,0,1-.5,1.26,1.55,1.55,0,0,1-1.19.54A1.67,1.67,0,0,1,350.64,324.07Zm.29-1.26a1.13,1.13,0,0,0,.26.76,1,1,0,0,0,.68.26,1,1,0,0,0,.66-.26,1.09,1.09,0,0,0,.28-.76,1.06,1.06,0,0,0-.28-.74,1,1,0,0,0-.66-.27,1,1,0,0,0-.68.27A1.09,1.09,0,0,0,350.93,322.81Z" style="fill:#455a64"></path><path d="M356.83,321.4a.38.38,0,0,1-.37.38.69.69,0,0,0-.43.13,1.1,1.1,0,0,0-.33.35,2.06,2.06,0,0,0-.29.6v1.35a.39.39,0,0,1-.4.38.38.38,0,0,1-.37-.38V321.4A.37.37,0,0,1,355,321a.38.38,0,0,1,.4.37v.05a.66.66,0,0,1,.15-.14,1.51,1.51,0,0,1,.9-.28A.36.36,0,0,1,356.83,321.4Z" style="fill:#455a64"></path><rect x="348.24" y="332.08" width="10.5" height="10.5" style="fill:#455a64"></rect><path d="M351.93,338.47h-1.4v-1.61h1.37c0-.12,0-.22,0-.31,0-.42,0-.85,0-1.27a1.77,1.77,0,0,1,1.57-1.7,12.76,12.76,0,0,1,1.75,0V335h-.63a3.56,3.56,0,0,0-.57,0,.52.52,0,0,0-.44.51c0,.41,0,.82,0,1.27h1.6c-.07.52-.13,1-.2,1.5,0,0-.13.1-.2.1-.39,0-.77,0-1.19,0v4.12h-1.7Z" style="fill:#fff"></path><rect x="319.3" y="288.07" width="68.27" height="21.71" style="fill:#FF725E"></rect><path d="M338.37,302v-5.88a.55.55,0,1,1,1.1,0v5.32h2.71a.55.55,0,0,1,0,1.1h-3.26A.55.55,0,0,1,338.37,302Z" style="fill:#fff"></path><path d="M349.09,296.4a3.69,3.69,0,0,1,0,5.05,3.27,3.27,0,0,1-2.39,1.06,3.36,3.36,0,0,1-2.44-1.06,3.72,3.72,0,0,1,0-5.05,3.36,3.36,0,0,1,2.44-1.06A3.27,3.27,0,0,1,349.09,296.4Zm-.13,2.53a2.59,2.59,0,0,0-.68-1.75,2.15,2.15,0,0,0-3.19,0,2.54,2.54,0,0,0-.68,1.75,2.49,2.49,0,0,0,.68,1.73,2.13,2.13,0,0,0,3.19,0A2.54,2.54,0,0,0,349,298.93Z" style="fill:#fff"></path><path d="M351.75,298.94a3.68,3.68,0,0,1,5.95-2.82.56.56,0,0,1,.11.8.58.58,0,0,1-.81.09,2.55,2.55,0,0,0-1.57-.54,2.48,2.48,0,0,0-1.8.73,2.38,2.38,0,0,0,0,3.45,2.48,2.48,0,0,0,1.8.73,2.76,2.76,0,0,0,1.37-.38v-1.37h-1.43a.57.57,0,0,1-.57-.56.56.56,0,0,1,.57-.56h2a.56.56,0,0,1,.58.56v2.2a.86.86,0,0,1,0,.17l0,.05h0a.47.47,0,0,1-.19.24,3.69,3.69,0,0,1-5.94-2.8Z" style="fill:#fff"></path><path d="M360.25,296.09a.54.54,0,0,1,.55-.55.56.56,0,0,1,.56.55V302a.55.55,0,0,1-.56.54.53.53,0,0,1-.55-.54Z" style="fill:#fff"></path><path d="M364.32,302a.55.55,0,0,1-1.09,0v-5.79h0a.54.54,0,0,1,.22-.46.55.55,0,0,1,.76.12l3.22,4.45v-4.1a.54.54,0,0,1,.53-.54.55.55,0,0,1,.55.54V302a.55.55,0,0,1-.55.54.52.52,0,0,1-.4-.2.1.1,0,0,1-.05-.06l-3.19-4.42Z" style="fill:#fff"></path><rect x="287.64" y="220.18" width="132.69" height="11.75" style="fill:#ebebeb"></rect><path d="M292.71,225.07a.19.19,0,0,1,.2-.2.2.2,0,0,1,.21.2v2.27a1.28,1.28,0,1,0,2.56,0v-2.27a.21.21,0,0,1,.42,0v2.27a1.7,1.7,0,1,1-3.39,0Z" style="fill:#a6a6a6"></path><path d="M297.72,228.17a.19.19,0,0,1,.28,0,2.19,2.19,0,0,0,1.28.49,1.23,1.23,0,0,0,.79-.26.62.62,0,0,0,.31-.51.65.65,0,0,0-.3-.51,2.11,2.11,0,0,0-.88-.3h0a2.41,2.41,0,0,1-.95-.32.89.89,0,0,1-.45-.75,1.06,1.06,0,0,1,.45-.82,1.81,1.81,0,0,1,1-.28,2.24,2.24,0,0,1,1.24.45.21.21,0,0,1,.06.29.2.2,0,0,1-.28.06,1.85,1.85,0,0,0-1-.41,1.28,1.28,0,0,0-.79.23.63.63,0,0,0-.26.48.49.49,0,0,0,.24.42,2,2,0,0,0,.85.28h0a2.93,2.93,0,0,1,1,.34,1,1,0,0,1,0,1.69,1.62,1.62,0,0,1-1,.34,2.56,2.56,0,0,1-1.54-.6A.19.19,0,0,1,297.72,228.17Z" style="fill:#a6a6a6"></path><path d="M301.89,227a2.06,2.06,0,0,1,2-2.09,2,2,0,0,1,2,1.94h0v0a.19.19,0,0,1-.2.19H302.3a1.63,1.63,0,0,0,1.61,1.6,1.56,1.56,0,0,0,1.34-.76.2.2,0,0,1,.27-.07.21.21,0,0,1,.07.29,2,2,0,0,1-1.68.95A2.05,2.05,0,0,1,301.89,227Zm.43-.33h3.15a1.6,1.6,0,0,0-1.56-1.35A1.63,1.63,0,0,0,302.32,226.63Z" style="fill:#a6a6a6"></path><path d="M307.18,225.09a.21.21,0,0,1,.22-.21.2.2,0,0,1,.19.21V226l.06-.1a2,2,0,0,1,1.67-1,.2.2,0,0,1,.2.21.2.2,0,0,1-.2.2,1.51,1.51,0,0,0-1.21.68,3.7,3.7,0,0,0-.5,1,.11.11,0,0,0,0,.07v1.82a.2.2,0,0,1-.19.21.21.21,0,0,1-.22-.21Z" style="fill:#a6a6a6"></path><path d="M313.89,226.57a1.28,1.28,0,0,0-1.29-1.28,1.31,1.31,0,0,0-1.29,1.28v2.3a.18.18,0,0,1,0,.09.18.18,0,0,1-.15.08h-.05a.26.26,0,0,1-.14-.11,0,0,0,0,1,0,0,0,0,0,0,0,0,0v-3.79a.21.21,0,0,1,.21-.21.2.2,0,0,1,.19.21v.4a1.68,1.68,0,0,1,3,1.08v2.26a.2.2,0,1,1-.4,0Z" style="fill:#a6a6a6"></path><path d="M319.62,225.08v3.75a.22.22,0,0,1-.21.21.21.21,0,0,1-.2-.21v-.62a2,2,0,0,1-1.57.83,2.09,2.09,0,0,1,0-4.17,2,2,0,0,1,1.57.82v-.61a.2.2,0,0,1,.2-.21A.21.21,0,0,1,319.62,225.08Zm-.41,1.87a1.57,1.57,0,1,0-1.57,1.68A1.63,1.63,0,0,0,319.21,227Z" style="fill:#a6a6a6"></path><path d="M327.34,226.57a1.31,1.31,0,0,0-1.29-1.29,1.29,1.29,0,0,0-1.28,1.29v2.3h0v0a.22.22,0,0,1-.1.11.23.23,0,0,1-.11,0h-.06l-.05,0h0l0,0v0h0a0,0,0,0,0,0,0,0,0,0,0,0,0,0v-2.31a1.29,1.29,0,1,0-2.57,0v2.27a.17.17,0,0,1-.09.16.09.09,0,0,1-.05,0h-.08a.21.21,0,0,1-.17-.16v-3.8a.2.2,0,0,1,.19-.2.19.19,0,0,1,.2.2v.4a1.68,1.68,0,0,1,2.77.29,1.73,1.73,0,0,1,1.5-.89,1.69,1.69,0,0,1,1.69,1.69v2.27a.2.2,0,1,1-.4,0Z" style="fill:#a6a6a6"></path><path d="M329.17,227a2,2,0,0,1,4-.15h0v0a.2.2,0,0,1-.21.19h-3.41a1.63,1.63,0,0,0,1.61,1.6,1.56,1.56,0,0,0,1.34-.76.21.21,0,0,1,.28-.07.22.22,0,0,1,.06.29,2,2,0,0,1-1.68.95A2.05,2.05,0,0,1,329.17,227Zm.43-.33h3.16a1.61,1.61,0,0,0-1.57-1.35A1.63,1.63,0,0,0,329.6,226.63Z" style="fill:#a6a6a6"></path><path d="M337.29,223.08a3,3,0,0,1,3,3,2.87,2.87,0,0,1-.32,1.36,1.39,1.39,0,0,1-.77.65.52.52,0,0,1-.17,0,.59.59,0,0,1-.48-.23.72.72,0,0,1-.14-.41v-.29a1.45,1.45,0,0,1-1.09.51,1.6,1.6,0,0,1,0-3.19,1.54,1.54,0,0,1,1.5,1.58v1.36h0a.34.34,0,0,0,.05.19.18.18,0,0,0,.15.06h.07a.86.86,0,0,0,.49-.44,2.38,2.38,0,0,0,.28-1.17,2.56,2.56,0,1,0-2.55,2.57,2.22,2.22,0,0,0,.63-.07.19.19,0,0,1,.24.15.18.18,0,0,1-.14.24,2.92,2.92,0,0,1-.73.1,3,3,0,1,1,0-6Zm0,4.14a1.13,1.13,0,0,0,1.08-1.17,1.14,1.14,0,0,0-1.08-1.17,1.13,1.13,0,0,0-1.08,1.17A1.12,1.12,0,0,0,337.29,227.22Z" style="fill:#a6a6a6"></path><path d="M348.93,226.57a1.31,1.31,0,0,0-1.29-1.29,1.3,1.3,0,0,0-1.29,1.29v2.3h0v0a.2.2,0,0,1-.11.11.17.17,0,0,1-.1,0h-.06l-.05,0h0l0,0s0,0,0,0h0v0a0,0,0,0,0,0,0v-2.31a1.29,1.29,0,1,0-2.57,0v2.27a.17.17,0,0,1-.09.16l0,0h-.09a.25.25,0,0,1-.17-.16v-3.8a.21.21,0,0,1,.2-.2.19.19,0,0,1,.2.2v.4a1.68,1.68,0,0,1,2.77.29,1.73,1.73,0,0,1,1.5-.89,1.69,1.69,0,0,1,1.69,1.69v2.27a.21.21,0,0,1-.21.2.2.2,0,0,1-.19-.2Z" style="fill:#a6a6a6"></path><path d="M354.55,225.08v3.75a.22.22,0,0,1-.21.21.21.21,0,0,1-.2-.21v-.62a2,2,0,0,1-1.56.83,2.09,2.09,0,0,1,0-4.17,2,2,0,0,1,1.56.82v-.61a.2.2,0,0,1,.2-.21A.21.21,0,0,1,354.55,225.08Zm-.41,1.87a1.57,1.57,0,1,0-1.56,1.68A1.62,1.62,0,0,0,354.14,227Z" style="fill:#a6a6a6"></path><path d="M356.33,223.72a.21.21,0,1,1,.41,0v.19a.21.21,0,1,1-.41,0Zm0,1.36a.2.2,0,0,1,.2-.21.21.21,0,0,1,.21.21v3.75a.21.21,0,1,1-.41,0Z" style="fill:#a6a6a6"></path><path d="M358.59,223.29a.2.2,0,0,1,.2-.2.2.2,0,0,1,.21.2v5.54a.21.21,0,1,1-.41,0Z" style="fill:#a6a6a6"></path><path d="M361,228.19a.42.42,0,0,1,.42.42.43.43,0,1,1-.85,0A.42.42,0,0,1,361,228.19Z" style="fill:#a6a6a6"></path><path d="M362.13,227a2.1,2.1,0,0,1,2.14-2.08,2.17,2.17,0,0,1,1.33.46.19.19,0,0,1,0,.28.21.21,0,0,1-.28,0,1.7,1.7,0,1,0-1.07,3,1.76,1.76,0,0,0,1.07-.37.21.21,0,0,1,.28,0,.19.19,0,0,1,0,.29,2.14,2.14,0,0,1-3.45-1.64Z" style="fill:#a6a6a6"></path><path d="M368.93,224.87a2.09,2.09,0,1,1-2,2.08A2,2,0,0,1,368.93,224.87Zm0,3.76a1.68,1.68,0,1,0-1.56-1.68A1.63,1.63,0,0,0,368.93,228.63Z" style="fill:#a6a6a6"></path><path d="M378.42,226.57a1.31,1.31,0,0,0-1.29-1.29,1.29,1.29,0,0,0-1.28,1.29v2.3h0v0a.22.22,0,0,1-.1.11.23.23,0,0,1-.11,0h-.05l-.06,0h0l0,0s0,0,0,0h0a0,0,0,0,0,0,0,0,0,0,0,0,0,0v-2.31a1.29,1.29,0,1,0-2.57,0v2.27a.17.17,0,0,1-.09.16.09.09,0,0,1,0,0h-.08a.21.21,0,0,1-.17-.16v-3.8a.2.2,0,0,1,.19-.2.19.19,0,0,1,.2.2v.4a1.68,1.68,0,0,1,2.77.29,1.73,1.73,0,0,1,1.5-.89,1.69,1.69,0,0,1,1.69,1.69v2.27a.2.2,0,0,1-.2.2.21.21,0,0,1-.2-.2Z" style="fill:#a6a6a6"></path><rect x="287.64" y="248.55" width="132.69" height="11.75" style="fill:#ebebeb"></rect><path d="M293.73,254.6l-.78.53a.24.24,0,0,1-.13.05.18.18,0,0,1-.17-.18.17.17,0,0,1,.12-.16l.87-.42-.87-.41a.19.19,0,0,1-.12-.16.18.18,0,0,1,.17-.18.17.17,0,0,1,.13.05l.78.52-.07-.92a.17.17,0,1,1,.34,0l-.07.92.78-.52a.18.18,0,0,1,.13-.05.18.18,0,0,1,.17.18.17.17,0,0,1-.12.16l-.87.41.87.42a.16.16,0,0,1,.12.16.18.18,0,0,1-.17.18.24.24,0,0,1-.13-.05l-.78-.53.07.93a.17.17,0,1,1-.34,0Z" style="fill:#a6a6a6"></path><path d="M297.38,254.6l-.77.53a.27.27,0,0,1-.14.05.18.18,0,0,1-.17-.18.17.17,0,0,1,.12-.16l.88-.42-.88-.41a.19.19,0,0,1-.12-.16.18.18,0,0,1,.17-.18.19.19,0,0,1,.14.05l.77.52-.07-.92a.18.18,0,0,1,.17-.19.17.17,0,0,1,.17.19l-.06.92.77-.52a.19.19,0,0,1,.14-.05.17.17,0,0,1,.16.18.17.17,0,0,1-.11.16l-.88.41.88.42a.16.16,0,0,1,.11.16.18.18,0,0,1-.16.18.24.24,0,0,1-.14-.05l-.77-.53.06.93a.16.16,0,0,1-.17.18.17.17,0,0,1-.17-.18Z" style="fill:#a6a6a6"></path><path d="M301,254.6l-.78.53a.24.24,0,0,1-.13.05A.18.18,0,0,1,300,255a.17.17,0,0,1,.12-.16l.87-.42-.87-.41a.19.19,0,0,1-.12-.16.18.18,0,0,1,.17-.18.17.17,0,0,1,.13.05l.78.52-.07-.92a.17.17,0,1,1,.34,0l-.07.92.77-.52a.22.22,0,0,1,.14-.05.18.18,0,0,1,.17.18.17.17,0,0,1-.12.16l-.87.41.87.42a.16.16,0,0,1,.12.16.18.18,0,0,1-.17.18.3.3,0,0,1-.14-.05l-.77-.53.07.93a.17.17,0,1,1-.34,0Z" style="fill:#a6a6a6"></path><path d="M304.69,254.6l-.77.53a.27.27,0,0,1-.14.05.18.18,0,0,1-.17-.18.17.17,0,0,1,.12-.16l.88-.42-.88-.41a.19.19,0,0,1-.12-.16.18.18,0,0,1,.17-.18.19.19,0,0,1,.14.05l.77.52-.07-.92a.18.18,0,0,1,.17-.19.17.17,0,0,1,.17.19l-.06.92.77-.52a.19.19,0,0,1,.14-.05.17.17,0,0,1,.16.18.17.17,0,0,1-.11.16l-.88.41.88.42a.16.16,0,0,1,.11.16.18.18,0,0,1-.16.18.24.24,0,0,1-.14-.05l-.77-.53.06.93a.16.16,0,0,1-.17.18.17.17,0,0,1-.17-.18Z" style="fill:#a6a6a6"></path><path d="M308.35,254.6l-.78.53a.24.24,0,0,1-.13.05.18.18,0,0,1-.17-.18.17.17,0,0,1,.12-.16l.87-.42-.87-.41a.19.19,0,0,1-.12-.16.18.18,0,0,1,.17-.18.17.17,0,0,1,.13.05l.78.52-.07-.92a.17.17,0,1,1,.34,0l-.07.92.77-.52a.2.2,0,0,1,.14-.05.18.18,0,0,1,.17.18.17.17,0,0,1-.12.16l-.87.41.87.42a.16.16,0,0,1,.12.16.18.18,0,0,1-.17.18.27.27,0,0,1-.14-.05l-.77-.53.07.93a.17.17,0,1,1-.34,0Z" style="fill:#a6a6a6"></path><path d="M312,254.6l-.77.53a.27.27,0,0,1-.14.05.18.18,0,0,1-.17-.18.17.17,0,0,1,.12-.16l.88-.42L311,254a.19.19,0,0,1-.12-.16.18.18,0,0,1,.17-.18.19.19,0,0,1,.14.05l.77.52-.07-.92a.17.17,0,0,1,.17-.19.17.17,0,0,1,.17.19l-.06.92.77-.52a.18.18,0,0,1,.13-.05.17.17,0,0,1,.17.18.17.17,0,0,1-.12.16l-.87.41.87.42a.16.16,0,0,1,.12.16.18.18,0,0,1-.17.18.24.24,0,0,1-.13-.05l-.77-.53.06.93a.16.16,0,0,1-.17.18.17.17,0,0,1-.17-.18Z" style="fill:#a6a6a6"></path><path d="M315.66,254.6l-.78.53a.24.24,0,0,1-.13.05.18.18,0,0,1-.17-.18.17.17,0,0,1,.12-.16l.87-.42-.87-.41a.19.19,0,0,1-.12-.16.18.18,0,0,1,.17-.18.17.17,0,0,1,.13.05l.78.52-.07-.92a.17.17,0,1,1,.34,0l-.07.92.77-.52a.2.2,0,0,1,.14-.05.18.18,0,0,1,.17.18.17.17,0,0,1-.12.16l-.88.41.88.42a.16.16,0,0,1,.12.16.18.18,0,0,1-.17.18.27.27,0,0,1-.14-.05l-.77-.53.07.93a.17.17,0,1,1-.34,0Z" style="fill:#a6a6a6"></path><path d="M319.31,254.6l-.77.53a.27.27,0,0,1-.14.05.18.18,0,0,1-.17-.18.17.17,0,0,1,.12-.16l.88-.42-.88-.41a.19.19,0,0,1-.12-.16.18.18,0,0,1,.17-.18.19.19,0,0,1,.14.05l.77.52-.07-.92a.17.17,0,0,1,.17-.19.17.17,0,0,1,.17.19l-.06.92.77-.52a.18.18,0,0,1,.13-.05.17.17,0,0,1,.17.18.18.18,0,0,1-.11.16l-.88.41.88.42a.17.17,0,0,1,.11.16.18.18,0,0,1-.17.18.24.24,0,0,1-.13-.05l-.77-.53.06.93a.16.16,0,0,1-.17.18.17.17,0,0,1-.17-.18Z" style="fill:#a6a6a6"></path></g><g id="freepik--Table--inject-64"><polygon points="36.71 404.85 90.03 404.61 143.35 404.52 250 404.35 356.64 404.52 409.97 404.61 463.29 404.85 409.97 405.1 356.64 405.19 250 405.35 143.35 405.18 90.03 405.1 36.71 404.85" style="fill:#263238"></polygon></g><g id="freepik--Plant--inject-64"><path d="M414.69,346.6c14.34,14,16.74,35.75,13.72,54.77-.08.43-.74.31-.74-.09,0-4.33.13-8.62.11-12.9-.07-.19-.14-.38-.22-.57-3.74-2.73-7.18-5.8-9.31-10-2.4-4.71-3.34-10-5.17-14.94-.17-.47.33-.33.66-.09,8.72,6.43,11.5,13.35,14,22.6a77.4,77.4,0,0,0-1.52-14.4c-1.89-8.78-5.61-17.47-11.92-24C414.08,346.73,414.44,346.35,414.69,346.6Z" style="fill:#263238"></path><path d="M412,348.24c-2.47.08-4,4-5.94,5.17a1.84,1.84,0,0,1-2.72-.42c-1.9-2.66.71-5.94,3.17-7.78-1.76.73-3.22,2-5.11,2.36a1.79,1.79,0,0,1-2.31-1.39c-.84-3.62,3.71-5.23,6.83-5.31-1.51-1.05-5.85-3.91-3.54-5.31s7.41,2.67,9.07,4c2.44,2,5.35,4.93,5.46,8C417.05,351.22,413.89,349,412,348.24Z" style="fill:#FF725E"></path><path d="M412,348.24c-2.47.08-4,4-5.94,5.17a1.84,1.84,0,0,1-2.72-.42c-1.9-2.66.71-5.94,3.17-7.78-1.76.73-3.22,2-5.11,2.36a1.79,1.79,0,0,1-2.31-1.39c-.84-3.62,3.71-5.23,6.83-5.31-1.51-1.05-5.85-3.91-3.54-5.31s7.41,2.67,9.07,4c2.44,2,5.35,4.93,5.46,8C417.05,351.22,413.89,349,412,348.24Z" style="opacity:0.1"></path><path d="M412.71,348.85c-3.15-1.44-9.21.63-9.73-.57-1-2.43,3.8-4.09,6.41-4.42-2.4-.65-7-1.69-6.87-4,.17-2.83,7.07-.39,10.56,2.28,4.4,3.38,4.37,6.63,3.65,7.28C415.73,350.31,413.23,349.08,412.71,348.85Z" style="fill:#FF725E"></path><path d="M447.34,345.21c-14.86,13.48-18.09,35.09-15.79,54.21.06.43.73.34.74-.06.17-4.33.2-8.62.38-12.9l.24-.56c3.84-2.58,7.4-5.52,9.69-9.65,2.57-4.61,3.71-9.88,5.73-14.73.19-.46-.32-.34-.66-.11-9,6.09-12,12.9-14.85,22a76.43,76.43,0,0,1,2.07-14.33c2.21-8.7,6.27-17.25,12.82-23.52C448,345.37,447.6,345,447.34,345.21Z" style="fill:#263238"></path><path d="M450,347c2.46.18,3.86,4.18,5.73,5.4a1.85,1.85,0,0,0,2.74-.33c2-2.58-.48-6-2.87-7.88,1.73.79,3.14,2.11,5,2.54a1.78,1.78,0,0,0,2.36-1.29c1-3.59-3.51-5.38-6.63-5.57,1.55-1,6-3.68,3.75-5.18s-7.52,2.4-9.23,3.68c-2.51,1.88-5.53,4.72-5.75,7.81C444.81,349.74,448.05,347.63,450,347Z" style="fill:#FF725E"></path><path d="M450,347c2.46.18,3.86,4.18,5.73,5.4a1.85,1.85,0,0,0,2.74-.33c2-2.58-.48-6-2.87-7.88,1.73.79,3.14,2.11,5,2.54a1.78,1.78,0,0,0,2.36-1.29c1-3.59-3.51-5.38-6.63-5.57,1.55-1,6-3.68,3.75-5.18s-7.52,2.4-9.23,3.68c-2.51,1.88-5.53,4.72-5.75,7.81C444.81,349.74,448.05,347.63,450,347Z" style="opacity:0.1"></path><path d="M449.23,347.53c3.21-1.31,9.19,1,9.75-.19,1.13-2.39-3.64-4.24-6.24-4.66,2.43-.56,7.07-1.42,7-3.75-.06-2.84-7.05-.66-10.64,1.88-4.53,3.2-4.62,6.46-3.92,7.13C446.16,348.88,448.71,347.75,449.23,347.53Z" style="fill:#FF725E"></path><path d="M432.14,380.81a144.84,144.84,0,0,1-4.61,21.32.53.53,0,0,1-1-.21c1-6.57,2.76-13,3.73-19.59a98,98,0,0,0,1.15-20.1c-.63-11.07-3.64-22.84-10.86-31.5-.16-.21.18-.5.34-.31C435.31,347.28,433,368,433,369.81c2.05-7,4.16-15,11.9-22.09.33-.31.59-.16.54.36-1.39,12.94-5,19.7-12.49,26.62Q432.64,377.79,432.14,380.81Z" style="fill:#263238"></path><path d="M420.38,332.67c-2.6-1.16-6.19,2.15-8.76,2.38a2.14,2.14,0,0,1-2.61-1.81c-.64-3.72,3.72-5.81,7.2-6.48-2.19-.13-4.34.45-6.49-.13A2.05,2.05,0,0,1,408,324c1-4.18,6.49-3.57,9.76-2.08-1-1.85-4.09-7-1-7.29s6.35,6.51,7.4,8.74c1.53,3.28,3.06,7.81,1.62,11.07C424.13,338.3,422,334.41,420.38,332.67Z" style="fill:#FF725E"></path><path d="M420.38,332.67c-2.6-1.16-6.19,2.15-8.76,2.38a2.14,2.14,0,0,1-2.61-1.81c-.64-3.72,3.72-5.81,7.2-6.48-2.19-.13-4.34.45-6.49-.13A2.05,2.05,0,0,1,408,324c1-4.18,6.49-3.57,9.76-2.08-1-1.85-4.09-7-1-7.29s6.35,6.51,7.4,8.74c1.53,3.28,3.06,7.81,1.62,11.07C424.13,338.3,422,334.41,420.38,332.67Z" style="opacity:0.1"></path><path d="M420.82,333.66c-2.55-3.08-9.88-4-9.81-5.48.14-3.05,6-2.34,8.87-1.36-2.17-1.89-6.43-5.29-5.11-7.62,1.6-2.86,7.54,3.14,9.81,7.68,2.87,5.71,1.2,9.08.12,9.39C423.21,336.69,421.24,334.16,420.82,333.66Z" style="fill:#FF725E"></path><path d="M441.66,384.71,448,433.44H409.23c.8-4.32,8-48.79,8-48.79Z" style="fill:#FF725E"></path></g><g id="freepik--Character--inject-64"><path d="M210.32,293.43a1.06,1.06,0,0,1-1,1l-4.33-.17c-2.79-10.45-6.1-18.87-5.34-15.64a51.83,51.83,0,0,1,1.08,15.45l-8.54-.48c-1.47-18-4.37-31.6-4.53-27.52-.66,16.43-2.18,21.57-3.9,27.05-20.61-1.22-47.61-3.1-67.1-4.89-1.21-10-2.06-20.79-2.48-20.09-3.24,5.25-4.81,13.18-5.52,19.34-6.2-.61-11.14-1.21-14.14-1.73,0,0-.58-8.37-.5-11.1a56.89,56.89,0,0,1,4.35-20.35c2.79-6.63,7-12.31,11-18.15a.73.73,0,0,1,.09-.13s0,0,0-.05a58,58,0,0,0,6.52-12.2.19.19,0,0,0,0-.09,57.24,57.24,0,0,0,2.64-9.62c2.18-12,10.08-21.69,21.76-23.69,21.26-13.89,44.12-7.16,49,9,.47,1.58.89,3.37,1.28,5.32v.06c1.45,7.2,2.46,16.46,3.53,23.65,0,0,0,0,0,0s0,0,0,.08v0a65.89,65.89,0,0,0,1.69,8.35C200.1,250.05,211.71,258.5,210.32,293.43Z" style="fill:#263238"></path><path d="M135.24,193.19c-7.86,3.09-13,8.28-15.11,17-1.22,5.06-2.09,10-4.57,14.68s-6.22,8.55-10,12.29c-6,6-10.3,12.06-12,20.62s-2.43,19.09-.34,27.59a0,0,0,0,0,.08,0c-1.53-8.56-.37-20.06,2-28.61,2.64-9.38,8.69-14.83,15-21.51a40,40,0,0,0,10.2-18.65c1-4.29,1.43-8.83,3.62-12.75,2.61-4.67,7.11-7.35,11.54-9.68A.52.52,0,0,0,135.24,193.19Z" style="fill:#263238"></path><path d="M207.07,251.7c-4.53-7.39-9.38-13.8-11.56-22.61-2-8-2.72-16.38-4.75-24.4a.1.1,0,1,0-.2,0c2.95,14.18,2.33,28.11,10,40.58,4.15,6.78,8.35,13.09,10.73,20.94a67.47,67.47,0,0,1,2.36,25.34c0,.3.36.33.42,0A55.75,55.75,0,0,0,207.07,251.7Z" style="fill:#263238"></path><path d="M262.2,231.29l-27.79,52.33c-1,1.49-.51,3,1.1,3.42l28.79,7.09a4.82,4.82,0,0,0,4.73-2l27.79-52.33c1-1.49.5-3-1.1-3.42l-28.79-7.08A4.8,4.8,0,0,0,262.2,231.29Z" style="fill:#37474f"></path><path d="M265.62,232.1l-27.79,52.33c-1,1.49-.5,3,1.11,3.42l28.79,7.09a4.79,4.79,0,0,0,4.72-2l27.79-52.34c1-1.49.51-3-1.1-3.42l-28.79-7.08A4.8,4.8,0,0,0,265.62,232.1Z" style="fill:#455a64"></path><path d="M272.89,236.59a2.52,2.52,0,1,1-1.78-3.09A2.52,2.52,0,0,1,272.89,236.59Z" style="fill:#263238"></path><path d="M144.58,303.54c12,37.61,43.32,88.51,58.74,90.74,7.34,1.06,20.24,4.54,31-2.64,23.47-15.68,46.87-47,54.13-65.25,2.72-6.83-32.88-30.24-38.8-25.07-13.87,12.1-31.44,37.13-33.55,36.69-7.83-1.64-35.39-31.45-54.6-52.42C138.17,260.13,139.8,288.55,144.58,303.54Z" style="fill: rgb(255, 196, 192);"></path><path d="M297,293.44c0-15.16-2.3-19.06,4.52-31.85,4.48-8.39,1-14.85-7.14-9.29-13.38,9.1-17.52,28.65-17,35.85Z" style="fill: rgb(255, 196, 192);"></path><path d="M283.66,335.17s11.43-18.23,13.06-34.39c1.12-11.17.86-35.76-26.15-55.6-6.41-4.71-18.88-6.87-11.21,4.62,5.45,8.16,11.38,11.69,13.68,17,0,0-16.18-.86-20.65,5.74A147.65,147.65,0,0,0,242,290.64a30.72,30.72,0,0,0,3.21,2.25s-4,6.32-1.37,17.39Z" style="fill: rgb(255, 196, 192);"></path><path d="M296.09,290c-3.41-4.8-10.8-14.86-19.7-21-9.9-6.8-30.79-17.23-35.73-9.87-3.62,5.39,4,10.07,4,10.07s-9.54-2.49-11.75,3.1c-2,5.09,4.1,8.36,4.1,8.36s-6-.52-7,4.76c-1.2,6.35,11.68,6.39,16,13.87C247,300.94,296.09,290,296.09,290Z" style="fill: rgb(255, 196, 192);"></path><path d="M271,280.62c-3.95-4-15.23-10.75-26.07-11.56-.24,0-.39.16-.17.22a117.85,117.85,0,0,1,26.17,11.44C270.94,280.75,271,280.67,271,280.62Z" style="fill:#263238"></path><path d="M263.79,290.41c-3.76-3.09-15.69-9.54-26.7-10-.25,0-.38.18-.16.23a126,126,0,0,1,26.8,9.86C263.79,290.54,263.84,290.45,263.79,290.41Z" style="fill:#263238"></path><path d="M161.43,351.6,192,313.32s-24.33-26.84-39.88-38c-8.71-6.23-13.67.45-12.44,10.05C144,319,161.43,351.6,161.43,351.6Z" style="fill:#FF725E"></path><path d="M161.43,351.6,192,313.32s-24.33-26.84-39.88-38c-8.71-6.23-13.67.45-12.44,10.05C144,319,161.43,351.6,161.43,351.6Z" style="fill:#FF725E"></path><path d="M182.27,304.72a2.69,2.69,0,1,0,0,5.37,2.69,2.69,0,0,0,0-5.37Zm0,4.91a2.22,2.22,0,1,1,2.21-2.21A2.22,2.22,0,0,1,182.27,309.63ZM157.56,313a2.68,2.68,0,1,0,2.68,2.68A2.68,2.68,0,0,0,157.56,313Zm0,4.89a2.22,2.22,0,1,1,2.22-2.21A2.21,2.21,0,0,1,157.56,317.86Zm1.95-26.32a2.69,2.69,0,1,0,2.68,2.67A2.69,2.69,0,0,0,159.51,291.54Zm0,4.91a2.23,2.23,0,1,1,2.21-2.24A2.23,2.23,0,0,1,159.51,296.45Zm-19.89-16.06c0,.15,0,.3-.05.46a2.22,2.22,0,0,1,.07,4.22c0,.11,0,.23,0,.34s0,.08,0,.12a2.68,2.68,0,0,0-.08-5.14Zm36.75,52.5a2.68,2.68,0,1,0-2.68,2.87,2.73,2.73,0,0,0,.41,0l.51-.63a2.17,2.17,0,0,1-.92.2,2.23,2.23,0,1,1,2.23-2.23,2.3,2.3,0,0,1,0,.45Z" style="fill:#fff"></path><path d="M188.5,317.68l-27.06,33.93S144,319,139.68,285.42c-.85-6.6,1.24-11.81,5.44-12.4Z" style="opacity:0.1"></path><path d="M184.9,309.84c-5.19,5.5-18.83,20.83-26.4,32-.05.07.19.27.24.21,7.69-8.3,21.82-25.93,26.51-31.86C185.34,310,185,309.74,184.9,309.84Z" style="fill:#263238"></path><path d="M50.23,405.45l131.83-.31-7.29-45.33s10.43-12.65,8.46-26.37c-2.17-15-29.28-53.16-31.56-55.31-9.18-8.61-18.9-10.16-28.23-7.05h0C80.31,298.18,50.23,405.45,50.23,405.45Z" style="fill:#FF725E"></path><path d="M179.28,387.86a2.22,2.22,0,0,1-3.93-1.41,2.23,2.23,0,0,1,2.23-2.24,2.14,2.14,0,0,1,1.17.34l-.09-.57a2.58,2.58,0,0,0-1.08-.23,2.69,2.69,0,1,0,1.79,4.69ZM152.67,374a2.69,2.69,0,1,0,2.68,2.69A2.69,2.69,0,0,0,152.67,374Zm0,4.91a2.23,2.23,0,1,1,2.22-2.22A2.23,2.23,0,0,1,152.67,378.92Zm21-48.53a2.69,2.69,0,1,0,2.69,2.68A2.68,2.68,0,0,0,173.69,330.39Zm0,4.91a2.23,2.23,0,1,1,2.23-2.23A2.22,2.22,0,0,1,173.69,335.3Zm-96.64,63a2.69,2.69,0,1,0,0,5.37,2.69,2.69,0,0,0,0-5.37Zm0,4.91A2.22,2.22,0,1,1,79.26,401,2.22,2.22,0,0,1,77.05,403.17Zm27.32-13.73a2.69,2.69,0,1,0,2.67,2.69A2.69,2.69,0,0,0,104.37,389.44Zm0,4.9a2.22,2.22,0,1,1,2.21-2.21A2.22,2.22,0,0,1,104.37,394.34ZM83.72,321.57a2.34,2.34,0,0,0-.38,0l-.28.53a2.39,2.39,0,0,1,.66-.1,2.22,2.22,0,1,1-2.1,2.89l-.28.55a2.68,2.68,0,1,0,2.38-3.9Zm7.55,20.54a2.68,2.68,0,1,0,2.67,2.67A2.68,2.68,0,0,0,91.27,342.11Zm0,4.89a2.22,2.22,0,1,1,2.21-2.22A2.23,2.23,0,0,1,91.27,347Zm22.07-60.7a2.69,2.69,0,0,0,0,5.37,2.69,2.69,0,1,0,0-5.37Zm0,4.91a2.23,2.23,0,1,1,2.24-2.23A2.23,2.23,0,0,1,113.34,291.21ZM116,332.84a2.69,2.69,0,1,0,2.69,2.68A2.68,2.68,0,0,0,116,332.84Zm0,4.91a2.22,2.22,0,1,1,2.23-2.23A2.22,2.22,0,0,1,116,337.75Zm22.89-57.46a2.68,2.68,0,1,0,2.67,2.69A2.69,2.69,0,0,0,138.92,280.29Zm0,4.9a2.22,2.22,0,1,1,2.21-2.21A2.22,2.22,0,0,1,138.92,285.19Zm20.59,6.35a2.69,2.69,0,1,0,2.68,2.67A2.69,2.69,0,0,0,159.51,291.54Zm0,4.91a2.23,2.23,0,1,1,2.21-2.24A2.23,2.23,0,0,1,159.51,296.45Zm-9,99.13a2.69,2.69,0,1,0,2.68,2.68A2.68,2.68,0,0,0,150.46,395.58Zm0,4.91a2.23,2.23,0,1,1,2.21-2.23A2.22,2.22,0,0,1,150.46,400.49Zm-24.52-22.4a2.68,2.68,0,1,0,2.67,2.67A2.68,2.68,0,0,0,125.94,378.09Zm0,4.89a2.22,2.22,0,1,1,2.21-2.22A2.23,2.23,0,0,1,125.94,383Zm28.95-37.16a2.69,2.69,0,1,0,2.67,2.67A2.68,2.68,0,0,0,154.89,345.82Zm0,4.9a2.22,2.22,0,1,1,2.21-2.23A2.22,2.22,0,0,1,154.89,350.72ZM157.56,313a2.68,2.68,0,1,0,2.68,2.68A2.68,2.68,0,0,0,157.56,313Zm0,4.89a2.22,2.22,0,1,1,2.22-2.21A2.21,2.21,0,0,1,157.56,317.86Zm18.58,38.77a2.68,2.68,0,0,0-1.06,5.13l-.09-.57a2.21,2.21,0,0,1,1.15-4.1,1.9,1.9,0,0,1,.54.07l.26-.41A2.63,2.63,0,0,0,176.14,356.63Zm-35-28.69a2.69,2.69,0,1,0,2.68,2.69A2.7,2.7,0,0,0,141.15,327.94Zm0,4.9a2.22,2.22,0,1,1,2.21-2.21A2.22,2.22,0,0,1,141.15,332.84ZM72.28,356.63A2.68,2.68,0,1,0,75,359.3,2.68,2.68,0,0,0,72.28,356.63Zm0,4.89a2.22,2.22,0,1,1,2.21-2.22A2.22,2.22,0,0,1,72.28,361.52Zm53.66,41.2a2.68,2.68,0,0,0-2.68,2.56h.47a2.22,2.22,0,0,1,2.21-2.1,2.2,2.2,0,0,1,2.2,2.09h.47A2.68,2.68,0,0,0,125.94,402.72ZM105.23,360.8a2.68,2.68,0,1,0,2.68,2.67A2.68,2.68,0,0,0,105.23,360.8Zm0,4.89a2.22,2.22,0,1,1,2.22-2.22A2.21,2.21,0,0,1,105.23,365.69Zm1.33-54.08a2.68,2.68,0,1,0,2.7,2.68A2.68,2.68,0,0,0,106.56,311.61Zm0,4.89a2.22,2.22,0,0,1,0-4.43,2.22,2.22,0,1,1,0,4.43ZM59,379.82a2.76,2.76,0,0,0-.51.05l-.18.52a2.26,2.26,0,0,1,.69-.11,2.23,2.23,0,1,1,0,4.45,2.19,2.19,0,0,1-1.85-1l-.18.52a2.66,2.66,0,0,0,2,.95,2.69,2.69,0,1,0,0-5.37Zm29.17-4.44a2.69,2.69,0,1,0,2.69,2.67A2.68,2.68,0,0,0,88.16,375.38Zm0,4.9a2.22,2.22,0,1,1,2.23-2.23A2.22,2.22,0,0,1,88.16,380.28Zm42.68-25.87a2.68,2.68,0,1,0,2.67,2.68A2.7,2.7,0,0,0,130.84,354.41Zm0,4.89a2.21,2.21,0,1,1,2.21-2.21A2.22,2.22,0,0,1,130.84,359.3Zm-7-88.36a2.15,2.15,0,0,1-1.61.88h0l-.62.43a2.32,2.32,0,0,0,.46,0,2.7,2.7,0,0,0,2.44-1.56Zm8.28,29.8a2.69,2.69,0,1,0,2.7,2.67A2.68,2.68,0,0,0,132.17,300.74Zm0,4.91a2.23,2.23,0,1,1,2.24-2.24A2.23,2.23,0,0,1,132.17,305.65Z" style="fill:#fff"></path><path d="M166,296.44c2.55,4.24,5.37,8.34,8,12.52-1.07-3-2.13-5.93-3.31-8.85,0-.06.06-.11.09-.05a61.93,61.93,0,0,1,4.56,11,85,85,0,0,1,5.33,9.85,39.24,39.24,0,0,1,3.57,12.9,33.18,33.18,0,0,1-1.87,13.28,85.62,85.62,0,0,1-6.68,14.05c-.34.6-1.17.05-.89-.55,3.74-8,7.87-16.36,7.5-25.4s-4.54-17.18-8.62-24.93a123.72,123.72,0,0,0-8-13.68C165.55,296.43,165.86,296.25,166,296.44Z" style="fill:#263238"></path><path d="M153.91,356.35a109.53,109.53,0,0,0-16,2.63c-2.61.67-5.17,1.45-7.72,2.29-1.28.42-2.56.8-3.85,1.17a17.54,17.54,0,0,1-4.12.78.1.1,0,0,0,0,.19,29.38,29.38,0,0,0,4-.07,28.63,28.63,0,0,0,3.78-.72c2.65-.65,5.27-1.43,7.92-2.11,5.33-1.37,10.66-2.74,16.08-3.72C154.22,356.75,154.16,356.32,153.91,356.35Z" style="fill:#263238"></path><path d="M167.23,361.12a119.45,119.45,0,0,0-13.37-.64c-2.24,0-4.45.18-6.68.4q-1.59.15-3.18.36c-1.16.15-2.31.45-3.48.58-.12,0-.12.21,0,.2,1.1-.1,2.22,0,3.33,0l3.34-.09c2.23,0,4.45-.08,6.68-.16,4.46-.15,8.9-.25,13.36-.25C167.48,361.49,167.46,361.15,167.23,361.12Z" style="fill:#263238"></path><path d="M107.61,283C74,318.15,32.28,391.7,40.54,406.33c9.2,16.3,57.24-33.51,55.72-35.91-1.29-2,15.82-46.61,28-79S115.91,274.26,107.61,283Z" style="fill: rgb(255, 196, 192);"></path><path d="M66.47,325.16l48.21,8.68s12-34.17,14.43-53.13c1.33-10.63-4.91-11.07-12.77-5.42C88.83,295.06,66.47,325.16,66.47,325.16Z" style="fill:#FF725E"></path><path d="M83.72,321.57a2.68,2.68,0,1,0,2.68,2.67A2.68,2.68,0,0,0,83.72,321.57Zm0,4.89a2.22,2.22,0,1,1,2.21-2.22A2.22,2.22,0,0,1,83.72,326.46Zm29.62-40.16a2.69,2.69,0,0,0,0,5.37,2.69,2.69,0,1,0,0-5.37Zm0,4.91a2.23,2.23,0,1,1,2.24-2.23A2.23,2.23,0,0,1,113.34,291.21Zm-21.07,5.62a2.72,2.72,0,0,0-1.17.27h0l-1.24,1.25h0a2.59,2.59,0,0,0-.26,1.15,2.69,2.69,0,1,0,2.68-2.68Zm0,4.91a2.23,2.23,0,1,1,2.23-2.23A2.22,2.22,0,0,1,92.27,301.74Zm21.78,32,.56.1a.39.39,0,0,1,.1-.08l.24-.68A2.48,2.48,0,0,0,114.05,333.73Zm-7.49-22.12a2.68,2.68,0,1,0,2.7,2.68A2.68,2.68,0,0,0,106.56,311.61Zm0,4.89a2.22,2.22,0,0,1,0-4.43,2.22,2.22,0,1,1,0,4.43Zm15.24-44.23.31,0a2.66,2.66,0,0,0,1.55-.5A9.45,9.45,0,0,0,121.8,272.27Z" style="fill:#fff"></path><path d="M114.37,325.94c-7.31-1.95-27.28-6.66-40.66-8-.08,0-.15.29-.07.31,11,2.82,33.18,6.86,40.63,8.17C114.41,326.41,114.5,326,114.37,325.94Z" style="fill:#263238"></path><path d="M108.81,332.78c2,.19,4,.43,5.94.69l-.42.25q2.16-7.87,4.75-15.62c1.72-5.15,3.53-10.28,5.61-15.34-1.26,5.31-2.78,10.54-4.39,15.73S116.93,328.85,115,334l-.12.31-.29-.06C112.67,333.76,110.74,333.29,108.81,332.78Z" style="fill:#263238"></path><path d="M121.5,313.16a14.8,14.8,0,0,1,1.64-3,22.11,22.11,0,0,1,2.18-2.71,6,6,0,0,1-.57,1.66,10.65,10.65,0,0,1-.87,1.5A11.43,11.43,0,0,1,121.5,313.16Z" style="fill:#263238"></path><path d="M41.62,407.83c9.11,9.86,30.14,9.1,83.25,12.16,7.35.42,24.29-50.64,16.46-51.49-9.85-1.08-48.34-3.13-51.17-2.92C66.27,367.31,35.45,401.15,41.62,407.83Z" style="fill: rgb(255, 196, 192);"></path><path d="M130.66,367.55s22.37.32,34.07,4.12c15.67,5.09,27.1,15.94,31.61,20.78,9.43,10.09,25.24,41,17.13,47.11-7.35,5.53-21.91-26.89-21.91-26.89s20.3,30.6,10.24,35.64S177,414.74,177,414.74s20.16,31.91,9,35.46c-8.46,2.68-23.81-31.52-23.81-31.52s17.14,27.55,8.55,30.68c-9.48,3.46-25.63-27.22-25.63-27.22-23.16,4.28-35.94-3.15-44.4-9.52C98.59,411.08,130.66,367.55,130.66,367.55Z" style="fill: rgb(255, 196, 192);"></path><path d="M185.21,401.64c2.52,3.5,5.09,7,7.28,10.76s4.27,7.52,6.1,11.43c4.51,9.58,5.84,16.29,5.71,15.88-3-9.58-10.65-23-12.85-26.74s-4.19-7.54-6.38-11.26C185,401.62,185.15,401.55,185.21,401.64Z" style="fill:#263238"></path><path d="M171.64,409.32c3,4.62,6.18,9.09,9,13.84s5,9.47,7.51,14.38c.19.38-.08.36-.28,0-2.67-4.81-5.5-9-8.22-13.82s-5.25-9.66-8.13-14.32C171.48,409.31,171.59,409.25,171.64,409.32Z" style="fill:#263238"></path><path d="M158.8,413.81c5,6.83,8.68,14.56,12.14,22.23.17.38-.17.32-.37-.06-3.89-7.47-6.9-13.35-12-22C158.48,413.85,158.69,413.67,158.8,413.81Z" style="fill:#263238"></path><path d="M70.49,374c3.2-2.6,12.37-8.92,22.17-8.64.11,0,.13.15,0,.16-7.94.92-18.79,6.34-22.09,8.61A.08.08,0,0,1,70.49,374Z" style="fill:#263238"></path><path d="M130.05,270.41c.18,2.32,8.62,18.48,18.92,19.58,3.35.35,6.08-17.87,6.08-17.87l.51-1.3,7.12-18.19L142.74,235l-2.91-2.38s-1.62,5.11-3.57,11.49c-.09.29-.19.59-.28.9s-.24.7-.33,1c-.31,1-.61,1.92-.9,2.89-.22.74-.44,1.46-.64,2.24s-.42,1.55-.65,2.33C131.43,261.29,130,269.43,130.05,270.41Z" style="fill: rgb(255, 196, 192);"></path><path d="M136.26,244.13a39.19,39.19,0,0,0,19.3,26.69l7.12-18.19L142.74,235l-2.91-2.38S138.21,237.75,136.26,244.13Z" style="fill:#263238"></path><path d="M194.44,231c-4.51,34-25.38,35.12-32.71,34.13-6.65-.89-29.18-4.77-28.2-39s18.21-42.91,33.53-41.67S199,197,194.44,231Z" style="fill: rgb(255, 196, 192);"></path><path d="M189.56,227.31a22,22,0,0,1-2.18-.94,3.87,3.87,0,0,1-2-1.39,1.23,1.23,0,0,1,.3-1.46,3,3,0,0,1,3.07-.09,4.4,4.4,0,0,1,2.41,2.1A1.3,1.3,0,0,1,189.56,227.31Z" style="fill:#263238"></path><path d="M166.58,221.48a20.82,20.82,0,0,0,2.37,0,3.79,3.79,0,0,0,2.41-.47,1.22,1.22,0,0,0,.3-1.46,3,3,0,0,0-2.78-1.29,4.43,4.43,0,0,0-3,1A1.3,1.3,0,0,0,166.58,221.48Z" style="fill:#263238"></path><path d="M170.2,229c0-.09-.19.08-.21.17-.34,2.31-1.12,4.9-3.34,5.29a.07.07,0,0,0,0,.13C169.25,234.64,170.25,231.19,170.2,229Z" style="fill:#263238"></path><path d="M168.59,226.18c-3.65-1-5.27,6.41-1.9,7.29S171.64,227,168.59,226.18Z" style="fill:#263238"></path><path d="M167.06,226.25c-.74.27-1.53.87-2.32.77s-1.42-1-1.85-1.9c0-.09-.12,0-.14.06-.33,1.41-.11,3,1.35,3.52s2.61-.54,3.27-1.88C167.49,226.58,167.35,226.14,167.06,226.25Z" style="fill:#263238"></path><path d="M183.81,231.08c0-.08.15.15.13.24-.6,2.26-.9,5,1,6.17.06,0,0,.16-.05.13C182.45,236.69,182.88,233.13,183.81,231.08Z" style="fill:#263238"></path><path d="M186.38,229.17c3.73.56,2.33,8-1.12,7.45S183.26,228.7,186.38,229.17Z" style="fill:#263238"></path><path d="M187.84,230c.51.5.95,1.32,1.64,1.5s1.55-.48,2.21-1.15c.07-.07.12,0,.1.1-.22,1.42-1,2.81-2.38,2.83s-2-1.38-2-2.85C187.35,230.11,187.63,229.75,187.84,230Z" style="fill:#263238"></path><path d="M166.57,248.6c.4.67.74,1.54,1.54,1.83a6.22,6.22,0,0,0,2.58.09.08.08,0,0,1,.06.14,3.12,3.12,0,0,1-3.19.45,2.47,2.47,0,0,1-1.23-2.47C166.33,248.5,166.51,248.5,166.57,248.6Z" style="fill:#263238"></path><path d="M177.85,242.34s-.24,3.51-.58,5.12c0,.15-.43.14-1,0,0,0,0,0-.06,0a7.83,7.83,0,0,1-6.84-4.41.17.17,0,0,1,.29-.17,11.81,11.81,0,0,0,6.57,3.46c.21-.42.21-6,.47-6a14.23,14.23,0,0,1,3.48,1.59c.72-7.3.26-14.65,1.08-21.91a.22.22,0,0,1,.44,0c1,7.68.39,16.1-.15,23.65C181.5,244.65,178.44,242.74,177.85,242.34Z" style="fill:#263238"></path><path d="M142.8,189.81c-1.16,2.69-16.61,4.54-23.41-5.89-6.7-10.28,2.17-22.93,14.46-16.9C141.62,170.84,145.25,184.11,142.8,189.81Z" style="fill:#263238"></path><path d="M119.18,169.79a17.18,17.18,0,0,1,10-5.33A10.35,10.35,0,0,1,138.9,168c2.46,2.77,3.73,6.5,4.41,10.26a31.74,31.74,0,0,1,.42,5.78,15.84,15.84,0,0,1-.93,5.77,14,14,0,0,0,2-5.68A25.82,25.82,0,0,0,145,178a20.2,20.2,0,0,0-4.44-11.47,11.53,11.53,0,0,0-11.69-3.78A15.15,15.15,0,0,0,119.18,169.79Z" style="fill:#263238"></path><path d="M135.22,227.55c6,2.47,11.44-11.35,11.44-11.35s27.7,2.66,35.77-18.3c0,0,.83,15,13,24.94,0,0,5.46-23.9-12-33.55,0,0-21-14.74-39,.19S131.19,225.9,135.22,227.55Z" style="fill:#263238"></path><path d="M183,196.33a24.39,24.39,0,0,1-3.84,9.53,25.39,25.39,0,0,1-7.35,7.36,22.18,22.18,0,0,1-2.27,1.3l-1.15.63c-.4.17-.81.32-1.22.48-.82.3-1.62.64-2.45.9s-1.69.41-2.53.6c-.43.09-.85.2-1.27.27l-1.29.14-2.57.27c-1.72,0-3.44-.06-5.14-.16,1.7-.26,3.4-.33,5.06-.6l2.49-.48,1.23-.23c.41-.11.8-.25,1.2-.37.8-.26,1.6-.5,2.4-.73s1.53-.65,2.29-1l1.15-.49,1.08-.6a21.9,21.9,0,0,0,2.14-1.27,29,29,0,0,0,7.23-6.75,30.61,30.61,0,0,0,2.73-4.21A29.21,29.21,0,0,0,183,196.33Z" style="fill:#263238"></path><path d="M133.46,204.91l-2.78,2.38,6.83,11.54,6.1-5.43Zm4.69,10.5-5-7.39.64-.57,6.53,6.09Z" style="fill:#FF725E"></path><path d="M136.15,199.75,134.48,203l10.67,8.11,3.61-7.33Zm8.31,8-7.39-5,.37-.77,8.34,3.18Z" style="fill:#FF725E"></path><path d="M138.58,229.38s-5-12.07-10.3-10.52-3.19,17.92,1.91,21.23a5.8,5.8,0,0,0,8.26-1.36Z" style="fill: rgb(255, 196, 192);"></path><path d="M129,223.54c-.09,0-.13.09-.06.14,3.55,2.45,4.8,6.52,5.4,10.59-.84-1.7-2.24-2.84-4.48-1.89-.12.05-.06.23.06.23a3.59,3.59,0,0,1,3.56,2.07,17.14,17.14,0,0,1,1.14,3.51c.11.39.78.34.74-.09,0,0,0-.07,0-.1C136.56,233.05,134.24,225.23,129,223.54Z" style="fill:#263238"></path></g><g id="freepik--Padlock--inject-64"><path d="M289.74,90.7v28h-7.91v-28c0-10.64-8.08-19.29-18-19.29s-18,8.65-18,19.29v28h-7.91v-28c0-15.24,11.63-27.63,25.93-27.63S289.74,75.46,289.74,90.7Z" style="fill:#c7c7c7"></path><polygon points="237.88 97.97 245.79 98.29 245.79 118.68 237.88 118.68 237.88 97.97" style="fill:#a6a6a6"></polygon><polygon points="289.74 100.08 289.74 118.68 281.83 118.68 281.83 99.76 289.74 100.08" style="fill:#a6a6a6"></polygon><rect x="227.75" y="102.75" width="72.12" height="65.43" style="fill:#FF725E"></rect><rect x="263.81" y="102.75" width="36.06" height="65.43" style="opacity:0.1"></rect><path d="M266.86,137.86l3,14.32H257.07l3-14.32a6.41,6.41,0,1,1,6.77,0Z" style="fill:#263238"></path></g></svg>