<svg xmlns="http://www.w3.org/2000/svg" width="336.11" height="295.221" viewBox="0 0 336.11 295.221">
  <g id="_4752197" data-name="4752197" transform="translate(0.04 0.04)">
    <g id="Background_Complete" data-name="Background Complete" transform="translate(24.396 -0.04)">
      <rect id="Rectangle_1459" data-name="Rectangle 1459" width="34.725" height="110.059" transform="translate(54.058 24.61)" fill="#f5f5f5"/>
      <rect id="Rectangle_1460" data-name="Rectangle 1460" width="17.363" height="109.757" transform="translate(71.421 24.61)" fill="#ebebeb"/>
      <rect id="Rectangle_1461" data-name="Rectangle 1461" width="12.262" height="10.804" transform="translate(58.024 13.806)" fill="#f5f5f5"/>
      <rect id="Rectangle_1462" data-name="Rectangle 1462" width="2.924" height="10.804" transform="translate(67.362 13.806)" fill="#ebebeb"/>
      <path id="Path_52" data-name="Path 52" d="M105.2,33.975V33.35h38.64v.625" transform="translate(-54.037 -9.364)" fill="#e0e0e0"/>
      <rect id="Rectangle_1463" data-name="Rectangle 1463" width="2.938" height="6.199" transform="translate(60.911 29.323)" fill="#fafafa"/>
      <path id="Path_53" data-name="Path 53" d="M144.383,101.375c0,.065-3.886.122-8.685.122s-8.678-.057-8.678-.122,3.886-.115,8.678-.115S144.383,101.31,144.383,101.375Z" transform="translate(-72.962 -63.417)" fill="#e0e0e0"/>
      <rect id="Rectangle_1464" data-name="Rectangle 1464" width="2.938" height="6.199" transform="translate(78.425 29.323)" fill="#e0e0e0"/>
      <path id="Path_54" data-name="Path 54" d="M168.763,101.375c0,.065-3.886.122-8.678.122s-8.685-.057-8.685-.122,3.886-.115,8.685-.115S168.763,101.31,168.763,101.375Z" transform="translate(-79.828 -63.417)" fill="#e0e0e0"/>
      <rect id="Rectangle_1465" data-name="Rectangle 1465" width="2.938" height="6.199" transform="translate(78.425 41.635)" fill="#e0e0e0"/>
      <path id="Path_55" data-name="Path 55" d="M168.763,118.5c0,.065-3.886.122-8.678.122s-8.685-.057-8.685-.122,3.886-.115,8.685-.115S168.763,118.44,168.763,118.5Z" transform="translate(-79.828 -68.242)" fill="#e0e0e0"/>
      <rect id="Rectangle_1466" data-name="Rectangle 1466" width="2.938" height="6.199" transform="translate(78.425 54.307)" fill="#e0e0e0"/>
      <path id="Path_56" data-name="Path 56" d="M168.763,136.155c0,.065-3.886.115-8.678.115s-8.685-.05-8.685-.115,3.886-.115,8.685-.115S168.763,136.09,168.763,136.155Z" transform="translate(-79.828 -73.213)" fill="#e0e0e0"/>
      <rect id="Rectangle_1467" data-name="Rectangle 1467" width="2.938" height="6.199" transform="translate(78.425 66.986)" fill="#e0e0e0"/>
      <path id="Path_57" data-name="Path 57" d="M168.763,153.8c0,.065-3.886.115-8.678.115s-8.685-.05-8.685-.115,3.886-.122,8.685-.122S168.763,153.737,168.763,153.8Z" transform="translate(-79.828 -78.181)" fill="#e0e0e0"/>
      <rect id="Rectangle_1468" data-name="Rectangle 1468" width="2.938" height="6.199" transform="translate(78.425 79.299)" fill="#e0e0e0"/>
      <path id="Path_58" data-name="Path 58" d="M168.763,170.955c0,.065-3.886.122-8.678.122s-8.685-.057-8.685-.122,3.886-.115,8.685-.115S168.763,170.883,168.763,170.955Z" transform="translate(-79.828 -83.014)" fill="#e0e0e0"/>
      <rect id="Rectangle_1469" data-name="Rectangle 1469" width="2.938" height="6.199" transform="translate(78.425 91.669)" fill="#e0e0e0"/>
      <rect id="Rectangle_1470" data-name="Rectangle 1470" width="2.938" height="6.199" transform="translate(78.425 104.19)" fill="#e0e0e0"/>
      <path id="Path_59" data-name="Path 59" d="M168.763,188.155c0,.065-3.886.122-8.678.122s-8.685-.057-8.685-.122,3.886-.115,8.685-.115S168.763,188.09,168.763,188.155Z" transform="translate(-79.828 -87.859)" fill="#e0e0e0"/>
      <rect id="Rectangle_1471" data-name="Rectangle 1471" width="2.938" height="6.199" transform="translate(60.911 41.822)" fill="#fafafa"/>
      <path id="Path_60" data-name="Path 60" d="M144.377,118.765c0,.065-3.886.122-8.685.122S127,118.83,127,118.765s3.886-.115,8.678-.115S144.377,118.7,144.377,118.765Z" transform="translate(-72.956 -68.315)" fill="#e0e0e0"/>
      <rect id="Rectangle_1472" data-name="Rectangle 1472" width="2.938" height="6.199" transform="translate(60.911 54.314)" fill="#fafafa"/>
      <path id="Path_61" data-name="Path 61" d="M144.377,136.162c0,.065-3.886.115-8.685.115s-8.692-.05-8.692-.115,3.886-.122,8.678-.122S144.377,136.1,144.377,136.162Z" transform="translate(-72.956 -73.213)" fill="#e0e0e0"/>
      <rect id="Rectangle_1473" data-name="Rectangle 1473" width="2.938" height="6.199" transform="translate(60.911 66.807)" fill="#fafafa"/>
      <path id="Path_62" data-name="Path 62" d="M144.377,153.552c0,.065-3.886.115-8.685.115s-8.692-.05-8.692-.115,3.886-.122,8.678-.122S144.377,153.487,144.377,153.552Z" transform="translate(-72.956 -78.111)" fill="#e0e0e0"/>
      <rect id="Rectangle_1474" data-name="Rectangle 1474" width="2.938" height="6.199" transform="translate(60.911 79.299)" fill="#fafafa"/>
      <path id="Path_63" data-name="Path 63" d="M144.377,170.955c0,.065-3.886.122-8.685.122s-8.692-.065-8.692-.122,3.886-.115,8.678-.115S144.377,170.883,144.377,170.955Z" transform="translate(-72.956 -83.014)" fill="#e0e0e0"/>
      <rect id="Rectangle_1475" data-name="Rectangle 1475" width="2.938" height="6.199" transform="translate(60.911 91.798)" fill="#fafafa"/>
      <path id="Path_64" data-name="Path 64" d="M144.383,188.335c0,.065-3.886.122-8.685.122s-8.678-.057-8.678-.122,3.886-.115,8.678-.115S144.383,188.27,144.383,188.335Z" transform="translate(-72.962 -87.91)" fill="#e0e0e0"/>
      <rect id="Rectangle_1476" data-name="Rectangle 1476" width="2.938" height="6.199" transform="translate(60.911 104.29)" fill="#fafafa"/>
      <rect id="Rectangle_1477" data-name="Rectangle 1477" width="34.725" height="110.059" transform="translate(181.243 47.95)" fill="#f5f5f5"/>
      <rect id="Rectangle_1478" data-name="Rectangle 1478" width="17.363" height="109.757" transform="translate(198.605 47.95)" fill="#ebebeb"/>
      <rect id="Rectangle_1479" data-name="Rectangle 1479" width="12.262" height="10.804" transform="translate(185.208 37.146)" fill="#f5f5f5"/>
      <rect id="Rectangle_1480" data-name="Rectangle 1480" width="2.924" height="10.804" transform="translate(194.547 37.146)" fill="#ebebeb"/>
      <path id="Path_65" data-name="Path 65" d="M282.25,66.462V65.83h38.64v.632" transform="translate(-103.902 -18.512)" fill="#e0e0e0"/>
      <rect id="Rectangle_1481" data-name="Rectangle 1481" width="2.938" height="6.199" transform="translate(188.096 52.662)" fill="#fafafa"/>
      <path id="Path_66" data-name="Path 66" d="M321.43,133.862c0,.065-3.886.115-8.685.115s-8.685-.05-8.685-.115,3.893-.122,8.685-.122S321.43,133.8,321.43,133.862Z" transform="translate(-122.825 -72.565)" fill="#e0e0e0"/>
      <rect id="Rectangle_1482" data-name="Rectangle 1482" width="2.938" height="6.199" transform="translate(205.609 52.662)" fill="#e0e0e0"/>
      <path id="Path_67" data-name="Path 67" d="M345.813,133.862c0,.065-3.886.115-8.685.115s-8.678-.05-8.678-.115,3.886-.122,8.678-.122S345.813,133.8,345.813,133.862Z" transform="translate(-129.694 -72.565)" fill="#e0e0e0"/>
      <rect id="Rectangle_1483" data-name="Rectangle 1483" width="2.938" height="6.199" transform="translate(205.609 64.968)" fill="#e0e0e0"/>
      <path id="Path_68" data-name="Path 68" d="M345.813,150.952c0,.065-3.886.115-8.685.115s-8.678-.05-8.678-.115,3.886-.122,8.678-.122S345.813,150.952,345.813,150.952Z" transform="translate(-129.694 -77.379)" fill="#e0e0e0"/>
      <rect id="Rectangle_1484" data-name="Rectangle 1484" width="2.938" height="6.199" transform="translate(205.609 77.646)" fill="#e0e0e0"/>
      <path id="Path_69" data-name="Path 69" d="M345.813,168.642c0,.065-3.886.115-8.685.115s-8.678-.05-8.678-.115,3.886-.122,8.678-.122S345.813,168.577,345.813,168.642Z" transform="translate(-129.694 -82.361)" fill="#e0e0e0"/>
      <rect id="Rectangle_1485" data-name="Rectangle 1485" width="2.938" height="6.199" transform="translate(205.609 90.325)" fill="#e0e0e0"/>
      <path id="Path_70" data-name="Path 70" d="M345.813,186.285c0,.072-3.886.122-8.685.122s-8.678-.05-8.678-.122,3.886-.115,8.678-.115S345.813,186.22,345.813,186.285Z" transform="translate(-129.694 -87.332)" fill="#e0e0e0"/>
      <rect id="Rectangle_1486" data-name="Rectangle 1486" width="2.938" height="6.199" transform="translate(205.609 102.638)" fill="#e0e0e0"/>
      <path id="Path_71" data-name="Path 71" d="M345.813,203.432c0,.065-3.886.115-8.685.115s-8.678-.05-8.678-.115,3.886-.122,8.678-.122S345.813,203.367,345.813,203.432Z" transform="translate(-129.694 -92.16)" fill="#e0e0e0"/>
      <rect id="Rectangle_1487" data-name="Rectangle 1487" width="2.938" height="6.199" transform="translate(205.609 115.001)" fill="#e0e0e0"/>
      <rect id="Rectangle_1488" data-name="Rectangle 1488" width="2.938" height="6.199" transform="translate(205.609 127.529)" fill="#e0e0e0"/>
      <path id="Path_72" data-name="Path 72" d="M345.813,220.645c0,.065-3.886.115-8.685.115s-8.678-.05-8.678-.115,3.886-.115,8.678-.115S345.813,220.58,345.813,220.645Z" transform="translate(-129.694 -97.01)" fill="#e0e0e0"/>
      <rect id="Rectangle_1489" data-name="Rectangle 1489" width="2.938" height="6.199" transform="translate(188.096 65.154)" fill="#fafafa"/>
      <path id="Path_73" data-name="Path 73" d="M321.43,151.255c0,.065-3.886.115-8.685.115s-8.685-.05-8.685-.115,3.893-.115,8.685-.115S321.43,151.19,321.43,151.255Z" transform="translate(-122.825 -77.466)" fill="#e0e0e0"/>
      <rect id="Rectangle_1490" data-name="Rectangle 1490" width="2.938" height="6.199" transform="translate(188.096 77.654)" fill="#fafafa"/>
      <path id="Path_74" data-name="Path 74" d="M321.43,168.645c0,.065-3.886.122-8.685.122s-8.685-.057-8.685-.122,3.893-.115,8.685-.115S321.43,168.58,321.43,168.645Z" transform="translate(-122.825 -82.364)" fill="#e0e0e0"/>
      <rect id="Rectangle_1491" data-name="Rectangle 1491" width="2.938" height="6.199" transform="translate(188.096 90.146)" fill="#fafafa"/>
      <path id="Path_75" data-name="Path 75" d="M321.43,186.035c0,.072-3.886.122-8.685.122s-8.685-.05-8.685-.122,3.893-.115,8.685-.115S321.43,185.977,321.43,186.035Z" transform="translate(-122.825 -87.262)" fill="#e0e0e0"/>
      <rect id="Rectangle_1492" data-name="Rectangle 1492" width="2.938" height="6.199" transform="translate(188.096 102.638)" fill="#fafafa"/>
      <path id="Path_76" data-name="Path 76" d="M321.43,203.432c0,.065-3.886.115-8.685.115s-8.685-.05-8.685-.115,3.893-.122,8.685-.122S321.43,203.367,321.43,203.432Z" transform="translate(-122.825 -92.16)" fill="#e0e0e0"/>
      <rect id="Rectangle_1493" data-name="Rectangle 1493" width="2.938" height="6.199" transform="translate(188.096 115.13)" fill="#fafafa"/>
      <path id="Path_77" data-name="Path 77" d="M321.43,220.825c0,.065-3.886.115-8.685.115s-8.685-.05-8.685-.115,3.893-.115,8.685-.115S321.43,220.76,321.43,220.825Z" transform="translate(-122.825 -97.06)" fill="#e0e0e0"/>
      <rect id="Rectangle_1494" data-name="Rectangle 1494" width="2.938" height="6.199" transform="translate(188.096 127.629)" fill="#fafafa"/>
      <rect id="Rectangle_1495" data-name="Rectangle 1495" width="56.233" height="74.163" transform="translate(203.095 90.656)" fill="#ebebeb"/>
      <rect id="Rectangle_1496" data-name="Rectangle 1496" width="26.364" height="74.163" transform="translate(232.964 90.656)" fill="#e0e0e0"/>
      <rect id="Rectangle_1497" data-name="Rectangle 1497" width="5.057" height="12.284" transform="translate(214.883 100.691)" fill="#f5f5f5"/>
      <rect id="Rectangle_1498" data-name="Rectangle 1498" width="5.057" height="12.284" transform="translate(214.883 148.771)" fill="#f5f5f5"/>
      <path id="Path_78" data-name="Path 78" d="M364.352,212.471c0,.136-6.681.244-14.927.244s-14.935-.108-14.935-.244,6.681-.251,14.935-.251S364.352,212.328,364.352,212.471Z" transform="translate(-131.395 -94.669)" fill="#f5f5f5"/>
      <rect id="Rectangle_1499" data-name="Rectangle 1499" width="5.057" height="12.284" transform="translate(214.883 124.914)" fill="#f5f5f5"/>
      <path id="Path_79" data-name="Path 79" d="M364.352,246.181c0,.137-6.681.251-14.927.251s-14.935-.115-14.935-.251,6.681-.251,14.935-.251S364.352,246.045,364.352,246.181Z" transform="translate(-131.395 -104.163)" fill="#f5f5f5"/>
      <rect id="Rectangle_1500" data-name="Rectangle 1500" width="5.057" height="12.284" transform="translate(238.56 100.691)" fill="#f5f5f5"/>
      <rect id="Rectangle_1501" data-name="Rectangle 1501" width="5.057" height="12.284" transform="translate(249.529 100.691)" fill="#f5f5f5"/>
      <rect id="Rectangle_1502" data-name="Rectangle 1502" width="5.057" height="12.284" transform="translate(238.56 124.002)" fill="#f5f5f5"/>
      <rect id="Rectangle_1503" data-name="Rectangle 1503" width="5.057" height="12.284" transform="translate(249.529 124.002)" fill="#f5f5f5"/>
      <rect id="Rectangle_1504" data-name="Rectangle 1504" width="5.057" height="12.284" transform="translate(238.56 147.312)" fill="#f5f5f5"/>
      <rect id="Rectangle_1505" data-name="Rectangle 1505" width="5.057" height="12.284" transform="translate(249.529 147.312)" fill="#f5f5f5"/>
      <rect id="Rectangle_1506" data-name="Rectangle 1506" width="64.688" height="2.672" transform="translate(198.871 88.07)" fill="#e0e0e0"/>
      <path id="Path_80" data-name="Path 80" d="M391.3,175.161c0,.137-12.564.244-28.066.244s-28.073-.108-28.073-.244,12.571-.251,28.073-.251S391.3,175.018,391.3,175.161Z" transform="translate(-131.584 -84.161)" fill="#ebebeb"/>
      <path id="Path_81" data-name="Path 81" d="M119.516,199.794h-51.1L68.19,119.03h51.1Z" transform="translate(-43.613 -33.496)" fill="#ebebeb"/>
      <rect id="Rectangle_1507" data-name="Rectangle 1507" width="25.552" height="80.764" transform="translate(50.129 85.534)" fill="#e0e0e0"/>
      <rect id="Rectangle_1508" data-name="Rectangle 1508" width="18.045" height="15.897" transform="translate(30.41 69.637)" fill="#ebebeb"/>
      <rect id="Rectangle_1509" data-name="Rectangle 1509" width="4.303" height="15.897" transform="translate(44.159 69.637)" fill="#e0e0e0"/>
      <rect id="Rectangle_1510" data-name="Rectangle 1510" width="56.858" height="0.927" transform="translate(20.317 84.607)" fill="#e0e0e0"/>
      <rect id="Rectangle_1511" data-name="Rectangle 1511" width="4.324" height="9.123" transform="translate(34.663 92.473)" fill="#fff"/>
      <path id="Path_82" data-name="Path 82" d="M111.537,194.932c0,.093-5.747.172-12.779.172S86,195.019,86,194.932s5.747-.172,12.772-.172S111.537,194.825,111.537,194.932Z" transform="translate(-61.409 -89.752)" fill="#e0e0e0"/>
      <rect id="Rectangle_1512" data-name="Rectangle 1512" width="4.324" height="9.123" transform="translate(60.437 92.473)" fill="#f5f5f5"/>
      <path id="Path_83" data-name="Path 83" d="M147.412,194.932c0,.093-5.747.172-12.779.172s-12.772-.079-12.772-.172,5.747-.172,12.772-.172S147.412,194.825,147.412,194.932Z" transform="translate(-71.508 -89.752)" fill="#ebebeb"/>
      <rect id="Rectangle_1513" data-name="Rectangle 1513" width="4.324" height="9.123" transform="translate(60.437 110.576)" fill="#f5f5f5"/>
      <path id="Path_84" data-name="Path 84" d="M147.412,220.13c0,.093-5.747.172-12.779.172s-12.772-.079-12.772-.172,5.747-.18,12.772-.18S147.412,220.029,147.412,220.13Z" transform="translate(-71.508 -96.846)" fill="#ebebeb"/>
      <rect id="Rectangle_1514" data-name="Rectangle 1514" width="4.324" height="9.123" transform="translate(60.437 129.231)" fill="#f5f5f5"/>
      <path id="Path_85" data-name="Path 85" d="M147.412,246.1c0,.093-5.747.172-12.779.172s-12.772-.079-12.772-.172,5.747-.18,12.772-.18S147.412,245.977,147.412,246.1Z" transform="translate(-71.508 -104.161)" fill="#ebebeb"/>
      <rect id="Rectangle_1515" data-name="Rectangle 1515" width="4.324" height="9.123" transform="translate(60.437 147.887)" fill="#f5f5f5"/>
      <path id="Path_86" data-name="Path 86" d="M147.412,272.07c0,.093-5.747.172-12.779.172s-12.772-.079-12.772-.172,5.747-.18,12.772-.18S147.412,271.969,147.412,272.07Z" transform="translate(-71.508 -111.475)" fill="#ebebeb"/>
      <rect id="Rectangle_1516" data-name="Rectangle 1516" width="4.324" height="9.123" transform="translate(34.663 110.856)" fill="#fff"/>
      <path id="Path_87" data-name="Path 87" d="M111.537,220.512c0,.1-5.747.172-12.779.172S86,220.613,86,220.512s5.747-.172,12.772-.172S111.537,220.419,111.537,220.512Z" transform="translate(-61.409 -96.956)" fill="#e0e0e0"/>
      <rect id="Rectangle_1517" data-name="Rectangle 1517" width="4.324" height="9.123" transform="translate(34.663 129.239)" fill="#fff"/>
      <path id="Path_88" data-name="Path 88" d="M111.537,246.1c0,.1-5.747.18-12.779.18S86,246.2,86,246.1s5.747-.172,12.772-.172S111.537,245.98,111.537,246.1Z" transform="translate(-61.409 -104.163)" fill="#e0e0e0"/>
      <rect id="Rectangle_1518" data-name="Rectangle 1518" width="4.324" height="9.123" transform="translate(34.663 147.628)" fill="#fff"/>
      <path id="Path_89" data-name="Path 89" d="M111.537,271.7c0,.093-5.747.172-12.779.172S86,271.8,86,271.7s5.747-.172,12.772-.172S111.537,271.6,111.537,271.7Z" transform="translate(-61.409 -111.374)" fill="#e0e0e0"/>
      <path id="Path_90" data-name="Path 90" d="M425.311,141.614c.273-1.968-2.5-3.592-4.583-3.75a11.983,11.983,0,0,1-2.967-.251c-2.033-.718-2.873-3.348-4.835-4.181-1.487-.632-3.2-.072-4.641.654s-2.873,1.638-4.475,1.738c-1.437.093-2.924-.431-4.145.259-.912.51-1.394,1.559-2.234,2.155a5.373,5.373,0,0,1-2.916.79,8.125,8.125,0,0,0-3.01.488A2.371,2.371,0,0,0,390,141.93Z" transform="translate(-147.026 -72.401)" fill="#f5f5f5"/>
      <path id="Path_91" data-name="Path 91" d="M297.127,61.812c.424-3.067-3.915-5.6-7.183-5.862-1.552-.122-3.168.115-4.633-.4-3.189-1.113-4.468-5.237-7.579-6.551-2.327-.977-5.028-.108-7.262,1.027s-4.483,2.565-7,2.73c-2.155.136-4.576-.675-6.465.4-1.437.8-2.155,2.45-3.491,3.419a8.284,8.284,0,0,1-4.569,1.236,13.009,13.009,0,0,0-4.712.769,3.719,3.719,0,0,0-2.356,3.779Z" transform="translate(-105.296 -48.58)" fill="#ebebeb"/>
      <path id="Path_92" data-name="Path 92" d="M95.9,122.062c.338-2.45-3.118-4.468-5.747-4.676a14.755,14.755,0,0,1-3.7-.316c-2.543-.891-3.592-4.174-6.034-5.222-1.861-.783-3.994-.086-5.79.819s-3.592,2.047-5.589,2.155c-1.746.108-3.642-.539-5.172.316-1.142.632-1.738,1.947-2.787,2.723a6.566,6.566,0,0,1-3.642.984,10.344,10.344,0,0,0-3.757.618,2.964,2.964,0,0,0-1.875,3.01Z" transform="translate(-51.767 -66.304)" fill="#f5f5f5"/>
    </g>
    <g id="Locations" transform="translate(27.23 95.197)">
      <path id="Path_93" data-name="Path 93" d="M71.959,201.408A15.344,15.344,0,0,0,59.869,225.7h0l.144.208h0l10.869,14.777a2.335,2.335,0,0,0,3.814-.079l9.82-14.6a16.648,16.648,0,0,0,3.132-9.288,15.344,15.344,0,0,0-15.689-15.308Zm.366,26.5a11.537,11.537,0,1,1,11.537-11.537A11.537,11.537,0,0,1,72.325,227.908Z" transform="translate(-56.07 -186.859)" fill="#ff725e"/>
      <g id="Group_1" data-name="Group 1" transform="translate(0.915 14.545)" opacity="0.3">
        <path id="Path_94" data-name="Path 94" d="M71.959,201.408A15.344,15.344,0,0,0,59.869,225.7h0l.144.208h0l10.869,14.777a2.335,2.335,0,0,0,3.814-.079l9.82-14.6a16.648,16.648,0,0,0,3.132-9.288,15.344,15.344,0,0,0-15.689-15.308Zm.366,26.5a11.537,11.537,0,1,1,11.537-11.537A11.537,11.537,0,0,1,72.325,227.908Z" transform="translate(-56.985 -201.405)"/>
      </g>
      <path id="Path_95" data-name="Path 95" d="M70.7,201.408a15.394,15.394,0,0,0-14.978,14.963,15.215,15.215,0,0,0,2.873,9.339h0l.151.208h0L69.6,240.7a2.335,2.335,0,0,0,3.843-.072l9.82-14.6a16.593,16.593,0,0,0,3.132-9.288,15.344,15.344,0,0,0-15.7-15.322Zm.359,24.424a8.732,8.732,0,1,0,0-.007Z" transform="translate(-55.711 -186.859)" fill="#ff725e"/>
      <path id="Path_96" data-name="Path 96" d="M408.376,181.159a11.695,11.695,0,0,0-9.238,18.519h0l.115.158h0l8.283,11.257a1.774,1.774,0,0,0,2.873-.057l7.485-11.127a12.685,12.685,0,0,0,2.392-7.076,11.7,11.7,0,0,0-11.91-11.673Zm.28,20.2a8.793,8.793,0,1,1,6.228-2.585,8.793,8.793,0,0,1-6.228,2.585Z" transform="translate(-151.817 -181.157)" fill="#ff725e"/>
      <g id="Group_2" data-name="Group 2" transform="translate(245.121 0.001)" opacity="0.3">
        <path id="Path_97" data-name="Path 97" d="M408.376,181.159a11.695,11.695,0,0,0-9.238,18.519h0l.115.158h0l8.283,11.257a1.774,1.774,0,0,0,2.873-.057l7.485-11.127a12.685,12.685,0,0,0,2.392-7.076,11.7,11.7,0,0,0-11.91-11.673Zm.28,20.2a8.793,8.793,0,1,1,6.228-2.585,8.793,8.793,0,0,1-6.228,2.585Z" transform="translate(-396.938 -181.157)"/>
      </g>
      <path id="Path_98" data-name="Path 98" d="M407.424,181.159a11.695,11.695,0,0,0-9.216,18.519h0l.108.158h0l8.275,11.257a1.782,1.782,0,0,0,2.909-.057l7.485-11.127a12.679,12.679,0,0,0,2.385-7.076,11.695,11.695,0,0,0-11.946-11.673Zm.273,18.613a6.652,6.652,0,1,1,4.711-1.948,6.659,6.659,0,0,1-4.711,1.948Z" transform="translate(-151.555 -181.156)" fill="#ff725e"/>
    </g>
    <g id="Map" transform="translate(-0.04 150.268)">
      <path id="Path_99" data-name="Path 99" d="M51.6,223.869.3,351.276l96.2-15.818,70.542,15.818L239.3,335.458l96.626,18.433L284.193,223.869l-57.72-14.539-58.359,11.12L108.47,209.33Z" transform="translate(-0.056 -209.237)" fill="#fff"/>
      <path id="Path_100" data-name="Path 100" d="M69.3,272.453l.941-.251,2.809-.718,11.005-2.837,42.088-10.775h.036L185.8,268.954h-.05L244.11,257.82h.1l57.712,14.5h.086v.079l51.721,130.022.129.316-.338-.065-49.7-9.482L256.9,384.236h.079l-72.259,15.8h-.043l-70.542-15.8h.057l-96.2,15.8-.237.036.093-.223c15.868-39.337,28.734-71.189,37.6-93.206L65.686,281.31l2.665-6.58c.6-1.48.919-2.234.919-2.234s-.295.769-.891,2.263l-2.644,6.609L55.586,306.7,18.124,399.91l-.151-.187,96.216-15.847h.065l70.542,15.8h-.072l72.252-15.8h.036l46.923,8.951,49.7,9.482-.208.251L301.708,272.539l.115.1L244.11,258.086h.1l-58.38,11.07h-.05l-59.623-11.149h0L84.111,268.725l-11.027,2.794-2.823.718Z" transform="translate(-17.75 -257.82)" fill="#263238"/>
      <path id="Path_101" data-name="Path 101" d="M58.121,229.134,12.8,346.706,99.591,332.6l72.044,16.673,71.182-17.1,88.5,17.1-46.6-120.137L230.849,215.88l-59.214,11.113-60.5-11.113Z" transform="translate(-3.576 -211.081)" fill="#fff"/>
      <path id="Path_102" data-name="Path 102" d="M19.81,343.531l68.983-15.976L86.25,312.692l5.732-3.606-8.922-34.7L55.476,251Z" transform="translate(-5.551 -220.973)" fill="#455a64"/>
      <path id="Path_103" data-name="Path 103" d="M12.8,384.042l3.362-8.728L131.831,348.44l6.286,17.291-2.04,3.5-21.723,4.123-14.762-3.419Z" transform="translate(-3.576 -248.417)" fill="#ebebeb"/>
      <path id="Path_104" data-name="Path 104" d="M187.25,339.927l4.583,17.1,13.325,5.79,18.95-8.419,39.761-11.587L251.464,324.13Z" transform="translate(-52.71 -241.57)" fill="#ebebeb"/>
      <path id="Path_105" data-name="Path 105" d="M121.9,347.634l21.493-4.669L139.107,329l-15.66,3.786-4.166,2.945Z" transform="translate(-33.566 -242.941)" fill="#e0e0e0"/>
      <path id="Path_106" data-name="Path 106" d="M116.82,290.51l7.808,25.609,12.19-2.687-2.2-9.834,26.83-6.013Z" transform="translate(-32.873 -232.101)" fill="#455a64"/>
      <path id="Path_107" data-name="Path 107" d="M72.29,235.843l33.755,27.1,44.811,8.5,47.806-11.889-21.824-34.682-48.949-8.994L74.876,229.134Z" transform="translate(-20.332 -211.081)" fill="#ebebeb"/>
      <path id="Path_108" data-name="Path 108" d="M226.92,230.07,297,337.636l6.128-1.473L235.3,230.357l-3.362.632Z" transform="translate(-63.883 -215.078)" fill="#ebebeb"/>
      <path id="Path_109" data-name="Path 109" d="M147.88,304.991l8.886,25.818,78.825-20.135L221,285.84Z" transform="translate(-41.621 -230.785)" fill="#e0e0e0"/>
      <path id="Path_110" data-name="Path 110" d="M208.93,384.285l.769-1.142,5.179-7.694L227.3,371.5l8.548-6.436,37.045-10.122L284.4,374.616l-57.526,13.821" transform="translate(-58.816 -250.247)" fill="#e0e0e0"/>
      <path id="Path_111" data-name="Path 111" d="M300.29,218.042l18.569,20.653,46.829-9.561L311.82,215.88Z" transform="translate(-84.547 -211.081)" fill="#e0e0e0"/>
      <path id="Path_112" data-name="Path 112" d="M384.757,260.924l-34.395,9.561L333,247.491l43.08-8.951Z" transform="translate(-93.76 -217.464)" fill="#e0e0e0"/>
      <path id="Path_113" data-name="Path 113" d="M243.71,226.857l36.061,51.808,41.621-11.946L279.771,220.09Z" transform="translate(-68.612 -212.267)" fill="#ebebeb"/>
      <path id="Path_114" data-name="Path 114" d="M384.06,381.239l41.621-16.3,10.2,26.313Z" transform="translate(-108.141 -253.064)" fill="#e0e0e0"/>
      <path id="Path_115" data-name="Path 115" d="M323.48,295l22.607-5.891,23.885,28.655-23.246,7.722Z" transform="translate(-91.079 -231.706)" fill="#455a64"/>
      <path id="Path_116" data-name="Path 116" d="M362.05,282.06,387.207,310.9l18.95-6.357L393.7,272.42Z" transform="translate(-101.942 -227.006)" fill="#e0e0e0"/>
      <path id="Path_117" data-name="Path 117" d="M380.835,362.354,362.05,336.292l45.414-14.482,9.231,23.8-5.919,5.955Z" transform="translate(-101.942 -240.916)" fill="#455a64"/>
      <path id="Path_118" data-name="Path 118" d="M296.99,305.035l34.524,52.354,21.256,4.31,4.008-1.839L313.038,300.2Z" transform="translate(-83.618 -234.83)" fill="#e0e0e0"/>
      <path id="Path_119" data-name="Path 119" d="M77.436,345.383,68.83,304.94l-30.329,5.3L19.81,358.723Z" transform="translate(-5.551 -236.165)" fill="#e0e0e0"/>
      <path id="Path_120" data-name="Path 120" d="M120.1,218.59V237.1l6.487.826,18.131,21.12,15.588-1.789,7.421,10.754-16.874,4.2-44.811-8.5-33.755-27.1,2.586-6.709Z" transform="translate(-20.332 -211.845)" fill="#455a64"/>
      <path id="Path_121" data-name="Path 121" d="M270.8,223.366l25.466,37.16L318.2,254.6l-30.8-34.51Z" transform="translate(-76.241 -212.267)" fill="#e0e0e0"/>
      <path id="Path_122" data-name="Path 122" d="M371.259,269.68l-9.209-14.4,24.912-7.047,5.977,15.423Z" transform="translate(-101.942 -220.193)" fill="#ebebeb"/>
      <path id="Path_123" data-name="Path 123" d="M323.48,345.466l12.054-4.166,23.39,31.708-19.949-4.044Z" transform="translate(-91.079 -246.406)" fill="#ebebeb"/>
      <path id="Path_124" data-name="Path 124" d="M168.62,383.779l11.214-1.365,3.743-5.474,14,4.4-3.664,8.29Z" transform="translate(-47.463 -256.443)" fill="#455a64"/>
      <path id="Path_125" data-name="Path 125" d="M75.829,277.744l3.491-.9,10.258-2.586,39.244-9.863h.036l60.507,11.084h-.05l59.214-11.142h.065l53.876,13.239h.079v.086c14.3,36.715,30.056,77.345,46.65,120.116l.122.316-.33-.065-44.4-8.577-44.1-8.527h.079l-71.182,17.1H189.3l-72.036-16.687h.065l-86.8,14.08-.23.036.079-.223c14.029-36.313,25.387-65.708,33.231-86.023,3.929-10.143,6.975-18.023,9.044-23.368l2.363-6.07c.532-1.372.812-2.062.812-2.062s-.266.718-.79,2.09l-2.327,6.092-8.987,23.418L30.638,395.332l-.151-.18,86.784-14.137h.065l72.044,16.694H189.3l71.182-17.1h.043l44.136,8.484,44.373,8.577-.208.251C332.238,355.14,316.5,314.539,302.24,277.773l.115.1-53.876-13.268h.065L189.322,275.7h-.05l-60.485-11.149h0L89.636,274.3l-10.28,2.55Z" transform="translate(-21.285 -259.656)" fill="#263238"/>
      <g id="Group_3" data-name="Group 3" transform="translate(96.446 0.093)" opacity="0.2">
        <path id="Path_126" data-name="Path 126" d="M204.762,351.276l1.07-130.826-59.645-11.12L134.22,335.458Z" transform="translate(-134.22 -209.33)"/>
      </g>
      <g id="Group_4" data-name="Group 4" transform="translate(226.418 0.093)" opacity="0.2">
        <path id="Path_127" data-name="Path 127" d="M315.15,209.33l12.823,126.128L424.6,353.891,372.87,223.869Z" transform="translate(-315.15 -209.33)"/>
      </g>
    </g>
    <g id="Character" transform="translate(87.157 23.561)">
      <path id="Path_128" data-name="Path 128" d="M222.281,101.081A78.511,78.511,0,0,0,160.4,225.428h0l.769,1.042.108.151,55.6,75.628a11.939,11.939,0,0,0,19.525-.409l50.285-74.709c9.511-14.511,16.034-29.668,16.034-47.541a78.53,78.53,0,0,0-80.441-78.509ZM224.149,236.7a59.041,59.041,0,1,1,59.034-59.039A59.043,59.043,0,0,1,224.149,236.7Z" transform="translate(-140.959 -86.961)" fill="#ff725e"/>
      <g id="Group_5" data-name="Group 5" transform="translate(4.655 14.097)" opacity="0.3">
        <path id="Path_129" data-name="Path 129" d="M222.281,101.081A78.511,78.511,0,0,0,160.4,225.428h0l.769,1.042.108.151,55.6,75.628a11.939,11.939,0,0,0,19.525-.409l50.285-74.709c9.511-14.511,16.034-29.668,16.034-47.541a78.53,78.53,0,0,0-80.441-78.509ZM224.149,236.7a59.041,59.041,0,1,1,59.034-59.039A59.043,59.043,0,0,1,224.149,236.7Z" transform="translate(-145.614 -101.058)"/>
      </g>
      <path id="Path_130" data-name="Path 130" d="M215.8,101.081a78.511,78.511,0,0,0-61.879,124.347h0l.769,1.042.108.151,55.6,75.628a11.939,11.939,0,0,0,19.525-.409l50.285-74.709c9.511-14.511,16.034-29.668,16.034-47.541A78.53,78.53,0,0,0,215.8,101.081ZM217.669,236.7A59.041,59.041,0,1,1,276.7,177.66,59.043,59.043,0,0,1,217.669,236.7Z" transform="translate(-139.134 -86.961)" fill="#ff725e"/>
      <g id="Group_6" data-name="Group 6" transform="translate(48.177 135.227)" opacity="0.3">
        <path id="Path_131" data-name="Path 131" d="M270.521,269.68c-.948,1.07-63.38,17.557-64.321,18.627,11.968,3.649,26.579,6.824,39.093,6.1,7.047-.4,14.367-1.659,19.97-6S273.912,275.872,270.521,269.68Z" transform="translate(-206.2 -269.68)"/>
      </g>
      <path id="Path_132" data-name="Path 132" d="M206.879,103.82a16.314,16.314,0,0,0-4.08,14.539c.546,2.485,1.638,5.258.273,7.406s-4.54,2.514-5.811,4.691c-1.509,2.55.5,5.747.251,8.721a5.876,5.876,0,0,1-5.582,5.187,22.865,22.865,0,0,0,11.939,3.3q1.293-2.241,2.579-4.483a4.221,4.221,0,0,0,1,5.079,9.748,9.748,0,0,0,5.1,2.155,29.072,29.072,0,0,0,24.69-7.679" transform="translate(-154.004 -87.739)" fill="#263238"/>
      <path id="Path_133" data-name="Path 133" d="M261.722,113.1c-.9-1.839-2.205-3.477-2.873-5.4-1.509-4.131-.108-9.224-2.715-12.765-1.853-2.529-5.172-3.427-8.268-3.922s-6.379-.826-8.893-2.687c-1.846-1.372-3.075-3.441-4.914-4.813-2.622-1.961-6.135-2.256-9.4-2a19.568,19.568,0,0,0-9.533,2.952,10.829,10.829,0,0,0-4.949,8.347c-.036,1.638.4,3.29.108,4.9-.316,1.774-1.437,3.283-2.062,4.978a8.62,8.62,0,0,0,3.592,9.935l26.938,26.27c5.028,1.135,16.35-2.679,19.554-6.738S263.977,117.758,261.722,113.1Z" transform="translate(-158.476 -81.433)" fill="#263238"/>
      <path id="Path_134" data-name="Path 134" d="M213.43,113.58c0-6.817,3.987-15.437,10.775-15.143l21.479,4.016a3.994,3.994,0,0,1,3.814,3.822l.934,51.118h.144s-3.879,14.683-18.131,11.2c-2.83-.718-4.31-3.635-5.028-6.717h-.136c-.036-.374-.057-.718-.086-1.07a33.252,33.252,0,0,1-.539-6.99h0c-.309-4.116-.409-5.8-.409-5.747s-8.771-.891-11.278-12.1C213.725,130.447,213.43,121.159,213.43,113.58Z" transform="translate(-160.059 -86.22)" fill="#ffbe9d"/>
      <path id="Path_135" data-name="Path 135" d="M240.82,128.7a1.437,1.437,0,0,0,1.494,1.379,1.394,1.394,0,0,0,1.437-1.4,1.437,1.437,0,0,0-1.494-1.379,1.394,1.394,0,0,0-1.437,1.4Z" transform="translate(-167.774 -94.351)" fill="#263238"/>
      <path id="Path_136" data-name="Path 136" d="M220.17,130.269a1.437,1.437,0,0,0,1.494,1.379,1.394,1.394,0,0,0,1.437-1.437,1.437,1.437,0,0,0-1.494-1.372,1.386,1.386,0,0,0-1.437,1.43Z" transform="translate(-161.957 -94.785)" fill="#263238"/>
      <path id="Path_137" data-name="Path 137" d="M215.822,125.6c.194.237,1.437-.79,3.125-.783s2.938,1.006,3.132.761c.093-.108-.1-.539-.639-1.006a3.943,3.943,0,0,0-2.507-.912,3.872,3.872,0,0,0-2.485.963C215.944,125.054,215.728,125.492,215.822,125.6Z" transform="translate(-160.727 -93.326)" fill="#263238"/>
      <path id="Path_138" data-name="Path 138" d="M237.8,124.94c.23.216,1.437-.927,3.225-1.1s3.225.661,3.4.409c.086-.115-.158-.524-.783-.919a4.41,4.41,0,0,0-2.751-.611,4.31,4.31,0,0,0-2.543,1.171C237.832,124.4,237.681,124.846,237.8,124.94Z" transform="translate(-166.912 -93.055)" fill="#263238"/>
      <path id="Path_139" data-name="Path 139" d="M229.585,136.607a10.659,10.659,0,0,0-2.572-.295c-.4,0-.783-.072-.862-.345a2,2,0,0,1,.187-1.2c.316-.984.646-2.026.991-3.11,1.372-4.432,2.335-8.06,2.155-8.117s-1.437,3.5-2.8,7.9c-.33,1.092-.639,2.155-.941,3.132a2.3,2.3,0,0,0-.108,1.58,1.006,1.006,0,0,0,.718.539,2.666,2.666,0,0,0,.718.05,9.948,9.948,0,0,0,2.514-.137Z" transform="translate(-163.471 -93.292)" fill="#263238"/>
      <path id="Path_140" data-name="Path 140" d="M231.28,165.613a28.87,28.87,0,0,0,14.884-4.993s-3.189,8.01-14.6,7.658Z" transform="translate(-165.087 -103.736)" fill="#eb996e"/>
      <path id="Path_141" data-name="Path 141" d="M232.373,146.445a2.823,2.823,0,0,1,2.457-1.207,2.629,2.629,0,0,1,1.839.84,1.638,1.638,0,0,1,.237,1.861,1.9,1.9,0,0,1-2.019.647,5.926,5.926,0,0,1-2.069-1.07,1.608,1.608,0,0,1-.474-.431.51.51,0,0,1,0-.582" transform="translate(-165.361 -99.403)" fill="#ff725e"/>
      <path id="Path_142" data-name="Path 142" d="M235.817,142.84c-.259,0-.158,1.7-1.53,2.988s-3.2,1.221-3.2,1.437c0,.108.424.3,1.193.273a4.267,4.267,0,0,0,2.672-1.121,3.714,3.714,0,0,0,1.171-2.5C236.147,143.228,235.932,142.818,235.817,142.84Z" transform="translate(-165.033 -98.728)" fill="#263238"/>
      <path id="Path_143" data-name="Path 143" d="M236.995,117.922c.187.417,1.731.115,3.592.223s3.362.51,3.592.115c.093-.187-.187-.575-.812-.948a6.264,6.264,0,0,0-5.452-.259C237.224,117.369,236.908,117.721,236.995,117.922Z" transform="translate(-166.692 -91.324)" fill="#263238"/>
      <path id="Path_144" data-name="Path 144" d="M217.038,118.973c.33.338,1.537-.108,3.017-.223s2.751.072,3.017-.323c.115-.187-.108-.532-.675-.833a4.677,4.677,0,0,0-2.493-.424,4.612,4.612,0,0,0-2.371.862C217.031,118.434,216.887,118.808,217.038,118.973Z" transform="translate(-161.059 -91.491)" fill="#263238"/>
      <path id="Path_145" data-name="Path 145" d="M253.262,103.364c-1.257-1.437-3.233-2-5.1-2.442a104.651,104.651,0,0,0-24.6-2.723c-.776,1.81.474,3.951,2.155,4.949s3.728,1.207,5.646,1.631,3.944,1.214,4.949,2.873c1.07,1.8.718,4.159,1.688,6.013,1.681,3.189,6.515,3.592,8.175,6.81,1.257,2.421.165,5.33.172,8.06a9.741,9.741,0,0,0,11.005,9.647q-1.2-14.568-2.385-29.129C254.806,107.07,254.583,104.894,253.262,103.364Z" transform="translate(-162.846 -86.154)" fill="#263238"/>
      <path id="Path_146" data-name="Path 146" d="M285.059,126.079c-1.717-1.149-3.786-2.062-4.669-3.929-1.279-2.715.532-6.379-1.3-8.757-1.667-2.155-5.6-1.5-7.184-3.735-1.236-1.746-.352-3.592-.955-5.172s-3.154-2.723-4.806-2.292l-10.481,20.911c-.323,6.566-1.078,10.143.819,13.692a28.784,28.784,0,0,1,2.873,5.934c.567,2.126.388,4.655-1.2,6.185,7.945-.489,14.741-5.639,21-10.574l6.616-5.222a5.266,5.266,0,0,0,1.746-1.925C288.356,129.326,286.769,127.229,285.059,126.079Z" transform="translate(-171.835 -87.255)" fill="#263238"/>
      <path id="Path_147" data-name="Path 147" d="M269.806,132.128a3.823,3.823,0,0,1-.812.28,7.184,7.184,0,0,1-2.478.172,7.615,7.615,0,0,1-3.671-1.365,7.5,7.5,0,0,1-2.873-4.31,7.715,7.715,0,0,1-.165-3.053,12.517,12.517,0,0,1,1.049-3.1,11.76,11.76,0,0,0,1.085-3.247,3.944,3.944,0,0,0-.891-3.276c-.848-.855-2.213-.905-3.513-1.228a3.2,3.2,0,0,1-2.679-3,22.548,22.548,0,0,1,.316-4.217,4.5,4.5,0,0,0-.266-2.011,2.873,2.873,0,0,0-1.358-1.437,7.862,7.862,0,0,0-4.131-.5,8.621,8.621,0,0,1-4.217-.625,7.694,7.694,0,0,1-3.2-2.622,12.608,12.608,0,0,1-1.552-3.628,17.779,17.779,0,0,0-1.272-3.427,8.017,8.017,0,0,0-2.241-2.529,8.893,8.893,0,0,0-10.509,0,10.868,10.868,0,0,0-2.708,2.73,14.065,14.065,0,0,0-1.494,2.945.848.848,0,0,1,.043-.216c.043-.136.093-.352.194-.611a10.567,10.567,0,0,1,1.106-2.22,10.969,10.969,0,0,1,2.708-2.873,9.339,9.339,0,0,1,4.835-1.774,9.5,9.5,0,0,1,6.034,1.717,8.348,8.348,0,0,1,2.371,2.644,17.914,17.914,0,0,1,1.315,3.5,12.492,12.492,0,0,0,1.509,3.5,7.3,7.3,0,0,0,3.017,2.457,8.189,8.189,0,0,0,4,.553,8.234,8.234,0,0,1,4.36.553,3.29,3.29,0,0,1,1.573,1.667,4.912,4.912,0,0,1,.3,2.213,23.167,23.167,0,0,0-.33,4.145,3.118,3.118,0,0,0,.718,1.738,3.276,3.276,0,0,0,1.631.884c.625.165,1.279.244,1.925.417a3.814,3.814,0,0,1,1.781.934,4.367,4.367,0,0,1,.991,3.628,12.068,12.068,0,0,1-1.135,3.355,11.936,11.936,0,0,0-1.049,3.024,7.454,7.454,0,0,0,.129,2.917,7.3,7.3,0,0,0,2.73,4.152,7.594,7.594,0,0,0,3.542,1.394,8.513,8.513,0,0,0,3.276-.251Z" transform="translate(-162.538 -82.995)" fill="#455a64"/>
      <path id="Path_148" data-name="Path 148" d="M285.129,116.64a1.69,1.69,0,0,1,.352.6,2.873,2.873,0,0,1-.065,2,3,3,0,0,1-.855,1.2,3.139,3.139,0,0,1-1.624.682,3.958,3.958,0,0,1-3.75-1.7,5.359,5.359,0,0,1-.9-2.32,7.516,7.516,0,0,1,.194-2.672c.381-1.789,1.286-3.592,1.027-5.6a3.635,3.635,0,0,0-1.286-2.572,4.052,4.052,0,0,0-2.988-.5,9.856,9.856,0,0,1-3.455.129,3.046,3.046,0,0,1-1.566-.984,4.309,4.309,0,0,1-.819-1.659,14.134,14.134,0,0,1-.2-3.534,7.828,7.828,0,0,0-.639-3.218,8.254,8.254,0,0,0-4.31-4.31,11.647,11.647,0,0,0-5.625-.481,16.221,16.221,0,0,1-5.093-.086,10.438,10.438,0,0,1-3.836-1.724,10.64,10.64,0,0,1-2.277-2.205,7.707,7.707,0,0,1-1.286-2.363,15.4,15.4,0,0,0,1.437,2.248,10.646,10.646,0,0,0,6.041,3.728,16.255,16.255,0,0,0,4.985,0,12.04,12.04,0,0,1,5.826.467,8.707,8.707,0,0,1,4.583,4.5,8.282,8.282,0,0,1,.682,3.4,13.516,13.516,0,0,0,.194,3.419,2.96,2.96,0,0,0,2.047,2.313,9.633,9.633,0,0,0,3.29-.129,4.425,4.425,0,0,1,3.3.589,4.066,4.066,0,0,1,1.437,2.873,7.707,7.707,0,0,1-.309,3.031c-.251.948-.56,1.832-.769,2.708a6.888,6.888,0,0,0-.208,2.543,4.957,4.957,0,0,0,.812,2.155,3.7,3.7,0,0,0,3.448,1.638,2.931,2.931,0,0,0,1.509-.6,2.816,2.816,0,0,0,.833-1.092,2.874,2.874,0,0,0,.144-1.9,6.177,6.177,0,0,0-.287-.567Z" transform="translate(-169.269 -82.528)" fill="#263238"/>
      <path id="Path_149" data-name="Path 149" d="M185.931,138a3.132,3.132,0,0,0,.309,2.055,2.751,2.751,0,0,0,1.868,1.437,2.873,2.873,0,0,0,2.78-1.192,2.715,2.715,0,0,0,.445-1.746,5.554,5.554,0,0,0-.582-1.947c-.6-1.271-1.659-2.6-1.774-4.36a6.422,6.422,0,0,1,1.76-4.878,7.385,7.385,0,0,1,2.27-1.631,10.774,10.774,0,0,1,2.744-.8,14.923,14.923,0,0,0,2.679-.668,3.671,3.671,0,0,0,1.932-1.609,4.518,4.518,0,0,0,.438-2.435,9.031,9.031,0,0,0-.546-2.4,18.629,18.629,0,0,1-1.351-4.5,7.054,7.054,0,0,1,.869-4.016,9,9,0,0,1,2.263-2.521,17.45,17.45,0,0,0,1.853-1.71,5.215,5.215,0,0,0,1.056-1.839s0,.05,0,.144a1.932,1.932,0,0,1-.1.409,4.309,4.309,0,0,1-.8,1.4,16.117,16.117,0,0,1-1.825,1.782,8.978,8.978,0,0,0-2.155,2.485,6.8,6.8,0,0,0-.776,3.822,18.057,18.057,0,0,0,1.372,4.4,9.245,9.245,0,0,1,.582,2.514,4.9,4.9,0,0,1-.481,2.679,4.145,4.145,0,0,1-2.155,1.825,15.572,15.572,0,0,1-2.766.718,10.459,10.459,0,0,0-2.636.761,6.917,6.917,0,0,0-2.155,1.523,6.005,6.005,0,0,0-1.667,4.54c.086,1.609,1.07,2.873,1.7,4.224a5.819,5.819,0,0,1,.589,2.09,2.952,2.952,0,0,1-.532,1.954,3.146,3.146,0,0,1-3.1,1.257,3.039,3.039,0,0,1-2.277-3.189A1.6,1.6,0,0,1,185.931,138Z" transform="translate(-152.265 -87.575)" fill="#263238"/>
      <path id="Path_150" data-name="Path 150" d="M189.149,201.172s1.207-9.662,5.862-14.489,24.137-10.876,24.137-10.876.8,6.889,5.474,8.548c4.949,1.767,10.538,1.106,14.159-3.1a22.62,22.62,0,0,0,4.5-9.252s23.267,2.155,27.06,8.52,8.7,31.1,8.7,31.1l-21.752,4.619,2.96,42.57h-57.77l1.128-39.955L187.87,221.1Z" transform="translate(-152.861 -106.941)" fill="#455a64"/>
      <path id="Path_151" data-name="Path 151" d="M278.5,225.921a3.629,3.629,0,0,1-.079-.955v-2.615c0-2.213.036-5.258.108-8.62s.158-6.415.251-8.62c.043-1.106.086-2,.129-2.615a3.37,3.37,0,0,1,.122-.955,3.9,3.9,0,0,1,.072.955v2.615c0,2.213-.036,5.258-.108,8.62s-.158,6.415-.251,8.62c-.043,1.1-.093,1.99-.129,2.608A3.368,3.368,0,0,1,278.5,225.921Z" transform="translate(-178.362 -115.261)" fill="#263238"/>
      <path id="Path_152" data-name="Path 152" d="M202.306,211.08c.136-.036,1.494,4.31,3.031,9.647a100.431,100.431,0,0,1,2.55,9.777c-.137.036-1.487-4.31-3.031-9.64A99.064,99.064,0,0,1,202.306,211.08Z" transform="translate(-156.924 -117.948)" fill="#263238"/>
      <path id="Path_153" data-name="Path 153" d="M293.979,181.677c0,.086-1.034.28-2.622.884a18.885,18.885,0,0,0-9.784,8.512c-.819,1.487-1.157,2.5-1.243,2.471a2.377,2.377,0,0,1,.165-.718,12.589,12.589,0,0,1,.761-1.9,17.24,17.24,0,0,1,9.985-8.678,12.313,12.313,0,0,1,1.99-.5A2.047,2.047,0,0,1,293.979,181.677Z" transform="translate(-178.902 -109.665)" fill="#263238"/>
      <path id="Path_154" data-name="Path 154" d="M197.315,195.15a11,11,0,0,1,1.02,3,9.963,9.963,0,0,1,.532,3.125,10.2,10.2,0,0,1-1.02-3A9.961,9.961,0,0,1,197.315,195.15Z" transform="translate(-155.51 -113.461)" fill="#263238"/>
      <path id="Path_155" data-name="Path 155" d="M282.157,228.24s-6.516,33.087-7.263,35.918-1.947,10.452-9.841,12.032c-10.653,2.155-52.483.639-52.483.639l7.9-9.985,36.6-10.265,5.028-24.072Z" transform="translate(-159.817 -122.781)" fill="#ffbe9d"/>
      <path id="Path_156" data-name="Path 156" d="M219.079,274.2a2.443,2.443,0,0,1,.309.761,10.954,10.954,0,0,1,.417,2.212,12.686,12.686,0,0,1-1.494,7.184,14.619,14.619,0,0,1-2.392,3.348,8.038,8.038,0,0,1-2.794,1.861,8.126,8.126,0,0,1-2.2.5,2.57,2.57,0,0,1-.826,0,16.949,16.949,0,0,0,2.873-.8,8.146,8.146,0,0,0,2.6-1.853,15.628,15.628,0,0,0,2.284-3.24,13.232,13.232,0,0,0,1.58-6.939C219.367,275.335,218.986,274.229,219.079,274.2Z" transform="translate(-159.122 -135.726)" fill="#eb996e"/>
      <path id="Path_157" data-name="Path 157" d="M173.84,217.887s5.9,19.848,8.34,28.425c2.6,9.109,8.283,29.8,20.394,26.126,9.216-2.8,6.508-14.741,6.508-14.741l-9.432-27.254-7.334,1.228L185.2,213.29Z" transform="translate(-148.909 -118.571)" fill="#ffbe9d"/>
      <path id="Path_158" data-name="Path 158" d="M213.118,265.664a10.323,10.323,0,0,0,0-4.49,13.971,13.971,0,0,0-1.968-4.461,38.923,38.923,0,0,0-3.822-4.691,39.58,39.58,0,0,1-3.836-4.77,30.174,30.174,0,0,1-2.406-4.382,26.252,26.252,0,0,1-1.178-3.154,4.661,4.661,0,0,1-.287-1.207,7.855,7.855,0,0,1,.467,1.142c.287.718.718,1.8,1.322,3.067a32.067,32.067,0,0,0,2.471,4.274,41.893,41.893,0,0,0,3.822,4.691,36.165,36.165,0,0,1,3.836,4.777,13.649,13.649,0,0,1,1.932,4.669,8.62,8.62,0,0,1,0,3.391,5.188,5.188,0,0,1-.251.884.947.947,0,0,1-.1.259Z" transform="translate(-156.17 -125.674)" fill="#eb996e"/>
      <path id="Path_159" data-name="Path 159" d="M178.449,201.633s.043-7.9-.654-10.158l-5.6-12.514s-1.437-.884-2.155,1.609,1.494,5.064,1.494,5.064l.172,3.276-2.241-1.853-4.36-8.175s-3.01-5.955-3.786-5.028-.524,2.873.769,5.424l2.945,5.833s.445,1.034-1.1-.467-4.9-8.771-5.6-9.683-1.645-3.592-3.146-2.967.424,3.8.424,3.8l4.806,10.775s-2.787-4.08-3.29-4.77-1.667-3.024-2.579-4.217-1.911-1.652-2.572-1.365a1.343,1.343,0,0,0-.833,1.645l5.136,8.908s2.565,4,2.565,4.31-2.241-1.322-2.241-1.322l-2.155-2.744s-2.327-4.109-3.549-3.886-1.006,1.135-1.006,1.135l4.31,7.485,6.278,8.074,6.709,6.666,3.879-1.25Z" transform="translate(-142.161 -106.913)" fill="#ffbe9d"/>
      <path id="Path_160" data-name="Path 160" d="M172.41,205.752a15.491,15.491,0,0,0,.388-2.464,7.941,7.941,0,0,1,2.579-5.129,4.31,4.31,0,0,1,2.608-1h.323v-.345c-.1-1.537-.043-3-.1-3.972a3.592,3.592,0,0,0-.215-1.573,8.286,8.286,0,0,0-.151,1.566,39.808,39.808,0,0,0-.122,4.073l.295-.345a4.662,4.662,0,0,0-3.01,1.092,6.559,6.559,0,0,0-2.033,2.83,10.58,10.58,0,0,0-.6,2.744A7.686,7.686,0,0,0,172.41,205.752Z" transform="translate(-148.471 -112.369)" fill="#eb996e"/>
    </g>
  </g>
</svg>
