<svg xmlns="http://www.w3.org/2000/svg" viewBox="0 0 500 500"><g id="freepik--background-simple--inject-75"><path d="M331.6,60.63S254.61,33.25,179,76.84,65.33,206.94,32.59,276.24,18.69,416,76.38,448.18s96.92-15.24,177.85-17.54,102.69,9.26,169.85-36.46S503.37,240.49,450.4,160.6,331.6,60.63,331.6,60.63Z" style="fill:#92E3A9"></path><path d="M331.6,60.63S254.61,33.25,179,76.84,65.33,206.94,32.59,276.24,18.69,416,76.38,448.18s96.92-15.24,177.85-17.54,102.69,9.26,169.85-36.46S503.37,240.49,450.4,160.6,331.6,60.63,331.6,60.63Z" style="fill:#fff;opacity:0.7000000000000001"></path></g><g id="freepik--Shelf--inject-75"><rect x="32.53" y="132.15" width="303.84" height="300.28" style="fill:#fff;stroke:#263238;stroke-linecap:round;stroke-linejoin:round"></rect><rect x="154.12" y="163.77" width="19.08" height="21.73" style="fill:#fff;stroke:#263238;stroke-linecap:round;stroke-linejoin:round"></rect><rect x="154.12" y="163.77" width="12.38" height="21.73" style="fill:#fff;stroke:#263238;stroke-linecap:round;stroke-linejoin:round"></rect><rect x="155.51" y="173" width="9.45" height="10.2" style="fill:#92E3A9;stroke:#263238;stroke-linecap:round;stroke-linejoin:round"></rect><rect x="138" y="163.77" width="19.08" height="21.73" style="fill:#fff;stroke:#263238;stroke-linecap:round;stroke-linejoin:round"></rect><rect x="138" y="163.77" width="12.38" height="21.73" style="fill:#fff;stroke:#263238;stroke-linecap:round;stroke-linejoin:round"></rect><rect x="139.39" y="173" width="9.45" height="10.2" style="fill:#92E3A9;stroke:#263238;stroke-linecap:round;stroke-linejoin:round"></rect><rect x="122.71" y="153.52" width="19.08" height="31.98" style="fill:#92E3A9;stroke:#263238;stroke-linecap:round;stroke-linejoin:round"></rect><rect x="122.71" y="153.52" width="12.38" height="31.98" style="fill:#fff;stroke:#263238;stroke-linecap:round;stroke-linejoin:round"></rect><rect x="124.1" y="167.11" width="9.45" height="15.01" style="fill:#92E3A9;stroke:#263238;stroke-linecap:round;stroke-linejoin:round"></rect><rect x="106.59" y="153.52" width="19.08" height="31.98" style="fill:#92E3A9;stroke:#263238;stroke-linecap:round;stroke-linejoin:round"></rect><rect x="106.59" y="153.52" width="12.38" height="31.98" style="fill:#92E3A9;stroke:#263238;stroke-linecap:round;stroke-linejoin:round"></rect><rect x="107.98" y="167.11" width="9.45" height="15.01" style="fill:#fff;stroke:#263238;stroke-linecap:round;stroke-linejoin:round"></rect><rect x="92.41" y="163.77" width="19.08" height="21.73" style="fill:#fff;stroke:#263238;stroke-linecap:round;stroke-linejoin:round"></rect><rect x="92.41" y="163.77" width="12.38" height="21.73" style="fill:#fff;stroke:#263238;stroke-linecap:round;stroke-linejoin:round"></rect><rect x="93.8" y="173" width="9.45" height="10.2" style="fill:#92E3A9;stroke:#263238;stroke-linecap:round;stroke-linejoin:round"></rect><rect x="76.29" y="163.77" width="19.08" height="21.73" style="fill:#fff;stroke:#263238;stroke-linecap:round;stroke-linejoin:round"></rect><rect x="76.29" y="163.77" width="12.38" height="21.73" style="fill:#fff;stroke:#263238;stroke-linecap:round;stroke-linejoin:round"></rect><rect x="77.68" y="173" width="9.45" height="10.2" style="fill:#92E3A9;stroke:#263238;stroke-linecap:round;stroke-linejoin:round"></rect><rect x="61" y="153.52" width="19.08" height="31.98" style="fill:#fff;stroke:#263238;stroke-linecap:round;stroke-linejoin:round"></rect><rect x="61" y="153.52" width="12.38" height="31.98" style="fill:#fff;stroke:#263238;stroke-linecap:round;stroke-linejoin:round"></rect><rect x="62.39" y="167.11" width="9.45" height="15.01" style="fill:#92E3A9;stroke:#263238;stroke-linecap:round;stroke-linejoin:round"></rect><rect x="44.88" y="153.52" width="19.08" height="31.98" style="fill:#fff;stroke:#263238;stroke-linecap:round;stroke-linejoin:round"></rect><rect x="44.88" y="153.52" width="12.38" height="31.98" style="fill:#fff;stroke:#263238;stroke-linecap:round;stroke-linejoin:round"></rect><rect x="46.27" y="167.11" width="9.45" height="15.01" style="fill:#92E3A9;stroke:#263238;stroke-linecap:round;stroke-linejoin:round"></rect><rect x="302.55" y="163.77" width="19.08" height="21.73" style="fill:#fff;stroke:#263238;stroke-linecap:round;stroke-linejoin:round"></rect><rect x="302.55" y="163.77" width="12.38" height="21.73" style="fill:#fff;stroke:#263238;stroke-linecap:round;stroke-linejoin:round"></rect><rect x="303.94" y="173" width="9.45" height="10.2" style="fill:#92E3A9;stroke:#263238;stroke-linecap:round;stroke-linejoin:round"></rect><rect x="286.43" y="163.77" width="19.08" height="21.73" style="fill:#fff;stroke:#263238;stroke-linecap:round;stroke-linejoin:round"></rect><rect x="286.43" y="163.77" width="12.38" height="21.73" style="fill:#fff;stroke:#263238;stroke-linecap:round;stroke-linejoin:round"></rect><rect x="287.82" y="173" width="9.45" height="10.2" style="fill:#92E3A9;stroke:#263238;stroke-linecap:round;stroke-linejoin:round"></rect><rect x="271.14" y="153.52" width="19.08" height="31.98" style="fill:#92E3A9;stroke:#263238;stroke-linecap:round;stroke-linejoin:round"></rect><rect x="271.14" y="153.52" width="12.38" height="31.98" style="fill:#fff;stroke:#263238;stroke-linecap:round;stroke-linejoin:round"></rect><rect x="272.53" y="167.11" width="9.45" height="15.01" style="fill:#92E3A9;stroke:#263238;stroke-linecap:round;stroke-linejoin:round"></rect><rect x="255.02" y="153.52" width="19.08" height="31.98" style="fill:#92E3A9;stroke:#263238;stroke-linecap:round;stroke-linejoin:round"></rect><rect x="255.02" y="153.52" width="12.38" height="31.98" style="fill:#92E3A9;stroke:#263238;stroke-linecap:round;stroke-linejoin:round"></rect><rect x="256.41" y="167.11" width="9.45" height="15.01" style="fill:#fff;stroke:#263238;stroke-linecap:round;stroke-linejoin:round"></rect><rect x="240.85" y="163.77" width="19.08" height="21.73" style="fill:#fff;stroke:#263238;stroke-linecap:round;stroke-linejoin:round"></rect><rect x="240.85" y="163.77" width="12.38" height="21.73" style="fill:#fff;stroke:#263238;stroke-linecap:round;stroke-linejoin:round"></rect><rect x="242.23" y="173" width="9.45" height="10.2" style="fill:#92E3A9;stroke:#263238;stroke-linecap:round;stroke-linejoin:round"></rect><rect x="224.72" y="163.77" width="19.08" height="21.73" style="fill:#fff;stroke:#263238;stroke-linecap:round;stroke-linejoin:round"></rect><rect x="224.72" y="163.77" width="12.38" height="21.73" style="fill:#fff;stroke:#263238;stroke-linecap:round;stroke-linejoin:round"></rect><rect x="226.11" y="173" width="9.45" height="10.2" style="fill:#92E3A9;stroke:#263238;stroke-linecap:round;stroke-linejoin:round"></rect><rect x="209.44" y="153.52" width="19.08" height="31.98" style="fill:#fff;stroke:#263238;stroke-linecap:round;stroke-linejoin:round"></rect><rect x="209.44" y="153.52" width="12.38" height="31.98" style="fill:#fff;stroke:#263238;stroke-linecap:round;stroke-linejoin:round"></rect><rect x="210.82" y="167.11" width="9.45" height="15.01" style="fill:#92E3A9;stroke:#263238;stroke-linecap:round;stroke-linejoin:round"></rect><rect x="193.31" y="153.52" width="19.08" height="31.98" style="fill:#fff;stroke:#263238;stroke-linecap:round;stroke-linejoin:round"></rect><rect x="193.31" y="153.52" width="12.38" height="31.98" style="fill:#fff;stroke:#263238;stroke-linecap:round;stroke-linejoin:round"></rect><rect x="194.7" y="167.11" width="9.45" height="15.01" style="fill:#92E3A9;stroke:#263238;stroke-linecap:round;stroke-linejoin:round"></rect><rect x="154.12" y="332.38" width="19.08" height="21.73" style="fill:#fff;stroke:#263238;stroke-linecap:round;stroke-linejoin:round"></rect><rect x="154.12" y="332.38" width="12.38" height="21.73" style="fill:#fff;stroke:#263238;stroke-linecap:round;stroke-linejoin:round"></rect><rect x="155.51" y="341.61" width="9.45" height="10.2" style="fill:#92E3A9;stroke:#263238;stroke-linecap:round;stroke-linejoin:round"></rect><rect x="138" y="332.38" width="19.08" height="21.73" style="fill:#fff;stroke:#263238;stroke-linecap:round;stroke-linejoin:round"></rect><rect x="138" y="332.38" width="12.38" height="21.73" style="fill:#fff;stroke:#263238;stroke-linecap:round;stroke-linejoin:round"></rect><rect x="139.39" y="341.61" width="9.45" height="10.2" style="fill:#92E3A9;stroke:#263238;stroke-linecap:round;stroke-linejoin:round"></rect><rect x="122.71" y="322.13" width="19.08" height="31.98" style="fill:#92E3A9;stroke:#263238;stroke-linecap:round;stroke-linejoin:round"></rect><rect x="122.71" y="322.13" width="12.38" height="31.98" style="fill:#fff;stroke:#263238;stroke-linecap:round;stroke-linejoin:round"></rect><rect x="124.1" y="335.71" width="9.45" height="15.01" style="fill:#92E3A9;stroke:#263238;stroke-linecap:round;stroke-linejoin:round"></rect><rect x="106.59" y="322.13" width="19.08" height="31.98" style="fill:#92E3A9;stroke:#263238;stroke-linecap:round;stroke-linejoin:round"></rect><rect x="106.59" y="322.13" width="12.38" height="31.98" style="fill:#92E3A9;stroke:#263238;stroke-linecap:round;stroke-linejoin:round"></rect><rect x="107.98" y="335.71" width="9.45" height="15.01" style="fill:#fff;stroke:#263238;stroke-linecap:round;stroke-linejoin:round"></rect><rect x="92.41" y="332.38" width="19.08" height="21.73" style="fill:#fff;stroke:#263238;stroke-linecap:round;stroke-linejoin:round"></rect><rect x="92.41" y="332.38" width="12.38" height="21.73" style="fill:#fff;stroke:#263238;stroke-linecap:round;stroke-linejoin:round"></rect><rect x="93.8" y="341.61" width="9.45" height="10.2" style="fill:#92E3A9;stroke:#263238;stroke-linecap:round;stroke-linejoin:round"></rect><rect x="76.29" y="332.38" width="19.08" height="21.73" style="fill:#fff;stroke:#263238;stroke-linecap:round;stroke-linejoin:round"></rect><rect x="76.29" y="332.38" width="12.38" height="21.73" style="fill:#fff;stroke:#263238;stroke-linecap:round;stroke-linejoin:round"></rect><rect x="77.68" y="341.61" width="9.45" height="10.2" style="fill:#92E3A9;stroke:#263238;stroke-linecap:round;stroke-linejoin:round"></rect><rect x="61" y="322.13" width="19.08" height="31.98" style="fill:#fff;stroke:#263238;stroke-linecap:round;stroke-linejoin:round"></rect><rect x="61" y="322.13" width="12.38" height="31.98" style="fill:#fff;stroke:#263238;stroke-linecap:round;stroke-linejoin:round"></rect><rect x="62.39" y="335.71" width="9.45" height="15.01" style="fill:#92E3A9;stroke:#263238;stroke-linecap:round;stroke-linejoin:round"></rect><rect x="44.88" y="322.13" width="19.08" height="31.98" style="fill:#fff;stroke:#263238;stroke-linecap:round;stroke-linejoin:round"></rect><rect x="44.88" y="322.13" width="12.38" height="31.98" style="fill:#fff;stroke:#263238;stroke-linecap:round;stroke-linejoin:round"></rect><rect x="46.27" y="335.71" width="9.45" height="15.01" style="fill:#92E3A9;stroke:#263238;stroke-linecap:round;stroke-linejoin:round"></rect><rect x="302.55" y="332.38" width="19.08" height="21.73" style="fill:#fff;stroke:#263238;stroke-linecap:round;stroke-linejoin:round"></rect><rect x="302.55" y="332.38" width="12.38" height="21.73" style="fill:#fff;stroke:#263238;stroke-linecap:round;stroke-linejoin:round"></rect><rect x="303.94" y="341.61" width="9.45" height="10.2" style="fill:#92E3A9;stroke:#263238;stroke-linecap:round;stroke-linejoin:round"></rect><rect x="286.43" y="332.38" width="19.08" height="21.73" style="fill:#fff;stroke:#263238;stroke-linecap:round;stroke-linejoin:round"></rect><rect x="286.43" y="332.38" width="12.38" height="21.73" style="fill:#fff;stroke:#263238;stroke-linecap:round;stroke-linejoin:round"></rect><rect x="287.82" y="341.61" width="9.45" height="10.2" style="fill:#92E3A9;stroke:#263238;stroke-linecap:round;stroke-linejoin:round"></rect><rect x="271.14" y="322.13" width="19.08" height="31.98" style="fill:#92E3A9;stroke:#263238;stroke-linecap:round;stroke-linejoin:round"></rect><rect x="271.14" y="322.13" width="12.38" height="31.98" style="fill:#fff;stroke:#263238;stroke-linecap:round;stroke-linejoin:round"></rect><rect x="272.53" y="335.71" width="9.45" height="15.01" style="fill:#92E3A9;stroke:#263238;stroke-linecap:round;stroke-linejoin:round"></rect><rect x="255.02" y="322.13" width="19.08" height="31.98" style="fill:#92E3A9;stroke:#263238;stroke-linecap:round;stroke-linejoin:round"></rect><rect x="255.02" y="322.13" width="12.38" height="31.98" style="fill:#92E3A9;stroke:#263238;stroke-linecap:round;stroke-linejoin:round"></rect><rect x="256.41" y="335.71" width="9.45" height="15.01" style="fill:#fff;stroke:#263238;stroke-linecap:round;stroke-linejoin:round"></rect><rect x="240.85" y="332.38" width="19.08" height="21.73" style="fill:#fff;stroke:#263238;stroke-linecap:round;stroke-linejoin:round"></rect><rect x="240.85" y="332.38" width="12.38" height="21.73" style="fill:#fff;stroke:#263238;stroke-linecap:round;stroke-linejoin:round"></rect><rect x="242.23" y="341.61" width="9.45" height="10.2" style="fill:#92E3A9;stroke:#263238;stroke-linecap:round;stroke-linejoin:round"></rect><rect x="224.72" y="332.38" width="19.08" height="21.73" style="fill:#fff;stroke:#263238;stroke-linecap:round;stroke-linejoin:round"></rect><rect x="224.72" y="332.38" width="12.38" height="21.73" style="fill:#fff;stroke:#263238;stroke-linecap:round;stroke-linejoin:round"></rect><rect x="226.11" y="341.61" width="9.45" height="10.2" style="fill:#92E3A9;stroke:#263238;stroke-linecap:round;stroke-linejoin:round"></rect><rect x="209.44" y="322.13" width="19.08" height="31.98" style="fill:#fff;stroke:#263238;stroke-linecap:round;stroke-linejoin:round"></rect><rect x="209.44" y="322.13" width="12.38" height="31.98" style="fill:#fff;stroke:#263238;stroke-linecap:round;stroke-linejoin:round"></rect><rect x="210.82" y="335.71" width="9.45" height="15.01" style="fill:#92E3A9;stroke:#263238;stroke-linecap:round;stroke-linejoin:round"></rect><rect x="193.31" y="322.13" width="19.08" height="31.98" style="fill:#fff;stroke:#263238;stroke-linecap:round;stroke-linejoin:round"></rect><rect x="193.31" y="322.13" width="12.38" height="31.98" style="fill:#fff;stroke:#263238;stroke-linecap:round;stroke-linejoin:round"></rect><rect x="194.7" y="335.71" width="9.45" height="15.01" style="fill:#92E3A9;stroke:#263238;stroke-linecap:round;stroke-linejoin:round"></rect><path d="M45,217.37h6.39a5.42,5.42,0,0,1,5.42,5.42v18.48a0,0,0,0,1,0,0H39.6a0,0,0,0,1,0,0V222.79A5.42,5.42,0,0,1,45,217.37Z" style="fill:#92E3A9;stroke:#263238;stroke-linecap:round;stroke-linejoin:round"></path><rect x="45.02" y="210.7" width="7.09" height="6.67" style="fill:#263238;stroke:#263238;stroke-linecap:round;stroke-linejoin:round"></rect><rect x="40.99" y="224.6" width="11.12" height="11.12" style="fill:#fff;stroke:#263238;stroke-linecap:round;stroke-linejoin:round"></rect><path d="M65.31,217.37H71.7a5.42,5.42,0,0,1,5.42,5.42v18.48a0,0,0,0,1,0,0H59.89a0,0,0,0,1,0,0V222.79A5.42,5.42,0,0,1,65.31,217.37Z" style="fill:#92E3A9;stroke:#263238;stroke-linecap:round;stroke-linejoin:round"></path><rect x="65.31" y="210.7" width="7.09" height="6.67" style="fill:#263238;stroke:#263238;stroke-linecap:round;stroke-linejoin:round"></rect><rect x="61.28" y="224.6" width="11.12" height="11.12" style="fill:#fff;stroke:#263238;stroke-linecap:round;stroke-linejoin:round"></rect><path d="M85.6,204.58H92A5.42,5.42,0,0,1,97.41,210v31.27a0,0,0,0,1,0,0H80.18a0,0,0,0,1,0,0V210A5.42,5.42,0,0,1,85.6,204.58Z" style="fill:#92E3A9;stroke:#263238;stroke-linecap:round;stroke-linejoin:round"></path><rect x="85.6" y="197.91" width="7.09" height="6.67" style="fill:#263238;stroke:#263238;stroke-linecap:round;stroke-linejoin:round"></rect><rect x="81.57" y="211.81" width="11.12" height="23.9" style="fill:#fff;stroke:#263238;stroke-linecap:round;stroke-linejoin:round"></rect><path d="M105.89,217.37h6.39a5.42,5.42,0,0,1,5.42,5.42v18.48a0,0,0,0,1,0,0H100.47a0,0,0,0,1,0,0V222.79A5.42,5.42,0,0,1,105.89,217.37Z" style="fill:#92E3A9;stroke:#263238;stroke-linecap:round;stroke-linejoin:round"></path><rect x="105.89" y="210.7" width="7.09" height="6.67" style="fill:#263238;stroke:#263238;stroke-linecap:round;stroke-linejoin:round"></rect><rect x="101.86" y="224.6" width="11.12" height="11.12" style="fill:#fff;stroke:#263238;stroke-linecap:round;stroke-linejoin:round"></rect><path d="M126.18,217.37h6.39a5.42,5.42,0,0,1,5.42,5.42v18.48a0,0,0,0,1,0,0H120.76a0,0,0,0,1,0,0V222.79A5.42,5.42,0,0,1,126.18,217.37Z" style="fill:#92E3A9;stroke:#263238;stroke-linecap:round;stroke-linejoin:round"></path><rect x="126.18" y="210.7" width="7.09" height="6.67" style="fill:#263238;stroke:#263238;stroke-linecap:round;stroke-linejoin:round"></rect><rect x="122.15" y="224.6" width="11.12" height="11.12" style="fill:#fff;stroke:#263238;stroke-linecap:round;stroke-linejoin:round"></rect><path d="M146.48,210.7h6.39a5.42,5.42,0,0,1,5.42,5.42v25.16a0,0,0,0,1,0,0H141.05a0,0,0,0,1,0,0V216.12A5.42,5.42,0,0,1,146.48,210.7Z" style="fill:#92E3A9;stroke:#263238;stroke-linecap:round;stroke-linejoin:round"></path><rect x="146.48" y="204.03" width="7.09" height="6.67" style="fill:#263238;stroke:#263238;stroke-linecap:round;stroke-linejoin:round"></rect><rect x="142.44" y="217.92" width="11.12" height="17.79" style="fill:#fff;stroke:#263238;stroke-linecap:round;stroke-linejoin:round"></rect><path d="M200.45,217.37h6.39a5.42,5.42,0,0,1,5.42,5.42v18.48a0,0,0,0,1,0,0H195a0,0,0,0,1,0,0V222.79A5.42,5.42,0,0,1,200.45,217.37Z" style="fill:#92E3A9;stroke:#263238;stroke-linecap:round;stroke-linejoin:round"></path><rect x="200.45" y="210.7" width="7.09" height="6.67" style="fill:#263238;stroke:#263238;stroke-linecap:round;stroke-linejoin:round"></rect><rect x="196.42" y="224.6" width="11.12" height="11.12" style="fill:#fff;stroke:#263238;stroke-linecap:round;stroke-linejoin:round"></rect><path d="M220.74,217.37h6.39a5.42,5.42,0,0,1,5.42,5.42v18.48a0,0,0,0,1,0,0H215.32a0,0,0,0,1,0,0V222.79A5.42,5.42,0,0,1,220.74,217.37Z" style="fill:#92E3A9;stroke:#263238;stroke-linecap:round;stroke-linejoin:round"></path><rect x="220.74" y="210.7" width="7.09" height="6.67" style="fill:#263238;stroke:#263238;stroke-linecap:round;stroke-linejoin:round"></rect><rect x="216.71" y="224.6" width="11.12" height="11.12" style="fill:#fff;stroke:#263238;stroke-linecap:round;stroke-linejoin:round"></rect><path d="M241,204.58h6.39a5.42,5.42,0,0,1,5.42,5.42v31.27a0,0,0,0,1,0,0H235.62a0,0,0,0,1,0,0V210A5.42,5.42,0,0,1,241,204.58Z" style="fill:#92E3A9;stroke:#263238;stroke-linecap:round;stroke-linejoin:round"></path><rect x="241.04" y="197.91" width="7.09" height="6.67" style="fill:#263238;stroke:#263238;stroke-linecap:round;stroke-linejoin:round"></rect><rect x="237.01" y="211.81" width="11.12" height="23.9" style="fill:#fff;stroke:#263238;stroke-linecap:round;stroke-linejoin:round"></rect><path d="M261.33,217.37h6.39a5.42,5.42,0,0,1,5.42,5.42v18.48a0,0,0,0,1,0,0H255.91a0,0,0,0,1,0,0V222.79A5.42,5.42,0,0,1,261.33,217.37Z" style="fill:#92E3A9;stroke:#263238;stroke-linecap:round;stroke-linejoin:round"></path><rect x="261.33" y="210.7" width="7.09" height="6.67" style="fill:#263238;stroke:#263238;stroke-linecap:round;stroke-linejoin:round"></rect><rect x="257.3" y="224.6" width="11.12" height="11.12" style="fill:#fff;stroke:#263238;stroke-linecap:round;stroke-linejoin:round"></rect><path d="M281.62,217.37H288a5.42,5.42,0,0,1,5.42,5.42v18.48a0,0,0,0,1,0,0H276.2a0,0,0,0,1,0,0V222.79A5.42,5.42,0,0,1,281.62,217.37Z" style="fill:#92E3A9;stroke:#263238;stroke-linecap:round;stroke-linejoin:round"></path><rect x="281.62" y="210.7" width="7.09" height="6.67" style="fill:#263238;stroke:#263238;stroke-linecap:round;stroke-linejoin:round"></rect><rect x="277.59" y="224.6" width="11.12" height="11.12" style="fill:#fff;stroke:#263238;stroke-linecap:round;stroke-linejoin:round"></rect><path d="M301.91,210.7h6.39a5.42,5.42,0,0,1,5.42,5.42v25.16a0,0,0,0,1,0,0H296.49a0,0,0,0,1,0,0V216.12A5.42,5.42,0,0,1,301.91,210.7Z" style="fill:#92E3A9;stroke:#263238;stroke-linecap:round;stroke-linejoin:round"></path><rect x="301.91" y="204.03" width="7.09" height="6.67" style="fill:#263238;stroke:#263238;stroke-linecap:round;stroke-linejoin:round"></rect><rect x="297.88" y="217.92" width="11.12" height="17.79" style="fill:#fff;stroke:#263238;stroke-linecap:round;stroke-linejoin:round"></rect><path d="M45,387.42h6.39a5.42,5.42,0,0,1,5.42,5.42v18.48a0,0,0,0,1,0,0H39.6a0,0,0,0,1,0,0V392.84A5.42,5.42,0,0,1,45,387.42Z" style="fill:#92E3A9;stroke:#263238;stroke-linecap:round;stroke-linejoin:round"></path><rect x="45.02" y="380.75" width="7.09" height="6.67" style="fill:#263238;stroke:#263238;stroke-linecap:round;stroke-linejoin:round"></rect><rect x="40.99" y="394.64" width="11.12" height="11.12" style="fill:#fff;stroke:#263238;stroke-linecap:round;stroke-linejoin:round"></rect><path d="M65.31,387.42H71.7a5.42,5.42,0,0,1,5.42,5.42v18.48a0,0,0,0,1,0,0H59.89a0,0,0,0,1,0,0V392.84A5.42,5.42,0,0,1,65.31,387.42Z" style="fill:#92E3A9;stroke:#263238;stroke-linecap:round;stroke-linejoin:round"></path><rect x="65.31" y="380.75" width="7.09" height="6.67" style="fill:#263238;stroke:#263238;stroke-linecap:round;stroke-linejoin:round"></rect><rect x="61.28" y="394.64" width="11.12" height="11.12" style="fill:#fff;stroke:#263238;stroke-linecap:round;stroke-linejoin:round"></rect><path d="M85.6,374.63H92a5.42,5.42,0,0,1,5.42,5.42v31.27a0,0,0,0,1,0,0H80.18a0,0,0,0,1,0,0V380.05A5.42,5.42,0,0,1,85.6,374.63Z" style="fill:#92E3A9;stroke:#263238;stroke-linecap:round;stroke-linejoin:round"></path><rect x="85.6" y="367.96" width="7.09" height="6.67" style="fill:#263238;stroke:#263238;stroke-linecap:round;stroke-linejoin:round"></rect><rect x="81.57" y="381.86" width="11.12" height="23.9" style="fill:#fff;stroke:#263238;stroke-linecap:round;stroke-linejoin:round"></rect><path d="M105.89,387.42h6.39a5.42,5.42,0,0,1,5.42,5.42v18.48a0,0,0,0,1,0,0H100.47a0,0,0,0,1,0,0V392.84A5.42,5.42,0,0,1,105.89,387.42Z" style="fill:#92E3A9;stroke:#263238;stroke-linecap:round;stroke-linejoin:round"></path><rect x="105.89" y="380.75" width="7.09" height="6.67" style="fill:#263238;stroke:#263238;stroke-linecap:round;stroke-linejoin:round"></rect><rect x="101.86" y="394.64" width="11.12" height="11.12" style="fill:#fff;stroke:#263238;stroke-linecap:round;stroke-linejoin:round"></rect><path d="M126.18,387.42h6.39a5.42,5.42,0,0,1,5.42,5.42v18.48a0,0,0,0,1,0,0H120.76a0,0,0,0,1,0,0V392.84A5.42,5.42,0,0,1,126.18,387.42Z" style="fill:#92E3A9;stroke:#263238;stroke-linecap:round;stroke-linejoin:round"></path><rect x="126.18" y="380.75" width="7.09" height="6.67" style="fill:#263238;stroke:#263238;stroke-linecap:round;stroke-linejoin:round"></rect><rect x="122.15" y="394.64" width="11.12" height="11.12" style="fill:#fff;stroke:#263238;stroke-linecap:round;stroke-linejoin:round"></rect><path d="M146.48,380.75h6.39a5.42,5.42,0,0,1,5.42,5.42v25.16a0,0,0,0,1,0,0H141.05a0,0,0,0,1,0,0V386.17A5.42,5.42,0,0,1,146.48,380.75Z" style="fill:#92E3A9;stroke:#263238;stroke-linecap:round;stroke-linejoin:round"></path><rect x="146.48" y="374.08" width="7.09" height="6.67" style="fill:#263238;stroke:#263238;stroke-linecap:round;stroke-linejoin:round"></rect><rect x="142.44" y="387.97" width="11.12" height="17.79" style="fill:#fff;stroke:#263238;stroke-linecap:round;stroke-linejoin:round"></rect><path d="M200.45,387.42h6.39a5.42,5.42,0,0,1,5.42,5.42v18.48a0,0,0,0,1,0,0H195a0,0,0,0,1,0,0V392.84A5.42,5.42,0,0,1,200.45,387.42Z" style="fill:#92E3A9;stroke:#263238;stroke-linecap:round;stroke-linejoin:round"></path><rect x="200.45" y="380.75" width="7.09" height="6.67" style="fill:#263238;stroke:#263238;stroke-linecap:round;stroke-linejoin:round"></rect><rect x="196.42" y="394.64" width="11.12" height="11.12" style="fill:#fff;stroke:#263238;stroke-linecap:round;stroke-linejoin:round"></rect><path d="M220.74,387.42h6.39a5.42,5.42,0,0,1,5.42,5.42v18.48a0,0,0,0,1,0,0H215.32a0,0,0,0,1,0,0V392.84A5.42,5.42,0,0,1,220.74,387.42Z" style="fill:#92E3A9;stroke:#263238;stroke-linecap:round;stroke-linejoin:round"></path><rect x="220.74" y="380.75" width="7.09" height="6.67" style="fill:#263238;stroke:#263238;stroke-linecap:round;stroke-linejoin:round"></rect><rect x="216.71" y="394.64" width="11.12" height="11.12" style="fill:#fff;stroke:#263238;stroke-linecap:round;stroke-linejoin:round"></rect><path d="M241,374.63h6.39a5.42,5.42,0,0,1,5.42,5.42v31.27a0,0,0,0,1,0,0H235.62a0,0,0,0,1,0,0V380.05A5.42,5.42,0,0,1,241,374.63Z" style="fill:#92E3A9;stroke:#263238;stroke-linecap:round;stroke-linejoin:round"></path><rect x="241.04" y="367.96" width="7.09" height="6.67" style="fill:#263238;stroke:#263238;stroke-linecap:round;stroke-linejoin:round"></rect><rect x="237.01" y="381.86" width="11.12" height="23.9" style="fill:#fff;stroke:#263238;stroke-linecap:round;stroke-linejoin:round"></rect><path d="M261.33,387.42h6.39a5.42,5.42,0,0,1,5.42,5.42v18.48a0,0,0,0,1,0,0H255.91a0,0,0,0,1,0,0V392.84A5.42,5.42,0,0,1,261.33,387.42Z" style="fill:#92E3A9;stroke:#263238;stroke-linecap:round;stroke-linejoin:round"></path><rect x="261.33" y="380.75" width="7.09" height="6.67" style="fill:#263238;stroke:#263238;stroke-linecap:round;stroke-linejoin:round"></rect><rect x="257.3" y="394.64" width="11.12" height="11.12" style="fill:#fff;stroke:#263238;stroke-linecap:round;stroke-linejoin:round"></rect><path d="M281.62,387.42H288a5.42,5.42,0,0,1,5.42,5.42v18.48a0,0,0,0,1,0,0H276.2a0,0,0,0,1,0,0V392.84A5.42,5.42,0,0,1,281.62,387.42Z" style="fill:#92E3A9;stroke:#263238;stroke-linecap:round;stroke-linejoin:round"></path><rect x="281.62" y="380.75" width="7.09" height="6.67" style="fill:#263238;stroke:#263238;stroke-linecap:round;stroke-linejoin:round"></rect><rect x="277.59" y="394.64" width="11.12" height="11.12" style="fill:#fff;stroke:#263238;stroke-linecap:round;stroke-linejoin:round"></rect><path d="M301.91,380.75h6.39a5.42,5.42,0,0,1,5.42,5.42v25.16a0,0,0,0,1,0,0H296.49a0,0,0,0,1,0,0V386.17A5.42,5.42,0,0,1,301.91,380.75Z" style="fill:#92E3A9;stroke:#263238;stroke-linecap:round;stroke-linejoin:round"></path><rect x="301.91" y="374.08" width="7.09" height="6.67" style="fill:#263238;stroke:#263238;stroke-linecap:round;stroke-linejoin:round"></rect><rect x="297.88" y="387.97" width="11.12" height="17.79" style="fill:#fff;stroke:#263238;stroke-linecap:round;stroke-linejoin:round"></rect><polygon points="56.91 263.41 41.06 263.41 45.02 297.43 52.95 297.43 56.91 263.41" style="fill:#fff;stroke:#263238;stroke-linecap:round;stroke-linejoin:round"></polygon><polygon points="44.39 292.02 45.02 297.43 52.95 297.43 53.58 292.02 44.39 292.02" style="fill:#263238;stroke:#263238;stroke-linecap:round;stroke-linejoin:round"></polygon><rect x="45.31" y="269.98" width="6.57" height="16.24" style="fill:#92E3A9;stroke:#263238;stroke-linecap:round;stroke-linejoin:round"></rect><polygon points="76.25 263.41 60.39 263.41 64.36 297.43 72.28 297.43 76.25 263.41" style="fill:#fff;stroke:#263238;stroke-linecap:round;stroke-linejoin:round"></polygon><polygon points="63.73 292.02 64.36 297.43 72.28 297.43 72.91 292.02 63.73 292.02" style="fill:#263238;stroke:#263238;stroke-linecap:round;stroke-linejoin:round"></polygon><rect x="64.65" y="269.98" width="6.57" height="16.24" style="fill:#92E3A9;stroke:#263238;stroke-linecap:round;stroke-linejoin:round"></rect><polygon points="95.58 263.41 79.72 263.41 83.69 297.43 91.61 297.43 95.58 263.41" style="fill:#fff;stroke:#263238;stroke-linecap:round;stroke-linejoin:round"></polygon><polygon points="83.06 292.02 83.69 297.43 91.61 297.43 92.25 292.02 83.06 292.02" style="fill:#263238;stroke:#263238;stroke-linecap:round;stroke-linejoin:round"></polygon><rect x="83.98" y="269.98" width="6.57" height="16.24" style="fill:#92E3A9;stroke:#263238;stroke-linecap:round;stroke-linejoin:round"></rect><polygon points="114.91 263.41 99.06 263.41 103.02 297.43 110.95 297.43 114.91 263.41" style="fill:#fff;stroke:#263238;stroke-linecap:round;stroke-linejoin:round"></polygon><polygon points="102.39 292.02 103.02 297.43 110.95 297.43 111.58 292.02 102.39 292.02" style="fill:#263238;stroke:#263238;stroke-linecap:round;stroke-linejoin:round"></polygon><rect x="103.31" y="269.98" width="6.57" height="16.24" style="fill:#92E3A9;stroke:#263238;stroke-linecap:round;stroke-linejoin:round"></rect><rect x="119.58" y="279.26" width="16.76" height="5.8" style="fill:#263238;stroke:#263238;stroke-linecap:round;stroke-linejoin:round"></rect><rect x="117.04" y="285.06" width="21.85" height="12.76" style="fill:#92E3A9;stroke:#263238;stroke-linecap:round;stroke-linejoin:round"></rect><rect x="120.1" y="287.77" width="15.71" height="7.35" style="fill:#fff;stroke:#263238;stroke-linecap:round;stroke-linejoin:round"></rect><rect x="144.33" y="279.26" width="16.76" height="5.8" style="fill:#263238;stroke:#263238;stroke-linecap:round;stroke-linejoin:round"></rect><rect x="141.78" y="285.06" width="21.85" height="12.76" style="fill:#92E3A9;stroke:#263238;stroke-linecap:round;stroke-linejoin:round"></rect><rect x="144.85" y="287.77" width="15.71" height="7.35" style="fill:#fff;stroke:#263238;stroke-linecap:round;stroke-linejoin:round"></rect><polygon points="211.57 263.41 195.72 263.41 199.68 297.43 207.61 297.43 211.57 263.41" style="fill:#fff;stroke:#263238;stroke-linecap:round;stroke-linejoin:round"></polygon><polygon points="199.05 292.02 199.68 297.43 207.61 297.43 208.24 292.02 199.05 292.02" style="fill:#263238;stroke:#263238;stroke-linecap:round;stroke-linejoin:round"></polygon><rect x="199.97" y="269.98" width="6.57" height="16.24" style="fill:#92E3A9;stroke:#263238;stroke-linecap:round;stroke-linejoin:round"></rect><polygon points="230.91 263.41 215.05 263.41 219.02 297.43 226.94 297.43 230.91 263.41" style="fill:#fff;stroke:#263238;stroke-linecap:round;stroke-linejoin:round"></polygon><polygon points="218.39 292.02 219.02 297.43 226.94 297.43 227.57 292.02 218.39 292.02" style="fill:#263238;stroke:#263238;stroke-linecap:round;stroke-linejoin:round"></polygon><rect x="219.31" y="269.98" width="6.57" height="16.24" style="fill:#92E3A9;stroke:#263238;stroke-linecap:round;stroke-linejoin:round"></rect><polygon points="250.24 263.41 234.39 263.41 238.35 297.43 246.28 297.43 250.24 263.41" style="fill:#fff;stroke:#263238;stroke-linecap:round;stroke-linejoin:round"></polygon><polygon points="237.72 292.02 238.35 297.43 246.28 297.43 246.91 292.02 237.72 292.02" style="fill:#263238;stroke:#263238;stroke-linecap:round;stroke-linejoin:round"></polygon><rect x="238.64" y="269.98" width="6.57" height="16.24" style="fill:#92E3A9;stroke:#263238;stroke-linecap:round;stroke-linejoin:round"></rect><polygon points="269.57 263.41 253.72 263.41 257.68 297.43 265.61 297.43 269.57 263.41" style="fill:#fff;stroke:#263238;stroke-linecap:round;stroke-linejoin:round"></polygon><polygon points="257.05 292.02 257.68 297.43 265.61 297.43 266.24 292.02 257.05 292.02" style="fill:#263238;stroke:#263238;stroke-linecap:round;stroke-linejoin:round"></polygon><rect x="257.97" y="269.98" width="6.57" height="16.24" style="fill:#92E3A9;stroke:#263238;stroke-linecap:round;stroke-linejoin:round"></rect><rect x="274.24" y="279.26" width="16.76" height="5.8" style="fill:#263238;stroke:#263238;stroke-linecap:round;stroke-linejoin:round"></rect><rect x="271.7" y="285.06" width="21.85" height="12.76" style="fill:#92E3A9;stroke:#263238;stroke-linecap:round;stroke-linejoin:round"></rect><rect x="274.77" y="287.77" width="15.71" height="7.35" style="fill:#fff;stroke:#263238;stroke-linecap:round;stroke-linejoin:round"></rect><rect x="298.99" y="279.26" width="16.76" height="5.8" style="fill:#263238;stroke:#263238;stroke-linecap:round;stroke-linejoin:round"></rect><rect x="296.44" y="285.06" width="21.85" height="12.76" style="fill:#92E3A9;stroke:#263238;stroke-linecap:round;stroke-linejoin:round"></rect><rect x="299.51" y="287.77" width="15.71" height="7.35" style="fill:#fff;stroke:#263238;stroke-linecap:round;stroke-linejoin:round"></rect><rect x="181.56" y="37.03" width="7.24" height="301.82" transform="translate(373.12 2.76) rotate(90)" style="fill:#fff;stroke:#263238;stroke-linecap:round;stroke-linejoin:round"></rect><rect x="181.56" y="93.48" width="7.24" height="301.82" transform="translate(429.58 59.21) rotate(90)" style="fill:#fff;stroke:#263238;stroke-linecap:round;stroke-linejoin:round"></rect><rect x="181.56" y="149.94" width="7.24" height="301.82" transform="translate(486.03 115.67) rotate(90)" style="fill:#fff;stroke:#263238;stroke-linecap:round;stroke-linejoin:round"></rect><rect x="181.56" y="206.4" width="7.24" height="301.82" transform="translate(542.49 172.13) rotate(90)" style="fill:#fff;stroke:#263238;stroke-linecap:round;stroke-linejoin:round"></rect><rect x="181.56" y="262.25" width="7.24" height="301.82" transform="translate(598.35 227.98) rotate(90)" style="fill:#fff;stroke:#263238;stroke-linecap:round;stroke-linejoin:round"></rect><rect x="28.48" y="141.62" width="7.24" height="292.41" style="fill:#fff;stroke:#263238;stroke-linecap:round;stroke-linejoin:round"></rect><rect x="180.48" y="141.62" width="7.24" height="292.41" style="fill:#fff;stroke:#263238;stroke-linecap:round;stroke-linejoin:round"></rect><rect x="332.48" y="141.62" width="7.24" height="292.41" style="fill:#fff;stroke:#263238;stroke-linecap:round;stroke-linejoin:round"></rect><rect x="21.24" y="111.22" width="321.37" height="31.12" style="fill:#92E3A9;stroke:#263238;stroke-linecap:round;stroke-linejoin:round"></rect><rect x="115.34" y="111.22" width="133.18" height="31.12" style="fill:#fff;stroke:#263238;stroke-linecap:round;stroke-linejoin:round"></rect><polygon points="77.45 123.14 70.72 123.14 70.72 116.4 63.78 116.4 63.78 123.14 57.04 123.14 57.04 130.08 63.78 130.08 63.78 136.81 70.72 136.81 70.72 130.08 77.45 130.08 77.45 123.14" style="fill:#fff"></polygon><polygon points="304.83 123.14 298.1 123.14 298.1 116.4 291.16 116.4 291.16 123.14 284.42 123.14 284.42 130.08 291.16 130.08 291.16 136.81 298.1 136.81 298.1 130.08 304.83 130.08 304.83 123.14" style="fill:#fff"></polygon><path d="M136.18,116c3.44,0,4.91,2,4.91,5.35V124c0,3.47-1.62,5.28-5.1,5.28h-2.15v8.64H131.4V116ZM136,127.07c1.82,0,2.69-.84,2.69-2.94v-2.91c0-2-.72-3-2.5-3h-2.34v8.85Z" style="fill:#92E3A9"></path><path d="M145.54,128v9.86H143.1V116h2.44v9.85h5.38V116h2.44v21.9h-2.44V128Z" style="fill:#92E3A9"></path><path d="M158.33,133.49l-.84,4.41h-2.25l4.19-21.9H163l4.19,21.9h-2.44l-.84-4.41Zm.32-2.1h4.88l-2.48-12.64Z" style="fill:#92E3A9"></path><path d="M173.94,116c3.45,0,4.88,1.75,4.88,5v1.79c0,2.41-.84,3.91-2.72,4.5,2,.6,2.76,2.22,2.76,4.57v3.41a5.57,5.57,0,0,0,.43,2.63h-2.47a5.8,5.8,0,0,1-.4-2.66V131.8c0-2.47-1.16-3.26-3.19-3.26H171.5v9.36h-2.43V116Zm-.62,10.32c1.94,0,3.1-.62,3.1-3v-2.1c0-2-.72-3-2.54-3H171.5v8.1Z" style="fill:#92E3A9"></path><path d="M189.46,137.87h-2.34l-3.63-17.43V137.9h-2.13V116h3.41l3.6,17.49L191.84,116h3.41v21.9h-2.31V120.29Z" style="fill:#92E3A9"></path><path d="M200.23,133.49l-.85,4.41h-2.25l4.19-21.9h3.54l4.19,21.9h-2.44l-.85-4.41Zm.31-2.1h4.88L203,118.75Z" style="fill:#92E3A9"></path><path d="M220.62,121.29v2h-2.31v-2.1c0-2-.78-3.16-2.57-3.16s-2.56,1.19-2.56,3.16v11.58c0,2,.81,3.15,2.56,3.15s2.57-1.18,2.57-3.15v-2.85h2.31v2.72c0,3.32-1.56,5.51-4.94,5.51s-4.91-2.19-4.91-5.51V121.29c0-3.32,1.56-5.51,4.91-5.51S220.62,118,220.62,121.29Z" style="fill:#92E3A9"></path><path d="M226.38,130l-4.63-14h2.54l3.41,10.76L231.14,116h2.31l-4.66,14v7.86h-2.41Z" style="fill:#92E3A9"></path></g><g id="freepik--Poster--inject-75"><rect x="358.31" y="138.33" width="105.97" height="158.08" style="fill:none;stroke:#263238;stroke-linecap:round;stroke-linejoin:round"></rect><path d="M426.35,178.52l-36.19,22.39a16.5,16.5,0,0,1-22.72-5.35h0a16.5,16.5,0,0,1,5.35-22.71L409,150.45a16.51,16.51,0,0,1,22.72,5.35h0A16.5,16.5,0,0,1,426.35,178.52Z" style="fill:none;stroke:#263238;stroke-linecap:round;stroke-linejoin:round"></path><path d="M409,150.45l-18.46,11.43,17.37,28.06,18.46-11.42A16.5,16.5,0,1,0,409,150.45Z" style="fill:none;stroke:#263238;stroke-linecap:round;stroke-linejoin:round"></path><path d="M436.84,247.77l-40.2-14a16.49,16.49,0,0,1-10.17-21h0a16.49,16.49,0,0,1,21-10.17l40.2,14a16.5,16.5,0,0,1,10.17,21h0A16.5,16.5,0,0,1,436.84,247.77Z" style="fill:none;stroke:#263238;stroke-linecap:round;stroke-linejoin:round"></path><path d="M447.67,216.59l-20.51-7.13-10.83,31.18,20.51,7.13a16.5,16.5,0,0,0,10.83-31.18Z" style="fill:none;stroke:#263238;stroke-linecap:round;stroke-linejoin:round"></path><line x1="442.67" y1="261.67" x2="447.78" y2="261.67" style="fill:none;stroke:#263238;stroke-linecap:round;stroke-linejoin:round"></line><line x1="373.95" y1="261.67" x2="437.03" y2="261.67" style="fill:none;stroke:#263238;stroke-linecap:round;stroke-linejoin:round"></line><line x1="373.95" y1="272.96" x2="447.78" y2="272.96" style="fill:none;stroke:#263238;stroke-linecap:round;stroke-linejoin:round"></line><line x1="386.57" y1="284.26" x2="447.78" y2="284.26" style="fill:none;stroke:#263238;stroke-linecap:round;stroke-linejoin:round"></line><line x1="373.95" y1="284.26" x2="379.16" y2="284.26" style="fill:none;stroke:#263238;stroke-linecap:round;stroke-linejoin:round"></line><line x1="419.38" y1="246.91" x2="424.33" y2="246.91" style="fill:none;stroke:#263238;stroke-linecap:round;stroke-linejoin:round"></line><polyline points="371.34 208.69 371.34 246.91 413.03 246.91" style="fill:none;stroke:#263238;stroke-linecap:round;stroke-linejoin:round"></polyline><line x1="441.26" y1="151.74" x2="436.49" y2="151.74" style="fill:none;stroke:#263238;stroke-linecap:round;stroke-linejoin:round"></line><polyline points="452.99 213.03 452.99 151.74 446.9 151.74" style="fill:none;stroke:#263238;stroke-linecap:round;stroke-linejoin:round"></polyline><polyline points="398.27 151.36 370.47 151.36 370.47 169.6" style="fill:none;stroke:#263238;stroke-linecap:round;stroke-linejoin:round"></polyline></g><g id="freepik--Character--inject-75"><path d="M295.4,273.88c-3.9,4.3-18.31,4.91-30.95,4.86s-28.7-7.19-34.07-14.86,5.47-23.32,7.37-26.95,2.66-21.46,13.55-26.69,33.82-2.51,41.27,3,23.15,15.14,25.71,24.67-6.37,9.64-7.13,10.1-2,.91-3.92,4.55a7.17,7.17,0,0,1-5.86,3.71Z" style="fill:#263238;stroke:#263238;stroke-linecap:round;stroke-linejoin:round"></path><path d="M307.17,235c7.24,1.91,12,4.24,8.39,6.78" style="fill:none;stroke:#545454;stroke-linecap:round;stroke-linejoin:round"></path><path d="M278,230s14.28,1.57,25.53,4.08" style="fill:none;stroke:#545454;stroke-linecap:round;stroke-linejoin:round"></path><path d="M271.84,227.66s18.33-6.11,35.73,1.41" style="fill:none;stroke:#545454;stroke-linecap:round;stroke-linejoin:round"></path><path d="M293.15,219.27a20.63,20.63,0,0,1,2.66.87" style="fill:none;stroke:#545454;stroke-linecap:round;stroke-linejoin:round"></path><path d="M265.26,225.78s11.07-7.59,22.83-7.21" style="fill:none;stroke:#545454;stroke-linecap:round;stroke-linejoin:round"></path><path d="M236.9,262.44a18,18,0,0,1-4.07.94" style="fill:none;stroke:#545454;stroke-linecap:round;stroke-linejoin:round"></path><path d="M270,235.65s-13.16,13.16-21.62,20.21a37.8,37.8,0,0,1-8.05,5.21" style="fill:none;stroke:#545454;stroke-linecap:round;stroke-linejoin:round"></path><path d="M261.5,232.83S247.87,248.34,235.65,253" style="fill:none;stroke:#545454;stroke-linecap:round;stroke-linejoin:round"></path><path d="M387,413.52s4.71,4.25,5.33,5.46,2.93,6.37,2.08,6.5-2.9-3.16-3.51-4.54-3-5-3-5Z" style="fill:#fff;stroke:#263238;stroke-linecap:round;stroke-linejoin:round"></path><path d="M384.05,410.53s3.25,3,3.87,4.21,3.52,12.13,3.52,12.13-1.4,1.12-2.38.58-4.41-11.33-4.41-11.33Z" style="fill:#fff;stroke:#263238;stroke-linecap:round;stroke-linejoin:round"></path><path d="M376.66,405.82s5.94,3.13,7.39,4.71,3.75,14.67,4.21,15.87-2.29,2.09-2.94,1.56S382,416,382,416l-5.36-8.66Z" style="fill:#fff;stroke:#263238;stroke-linecap:round;stroke-linejoin:round"></path><path d="M362.56,404.37l11.24.22a6.21,6.21,0,0,1,4.89,2.56l4.72,6.56.81,13.05A1.19,1.19,0,0,1,383,428h0a1.22,1.22,0,0,1-1.1-.88l-3.27-11.8-4.29-2s-6.57,3.6-6.43,4.28,3.82,5.23,4.62,6.27,2.75,2.82,2.2,3.81-3.88,0-5-.73-7.23-8.41-9.52-10-4.75-3.25-4.75-3.25Z" style="fill:#fff;stroke:#263238;stroke-linecap:round;stroke-linejoin:round"></path><polyline points="360.55 407.39 359.02 415.84 356.46 413.79 360.55 407.39" style="fill:#263238;stroke:#263238;stroke-linecap:round;stroke-linejoin:round"></polyline><path d="M312,298.09s10.11,2.7,11.53,9.3S331.2,379,331.2,379l33.5,21.77-10.14,15.65-31.81-6.25L304.12,296Z" style="fill:#fff;stroke:#263238;stroke-linecap:round;stroke-linejoin:round"></path><path d="M331.2,379s-4.43,2.34-6,4.44" style="fill:none;stroke:#263238;stroke-linecap:round;stroke-linejoin:round"></path><path d="M317.5,313.27l8.94,120.14-112.91-4.6s3.18-124.12,4.54-126.78,12.32-3.93,21.37-6.77S264.63,287,264.63,287l21.24.9c5.94.26,30.49,11.73,30.45,12.72" style="fill:#fff;stroke:#263238;stroke-linecap:round;stroke-linejoin:round"></path><rect x="307.32" y="336.98" width="11.21" height="4.34" style="fill:#263238;stroke:#263238;stroke-linecap:round;stroke-linejoin:round"></rect><polyline points="252.72 291.87 253.78 336.3 266.54 339.33 259.35 350.67 277.28 400.54" style="fill:#fff;stroke:#263238;stroke-linecap:round;stroke-linejoin:round"></polyline><path d="M290.77,289.3s11.83,24.56,15.2,32.64,4.75,10.62,4.75,10.62l-8.44,5.84,8.63,6.82-8.07,43.28" style="fill:#fff;stroke:#263238;stroke-linecap:round;stroke-linejoin:round"></path><path d="M257,290s17.1,45.91,18.45,60.59,4.65,81.78,4.65,81.78l22,1s-.82-67-4.2-91.92-8.19-45.73-9.07-48.24a24.55,24.55,0,0,0-3-5.34l-13.58-2Z" style="fill:#92E3A9;stroke:#263238;stroke-linecap:round;stroke-linejoin:round"></path><line x1="298.96" y1="365.08" x2="290.57" y2="382.4" style="fill:none;stroke:#263238;stroke-linecap:round;stroke-linejoin:round"></line><line x1="295.81" y1="365.08" x2="283.75" y2="390.27" style="fill:none;stroke:#263238;stroke-linecap:round;stroke-linejoin:round"></line><path d="M264.1,269.55s.07,15.63-.25,17.35-5.33,1.1-5.43,3.33,7.5,23.29,14.9,29.81,9.68,5.62,11.88.51,2.85-15.15,3-18.37c.06-1.43.36-5,0-6.74-.52-2.45-1.18-5.95-3.25-7.37l-.79-.54.33-7.67S271.88,278.82,264.1,269.55Z" style="fill:#fff;stroke:#263238;stroke-linecap:round;stroke-linejoin:round"></path><path d="M284.15,287.53l.33-7.67s-12.6-1-20.38-10.31v.1l.52,2.4s4.9,14.41,20.32,16Z" style="fill:#263238;stroke:#263238;stroke-linecap:round;stroke-linejoin:round"></path><path d="M276.16,231.64s-14-4.32-14.61-6.33.06-6.94-1.72-6-1.54,6.87.86,8.71,15.68,4.4,16.59,6.42-.4,3.45-4.87,9.21S248.49,258,248.4,260s2.13,8,5.59,8.42a10.33,10.33,0,0,0,6.26-1.46,30.21,30.21,0,0,0,10.42,11.36c7,4.27,17.1,5.94,23.23,1.75,3.35-2.3,9.26-13.49,9.71-18.18s-2.05-10-2-12,.19-4.45.19-4.45-17.43-9.68-19.82-11.77A9.58,9.58,0,0,0,276.16,231.64Z" style="fill:#fff;stroke:#263238;stroke-linecap:round;stroke-linejoin:round"></path><path d="M273.16,245.4s5-3.2,10-.69" style="fill:none;stroke:#263238;stroke-linecap:round;stroke-linejoin:round"></path><path d="M292.81,244.94S296,243.34,299,247" style="fill:none;stroke:#263238;stroke-linecap:round;stroke-linejoin:round"></path><path d="M290.08,253.57s-.39,3.45.56,4.24,2.92,1.36,1.87,2.81-4.29,1.55-5.7-.25" style="fill:none;stroke:#263238;stroke-linecap:round;stroke-linejoin:round"></path><path d="M294.26,265.9s-4.09,2.8-10.67.28" style="fill:none;stroke:#263238;stroke-linecap:round;stroke-linejoin:round"></path><path d="M279.51,252.94c-.06,1.37-.89,2.45-1.84,2.4s-1.69-1.18-1.63-2.55.88-2.44,1.84-2.4S279.57,251.58,279.51,252.94Z" style="fill:#263238"></path><path d="M297.08,253.7c-.06,1.37-.89,2.45-1.84,2.4s-1.69-1.18-1.63-2.55.89-2.44,1.84-2.4S297.14,252.34,297.08,253.7Z" style="fill:#263238"></path><rect x="269.33" y="247.1" width="17.34" height="9.91" rx="2.62" transform="translate(11.15 -11.78) rotate(2.48)" style="fill:none;stroke:#263238;stroke-linecap:round;stroke-linejoin:round"></rect><rect x="289.87" y="247.94" width="14.86" height="9.91" rx="2.62" transform="translate(11.21 -12.61) rotate(2.48)" style="fill:none;stroke:#263238;stroke-linecap:round;stroke-linejoin:round"></rect><line x1="286.82" y1="248.72" x2="289.79" y2="248.85" style="fill:none;stroke:#263238;stroke-linecap:round;stroke-linejoin:round"></line><line x1="269.36" y1="251.19" x2="262.43" y2="250.89" style="fill:none;stroke:#263238;stroke-linecap:round;stroke-linejoin:round"></line><path d="M275.09,398.49s7.27-.32,9.85-1.47,20.76-6,21.69-5.69a70.27,70.27,0,0,1,9,4.49c1.47,1.08,4.63,9.69,5.83,13.1a1.56,1.56,0,0,1-.84,2h0a1.58,1.58,0,0,1-2-.59L316,406.13l1.89,7.86a1.67,1.67,0,0,1-1.11,2h0a1.68,1.68,0,0,1-1.82-.53l-6.16-7.61-3-3,6.3,11.7a1.54,1.54,0,0,1-1.09,2.24h0a1.55,1.55,0,0,1-1.33-.41c-1.81-1.76-7.41-7.21-7.9-8a25.76,25.76,0,0,0-3.33-3.29l6.12,11.62h0a1.36,1.36,0,0,1-.52,2l-.09,0c-2.08.08-3.13-1.4-4.62-2.86l-6.44-6.3s-9.87,2.09-12.68,1.34-9.22-5.76-9.22-5.76Z" style="fill:#fff;stroke:#263238;stroke-linecap:round;stroke-linejoin:round"></path><polygon points="275.09 398.49 274.81 409.69 270.93 407.14 275.09 398.49" style="fill:#263238;stroke:#263238;stroke-linecap:round;stroke-linejoin:round"></polygon><polyline points="315.96 406.13 313.75 401.66 305.95 395.96" style="fill:#fff;stroke:#263238;stroke-linecap:round;stroke-linejoin:round"></polyline><line x1="305.73" y1="404.86" x2="302.19" y2="401.16" style="fill:#fff;stroke:#263238;stroke-linecap:round;stroke-linejoin:round"></line><path d="M228.59,299.31s-9.76-.42-12.44,3.25-8.92,90.95-8.77,94.74,60.31,19.16,60.31,19.16l8.69-18.55-35.93-21.26,2.09-49.6" style="fill:#fff;stroke:#263238;stroke-linecap:round;stroke-linejoin:round"></path><path d="M224.46,377.15s9.42-4.68,16-.5" style="fill:none;stroke:#263238;stroke-linecap:round;stroke-linejoin:round"></path><path d="M228.18,380.1a19.29,19.29,0,0,1,9.8-2.78" style="fill:none;stroke:#263238;stroke-linecap:round;stroke-linejoin:round"></path><path d="M223.49,384.73a8.34,8.34,0,0,1,.75-1.11" style="fill:none;stroke:#263238;stroke-linecap:round;stroke-linejoin:round"></path></g><g id="freepik--Plant--inject-75"><path d="M457.6,402.48s-4.47-5.68-4.47-9.13,3.45,1.63,3.45,1.63-7.3-13.39-6.69-18.87,6.08,9.54,6.08,9.54-1.82-30.83,1.22-29.82,6.9,30,6.9,31.85,2.63-12.78,4.66-8.52,2,14.4,2,14.4,2.64-15.42,4.67-10.14S473,402.68,473,402.68" style="fill:#92E3A9"></path><rect x="453.4" y="407.17" width="24.69" height="20.49" style="fill:none;stroke:#263238;stroke-linecap:round;stroke-linejoin:round"></rect><path d="M478.29,414.27V402.62h-25V416a3,3,0,0,0,3,3h.16a3,3,0,0,0,3-3v-1.69h.16V416a3,3,0,0,0,3,3h.16a3,3,0,0,0,3-3v-1.69h.16V416a3,3,0,0,0,3,3h.15a3,3,0,0,0,3-3v-1.69h.16V416a3,3,0,0,0,3,3h.15a3,3,0,0,0,3-3v-1.69Z" style="fill:#fff;stroke:#263238;stroke-linecap:round;stroke-linejoin:round"></path></g><g id="freepik--device-2--inject-75"><polygon points="178.21 412.37 178.21 403.76 159.39 403.76 159.39 412.05 178.21 412.37" style="fill:#bfbfbf;stroke:#263238;stroke-linecap:round;stroke-linejoin:round"></polygon><path d="M159.39,403.76l-1.91-4.47a37.84,37.84,0,0,1,11.16.64,27,27,0,0,1,9.57,3.83Z" style="fill:#fff;stroke:#263238;stroke-linecap:round;stroke-linejoin:round"></path><path d="M157.48,399.29s-6.38.32-9.89,4.79a20.26,20.26,0,0,0-3.83,10.2l15.63-2.23v-8.29Z" style="fill:#fff;stroke:#263238;stroke-linecap:round;stroke-linejoin:round"></path><path d="M154.29,406.63V413l-4.79.32a9.87,9.87,0,0,1,1-5.11A3.06,3.06,0,0,1,154.29,406.63Z" style="fill:#fff;stroke:#263238;stroke-linecap:round;stroke-linejoin:round"></path><polygon points="158.75 431.19 148.87 431.19 142.49 420.02 154.93 416.84 158.75 431.19" style="fill:#fff;stroke:#263238;stroke-linecap:round;stroke-linejoin:round"></polygon><polygon points="201.81 419.07 195.43 431.19 158.75 431.19 153.33 420.66 201.81 419.07" style="fill:#a6a6a6;stroke:#263238;stroke-linecap:round;stroke-linejoin:round"></polygon><rect x="153.33" y="411.73" width="50.39" height="8.93" transform="translate(357.06 832.4) rotate(180)" style="fill:#bfbfbf;stroke:#263238;stroke-linecap:round;stroke-linejoin:round"></rect><polygon points="153.33 411.73 141.53 415.88 141.53 421.3 153.33 420.66 153.33 411.73" style="fill:#fff;stroke:#263238;stroke-linecap:round;stroke-linejoin:round"></polygon></g><g id="freepik--device-1--inject-75"><polygon points="284.12 425.37 348.71 424.39 355.33 423.31 422.69 423.31 420.48 427.85 282.46 427.85 284.12 425.37" style="fill:#263238;stroke:#263238;stroke-linecap:round;stroke-linejoin:round"></polygon><polygon points="436.79 408.47 353.97 408.47 365.58 325.16 448.39 325.16 436.79 408.47" style="fill:#263238;stroke:#263238;stroke-linecap:round;stroke-linejoin:round"></polygon><polygon points="440.49 408.47 357.67 408.47 369.28 325.16 452.1 325.16 440.49 408.47" style="fill:#3d3d3d;stroke:#263238;stroke-linecap:round;stroke-linejoin:round"></polygon><polygon points="415.68 382.5 389.71 382.5 394.08 351.14 420.05 351.14 415.68 382.5" style="fill:#3d3d3d;stroke:#263238;stroke-linecap:round;stroke-linejoin:round"></polygon><polygon points="394.08 351.14 369.28 325.16 452.1 325.16 420.05 351.14 394.08 351.14" style="fill:#595959;stroke:#263238;stroke-linecap:round;stroke-linejoin:round"></polygon><polygon points="389.71 382.5 359.51 408.2 440.49 408.47 415.68 382.5 389.71 382.5" style="fill:#2e2e2e;stroke:#263238;stroke-linecap:round;stroke-linejoin:round"></polygon><circle cx="408.19" cy="372.67" r="15.54" style="fill:#263238;stroke:#263238;stroke-linecap:round;stroke-linejoin:round"></circle><path d="M409.61,364.79h1a10.14,10.14,0,0,1,10.14,10.14v55a0,0,0,0,1,0,0H399.47a0,0,0,0,1,0,0v-55A10.14,10.14,0,0,1,409.61,364.79Z" style="fill:#595959;stroke:#263238;stroke-linecap:round;stroke-linejoin:round"></path><path d="M420.75,429.92V375.43a9,9,0,1,0-17.88,2.13v52.36Z" style="fill:#595959;stroke:#263238;stroke-linecap:round;stroke-linejoin:round"></path><rect x="410.53" y="402.67" width="5.53" height="14.05" rx="2.64" style="fill:#263238;stroke:#263238;stroke-linecap:round;stroke-linejoin:round"></rect><rect x="382.01" y="424.81" width="39.16" height="5.11" style="fill:#595959;stroke:#263238;stroke-linecap:round;stroke-linejoin:round"></rect></g><g id="freepik--Table--inject-75"><rect x="19.85" y="427.79" width="468.5" height="8.94" style="fill:#263238;stroke:#263238;stroke-linecap:round;stroke-linejoin:round"></rect></g></svg>