<svg xmlns="http://www.w3.org/2000/svg" xmlns:xlink="http://www.w3.org/1999/xlink" version="1.1" x="0px" y="0px" viewBox="0 0 52 65" style="enable-background:new 0 0 52 52;" xml:space="preserve"><style type="text/css">
	.st0{fill:none;stroke:#000000;stroke-width:2;stroke-linecap:round;stroke-miterlimit:10;}
</style><g><g><path d="M36.0192261,49.9936523c-3.581543,0.0009766-7.1616211-1.3623047-9.8881836-4.0888672L6.0993042,25.8725586    c-2.6416016-2.640625-4.0961914-6.1523438-4.0961914-9.8876953S3.4577026,8.737793,6.0993042,6.0961909    c5.4521484-5.453125,14.3242188-5.453125,19.7763672,0L45.9074097,26.128418    c5.4526367,5.4521484,5.4526367,14.3242188,0,19.7763672C43.1813354,48.6303711,39.5997925,49.9936523,36.0192261,49.9936523z     M15.9874878,4.0063472c-3.0688477,0-6.1376953,1.1679688-8.4741211,3.5039063    c-2.2636719,2.2636724-3.5102539,5.273438-3.5102539,8.4746094s1.246582,6.2099609,3.5102539,8.4736328L27.545105,44.4907227    c4.671875,4.671875,12.2744141,4.671875,16.9482422,0c4.6723633-4.6728516,4.6723633-12.2753906,0-16.9482422    L24.4616089,7.5102534C22.1251831,5.1743159,19.0563354,4.0063472,15.9874878,4.0063472z"/></g><g><rect x="13.0190029" y="25.0010834" transform="matrix(0.7071068 -0.7071068 0.7071068 0.7071068 -10.769331 26.0024872)" width="25.9682198" height="1.9997864"/></g></g><text x="0" y="67" fill="#000000" font-size="5px" font-weight="bold" font-family="'Helvetica Neue', Helvetica, Arial-Unicode, Arial, Sans-serif">Created by DinosoftLab</text><text x="0" y="72" fill="#000000" font-size="5px" font-weight="bold" font-family="'Helvetica Neue', Helvetica, Arial-Unicode, Arial, Sans-serif">from the Noun Project</text></svg>